<?xml version="1.0" encoding="UTF-8" standalone="no"?>
<!DOCTYPE svg PUBLIC "-//W3C//DTD SVG 1.1//EN"
 "http://www.w3.org/Graphics/SVG/1.1/DTD/svg11.dtd">
<!-- Generated by graphviz version 2.30.1 (20180420.1509)
 -->
<!-- Title: G Pages: 1 -->
<svg width="532pt" height="208pt"
 viewBox="0.00 0.00 532.00 208.00" xmlns="http://www.w3.org/2000/svg" xmlns:xlink="http://www.w3.org/1999/xlink">
<g id="graph0" class="graph" transform="scale(1 1) rotate(0) translate(4 204)">
<title>G</title>
<polygon fill="white" stroke="white" points="-4,5 -4,-204 529,-204 529,5 -4,5"/>
<g id="clust1" class="cluster"><title>clusterA</title>
<polygon fill="none" stroke="black" points="102,-8 102,-190 516,-190 516,-8 102,-8"/>
</g>
<!-- tunnel -->
<g id="node1" class="node"><title>tunnel</title>
<ellipse fill="none" stroke="black" cx="37" cy="-164" rx="32.4945" ry="32.4945"/>
<ellipse fill="none" stroke="black" cx="37" cy="-164" rx="36.4942" ry="36.4942"/>
<text text-anchor="middle" x="37" y="-160.3" font-family="Times,serif" font-size="14.00">tunnel</text>
</g>
<!-- packetReader -->
<g id="node3" class="node"><title>packetReader</title>
<polygon fill="none" stroke="black" points="504,-181.5 402,-181.5 402,-138.5 504,-138.5 504,-181.5"/>
<text text-anchor="middle" x="453" y="-156.3" font-family="Times,serif" font-size="14.00">packetReader</text>
</g>
<!-- tunnel&#45;&gt;packetReader -->
<g id="edge1" class="edge"><title>tunnel&#45;&gt;packetReader</title>
<path fill="none" stroke="black" d="M72.2917,-173.525C81.8337,-175.767 92.2542,-177.841 102,-179 117.389,-180.831 339.477,-182.472 362,-180 371.785,-178.926 382.063,-177.214 392.032,-175.232"/>
<polygon fill="black" stroke="black" points="392.797,-178.648 401.868,-173.174 391.363,-171.796 392.797,-178.648"/>
</g>
<!-- packetWriter -->
<g id="node2" class="node"><title>packetWriter</title>
<polygon fill="none" stroke="black" points="214,-170.5 114,-170.5 114,-127.5 214,-127.5 214,-170.5"/>
<text text-anchor="middle" x="164" y="-145.3" font-family="Times,serif" font-size="14.00">packetWriter</text>
</g>
<!-- packetWriter&#45;&gt;tunnel -->
<g id="edge6" class="edge"><title>packetWriter&#45;&gt;tunnel</title>
<path fill="none" stroke="black" d="M113.955,-154.885C103.904,-156.091 93.3656,-157.356 83.4474,-158.546"/>
<polygon fill="black" stroke="black" points="82.8943,-155.087 73.3826,-159.754 83.7284,-162.038 82.8943,-155.087"/>
</g>
<!-- ReadQueue -->
<g id="node8" class="node"><title>ReadQueue</title>
<ellipse fill="none" stroke="black" cx="308" cy="-153" rx="51.9908" ry="18"/>
<text text-anchor="middle" x="308" y="-149.3" font-family="Times,serif" font-size="14.00">ReadQueue</text>
</g>
<!-- packetReader&#45;&gt;ReadQueue -->
<g id="edge2" class="edge"><title>packetReader&#45;&gt;ReadQueue</title>
<path fill="none" stroke="black" d="M401.986,-157.552C391.61,-157.044 380.568,-156.503 369.853,-155.979"/>
<polygon fill="black" stroke="black" points="369.871,-152.476 359.712,-155.482 369.529,-159.467 369.871,-152.476"/>
</g>
<!-- keepalive -->
<g id="node4" class="node"><title>keepalive</title>
<polygon fill="none" stroke="black" points="493,-120.5 413,-120.5 413,-77.5 493,-77.5 493,-120.5"/>
<text text-anchor="middle" x="453" y="-95.3" font-family="Times,serif" font-size="14.00">keepalive</text>
</g>
<!-- WriteQueue -->
<g id="node5" class="node"><title>WriteQueue</title>
<ellipse fill="none" stroke="black" cx="308" cy="-99" rx="53.8905" ry="18"/>
<text text-anchor="middle" x="308" y="-95.3" font-family="Times,serif" font-size="14.00">WriteQueue</text>
</g>
<!-- keepalive&#45;&gt;WriteQueue -->
<g id="edge7" class="edge"><title>keepalive&#45;&gt;WriteQueue</title>
<path fill="none" stroke="black" d="M412.925,-99C400.281,-99 385.922,-99 371.999,-99"/>
<polygon fill="black" stroke="black" points="371.969,-95.5001 361.969,-99 371.969,-102.5 371.969,-95.5001"/>
</g>
<!-- WriteQueue&#45;&gt;packetWriter -->
<g id="edge5" class="edge"><title>WriteQueue&#45;&gt;packetWriter</title>
<path fill="none" stroke="black" d="M270.062,-112.006C255.907,-116.99 239.385,-122.808 223.691,-128.334"/>
<polygon fill="black" stroke="black" points="222.325,-125.105 214.055,-131.727 224.65,-131.707 222.325,-125.105"/>
</g>
<!-- tunnel2Stream -->
<g id="node6" class="node"><title>tunnel2Stream</title>
<polygon fill="none" stroke="black" points="218,-109.5 110,-109.5 110,-66.5 218,-66.5 218,-109.5"/>
<text text-anchor="middle" x="164" y="-84.3" font-family="Times,serif" font-size="14.00">tunnel2Stream</text>
</g>
<!-- host -->
<g id="node9" class="node"><title>host</title>
<polygon fill="none" stroke="black" points="64,-91 14,-91 10,-87 10,-55 60,-55 64,-59 64,-91"/>
<polyline fill="none" stroke="black" points="60,-87 10,-87 "/>
<polyline fill="none" stroke="black" points="60,-87 60,-55 "/>
<polyline fill="none" stroke="black" points="60,-87 64,-91 "/>
<text text-anchor="middle" x="37" y="-69.3" font-family="Times,serif" font-size="14.00">host</text>
</g>
<!-- tunnel2Stream&#45;&gt;host -->
<g id="edge8" class="edge"><title>tunnel2Stream&#45;&gt;host</title>
<path fill="none" stroke="black" d="M109.989,-81.6386C97.9875,-80.1985 85.5084,-78.701 74.3773,-77.3653"/>
<polygon fill="black" stroke="black" points="74.5237,-73.8578 64.1779,-76.1414 73.6897,-80.808 74.5237,-73.8578"/>
</g>
<!-- stream2Tunnel -->
<g id="node7" class="node"><title>stream2Tunnel</title>
<polygon fill="none" stroke="black" points="508,-59.5 398,-59.5 398,-16.5 508,-16.5 508,-59.5"/>
<text text-anchor="middle" x="453" y="-34.3" font-family="Times,serif" font-size="14.00">stream2Tunnel</text>
</g>
<!-- stream2Tunnel&#45;&gt;WriteQueue -->
<g id="edge4" class="edge"><title>stream2Tunnel&#45;&gt;WriteQueue</title>
<path fill="none" stroke="black" d="M401.986,-59.3348C385.578,-66.3339 367.506,-74.0429 351.692,-80.7888"/>
<polygon fill="black" stroke="black" points="349.997,-77.7066 342.172,-84.8497 352.744,-84.1453 349.997,-77.7066"/>
</g>
<!-- ReadQueue&#45;&gt;tunnel2Stream -->
<g id="edge3" class="edge"><title>ReadQueue&#45;&gt;tunnel2Stream</title>
<path fill="none" stroke="black" d="M275.837,-138.735C259.704,-131.351 239.513,-122.108 220.801,-113.543"/>
<polygon fill="black" stroke="black" points="222.019,-110.251 211.469,-109.271 219.105,-116.616 222.019,-110.251"/>
</g>
<!-- host&#45;&gt;stream2Tunnel -->
<g id="edge9" class="edge"><title>host&#45;&gt;stream2Tunnel</title>
<path fill="none" stroke="black" d="M64.2387,-65.2393C75.7273,-62.1545 89.4291,-58.8948 102,-57 200.934,-42.0875 317.155,-38.4929 387.65,-37.8295"/>
<polygon fill="black" stroke="black" points="387.739,-41.329 397.712,-37.7519 387.685,-34.3292 387.739,-41.329"/>
</g>
</g>
</svg>
