<?xml version="1.0" encoding="UTF-8" standalone="yes"?><svg xmlns="http://www.w3.org/2000/svg" xmlns:xlink="http://www.w3.org/1999/xlink" height="542px" style="width:531px;height:542px;" version="1.1" viewBox="0 0 531 542" width="531px"><defs><filter height="300%" id="f1" width="300%" x="-1" y="-1"><feGaussianBlur result="blurOut" stdDeviation="2.0"/><feColorMatrix in="blurOut" result="blurOut2" type="matrix" values="0 0 0 0 0 0 0 0 0 0 0 0 0 0 0 0 0 0 .4 0"/><feOffset dx="4.0" dy="4.0" in="blurOut2" result="blurOut3"/><feBlend in="SourceGraphic" in2="blurOut3" mode="normal"/></filter></defs><g><rect fill="#FFFFFF" filter="url(#f1)" height="511" style="stroke: #000000; stroke-width: 2.0;" width="239" x="22" y="24"/><path d="M110,25 L110,34.7799 L100,44.7799 L22,44.7799 " fill="#FFFFFF" style="stroke: #000000; stroke-width: 2.0;"/><text fill="#000000" font-family="sans-serif" font-size="14" font-weight="bold" lengthAdjust="spacingAndGlyphs" textLength="78" x="25" y="38.9999">tunnelの例</text><rect fill="#FFFFFF" filter="url(#f1)" height="209" style="stroke: #000000; stroke-width: 2.0;" width="178" x="46" y="69"/><text fill="#000000" font-family="sans-serif" font-size="14" font-weight="bold" lengthAdjust="spacingAndGlyphs" textLength="72" x="99" y="84.9999">network_1</text><rect fill="#FFFFFF" filter="url(#f1)" height="209" style="stroke: #000000; stroke-width: 2.0;" width="178" x="46" y="302"/><text fill="#000000" font-family="sans-serif" font-size="14" font-weight="bold" lengthAdjust="spacingAndGlyphs" textLength="72" x="99" y="317.9999">network_2</text><rect fill="#FFFFFF" filter="url(#f1)" height="511" style="stroke: #000000; stroke-width: 2.0;" width="239" x="285" y="24"/><path d="M437,25 L437,34.7799 L427,44.7799 L285,44.7799 " fill="#FFFFFF" style="stroke: #000000; stroke-width: 2.0;"/><text fill="#000000" font-family="sans-serif" font-size="14" font-weight="bold" lengthAdjust="spacingAndGlyphs" textLength="142" x="288" y="38.9999">reverse_tunnelの例</text><rect fill="#FFFFFF" filter="url(#f1)" height="209" style="stroke: #000000; stroke-width: 2.0;" width="178" x="309" y="69"/><text fill="#000000" font-family="sans-serif" font-size="14" font-weight="bold" lengthAdjust="spacingAndGlyphs" textLength="72" x="362" y="84.9999">network_A</text><rect fill="#FFFFFF" filter="url(#f1)" height="209" style="stroke: #000000; stroke-width: 2.0;" width="178" x="309" y="302"/><text fill="#000000" font-family="sans-serif" font-size="14" font-weight="bold" lengthAdjust="spacingAndGlyphs" textLength="72" x="362" y="317.9999">network_B</text><polygon fill="#FEFECE" filter="url(#f1)" points="78,116,88,106,202,106,202,143.7799,192,153.7799,78,153.7799,78,116" style="stroke: #000000; stroke-width: 1.5;"/><line style="stroke: #000000; stroke-width: 1.5;" x1="192" x2="201" y1="116" y2="107"/><line style="stroke: #000000; stroke-width: 1.5;" x1="78" x2="192" y1="116" y2="116"/><line style="stroke: #000000; stroke-width: 1.5;" x1="192" x2="192" y1="116" y2="153.7799"/><text fill="#000000" font-family="sans-serif" font-size="14" lengthAdjust="spacingAndGlyphs" textLength="84" x="93" y="139.9999">tcp_client_A</text><polygon fill="#FEFECE" filter="url(#f1)" points="62.75,224,72.75,214,207.75,214,207.75,251.7799,197.75,261.7799,62.75,261.7799,62.75,224" style="stroke: #000000; stroke-width: 1.5;"/><line style="stroke: #000000; stroke-width: 1.5;" x1="197.75" x2="206.75" y1="224" y2="215"/><line style="stroke: #000000; stroke-width: 1.5;" x1="62.75" x2="197.75" y1="224" y2="224"/><line style="stroke: #000000; stroke-width: 1.5;" x1="197.75" x2="197.75" y1="224" y2="261.7799"/><text fill="#000000" font-family="sans-serif" font-size="14" lengthAdjust="spacingAndGlyphs" textLength="105" x="77.75" y="247.9999">tunnel_client_1</text><polygon fill="#FEFECE" filter="url(#f1)" points="62.75,349,72.75,339,207.75,339,207.75,376.7799,197.75,386.7799,62.75,386.7799,62.75,349" style="stroke: #000000; stroke-width: 1.5;"/><line style="stroke: #000000; stroke-width: 1.5;" x1="197.75" x2="206.75" y1="349" y2="340"/><line style="stroke: #000000; stroke-width: 1.5;" x1="62.75" x2="197.75" y1="349" y2="349"/><line style="stroke: #000000; stroke-width: 1.5;" x1="197.75" x2="197.75" y1="349" y2="386.7799"/><text fill="#000000" font-family="sans-serif" font-size="14" lengthAdjust="spacingAndGlyphs" textLength="105" x="77.75" y="372.9999">tunnel_server_1</text><polygon fill="#FEFECE" filter="url(#f1)" points="78,457,88,447,202,447,202,484.7799,192,494.7799,78,494.7799,78,457" style="stroke: #000000; stroke-width: 1.5;"/><line style="stroke: #000000; stroke-width: 1.5;" x1="192" x2="201" y1="457" y2="448"/><line style="stroke: #000000; stroke-width: 1.5;" x1="78" x2="192" y1="457" y2="457"/><line style="stroke: #000000; stroke-width: 1.5;" x1="192" x2="192" y1="457" y2="494.7799"/><text fill="#000000" font-family="sans-serif" font-size="14" lengthAdjust="spacingAndGlyphs" textLength="84" x="93" y="480.9999">tcp_server_B</text><polygon fill="#FEFECE" filter="url(#f1)" points="341,116,351,106,465,106,465,143.7799,455,153.7799,341,153.7799,341,116" style="stroke: #000000; stroke-width: 1.5;"/><line style="stroke: #000000; stroke-width: 1.5;" x1="455" x2="464" y1="116" y2="107"/><line style="stroke: #000000; stroke-width: 1.5;" x1="341" x2="455" y1="116" y2="116"/><line style="stroke: #000000; stroke-width: 1.5;" x1="455" x2="455" y1="116" y2="153.7799"/><text fill="#000000" font-family="sans-serif" font-size="14" lengthAdjust="spacingAndGlyphs" textLength="84" x="356" y="139.9999">tcp_server_C</text><polygon fill="#FEFECE" filter="url(#f1)" points="325.75,224,335.75,214,470.75,214,470.75,251.7799,460.75,261.7799,325.75,261.7799,325.75,224" style="stroke: #000000; stroke-width: 1.5;"/><line style="stroke: #000000; stroke-width: 1.5;" x1="460.75" x2="469.75" y1="224" y2="215"/><line style="stroke: #000000; stroke-width: 1.5;" x1="325.75" x2="460.75" y1="224" y2="224"/><line style="stroke: #000000; stroke-width: 1.5;" x1="460.75" x2="460.75" y1="224" y2="261.7799"/><text fill="#000000" font-family="sans-serif" font-size="14" lengthAdjust="spacingAndGlyphs" textLength="105" x="340.75" y="247.9999">tunnel_client_2</text><polygon fill="#FEFECE" filter="url(#f1)" points="325.75,349,335.75,339,470.75,339,470.75,376.7799,460.75,386.7799,325.75,386.7799,325.75,349" style="stroke: #000000; stroke-width: 1.5;"/><line style="stroke: #000000; stroke-width: 1.5;" x1="460.75" x2="469.75" y1="349" y2="340"/><line style="stroke: #000000; stroke-width: 1.5;" x1="325.75" x2="460.75" y1="349" y2="349"/><line style="stroke: #000000; stroke-width: 1.5;" x1="460.75" x2="460.75" y1="349" y2="386.7799"/><text fill="#000000" font-family="sans-serif" font-size="14" lengthAdjust="spacingAndGlyphs" textLength="105" x="340.75" y="372.9999">tunnel_server_2</text><polygon fill="#FEFECE" filter="url(#f1)" points="341,457,351,447,465,447,465,484.7799,455,494.7799,341,494.7799,341,457" style="stroke: #000000; stroke-width: 1.5;"/><line style="stroke: #000000; stroke-width: 1.5;" x1="455" x2="464" y1="457" y2="448"/><line style="stroke: #000000; stroke-width: 1.5;" x1="341" x2="455" y1="457" y2="457"/><line style="stroke: #000000; stroke-width: 1.5;" x1="455" x2="455" y1="457" y2="494.7799"/><text fill="#000000" font-family="sans-serif" font-size="14" lengthAdjust="spacingAndGlyphs" textLength="84" x="356" y="480.9999">tcp_client_D</text><path d="M138.915,154 C138.16,170.003 137.149,191.446 136.343,208.528 " fill="none" style="stroke: #A80036; stroke-width: 1.0;"/><polygon fill="#A80036" points="136.1,213.678,140.5199,204.8766,136.3357,208.6836,132.5287,204.4994,136.1,213.678" style="stroke: #A80036; stroke-width: 1.0;"/><path d="M135,262.135 C135,282.494 135,312.191 135,333.908 " fill="none" style="stroke: #A80036; stroke-width: 1.0;"/><polygon fill="#A80036" points="135,338.968,139,329.968,135,333.968,131,329.968,135,338.968" style="stroke: #A80036; stroke-width: 1.0;"/><path d="M136.085,387 C136.84,403.003 137.851,424.446 138.657,441.528 " fill="none" style="stroke: #A80036; stroke-width: 1.0;"/><polygon fill="#A80036" points="138.9,446.678,142.4713,437.4994,138.6643,441.6836,134.4801,437.8766,138.9,446.678" style="stroke: #A80036; stroke-width: 1.0;"/><path d="M174.414,154.339 C192.885,169.036 213.885,189.786 224,214 C253.637,284.948 253.637,316.052 224,387 C214.596,409.512 195.784,429.029 178.343,443.472 " fill="none" style="stroke: #A80036; stroke-width: 1.0; stroke-dasharray: 7.0,7.0;"/><polygon fill="#A80036" points="174.414,446.661,183.9227,444.0951,178.2962,443.5101,178.8813,437.8836,174.414,446.661" style="stroke: #A80036; stroke-width: 1.0;"/><path d="M401.673,159.131 C400.87,176.154 399.858,197.604 399.1,213.678 " fill="none" style="stroke: #A80036; stroke-width: 1.0;"/><polygon fill="#A80036" points="401.915,154,397.4951,162.8014,401.6793,158.9944,405.4863,163.1786,401.915,154" style="stroke: #A80036; stroke-width: 1.0;"/><path d="M398,262.135 C398,282.494 398,312.191 398,333.908 " fill="none" style="stroke: #A80036; stroke-width: 1.0;"/><polygon fill="#A80036" points="398,338.968,402,329.968,398,333.968,394,329.968,398,338.968" style="stroke: #A80036; stroke-width: 1.0;"/><path d="M399.327,392.131 C400.13,409.154 401.142,430.604 401.9,446.678 " fill="none" style="stroke: #A80036; stroke-width: 1.0;"/><polygon fill="#A80036" points="399.085,387,395.5137,396.1786,399.3207,391.9944,403.5049,395.8014,399.085,387" style="stroke: #A80036; stroke-width: 1.0;"/><path d="M437.414,446.661 C455.885,431.964 476.885,411.214 487,387 C516.637,316.052 516.637,284.948 487,214 C477.596,191.488 458.784,171.971 441.343,157.528 " fill="none" style="stroke: #A80036; stroke-width: 1.0; stroke-dasharray: 7.0,7.0;"/><polygon fill="#A80036" points="437.414,154.339,441.8813,163.1164,441.2962,157.4899,446.9227,156.9049,437.414,154.339" style="stroke: #A80036; stroke-width: 1.0;"/></g></svg>