<?xml version="1.0" encoding="UTF-8" standalone="yes"?><svg xmlns="http://www.w3.org/2000/svg" xmlns:xlink="http://www.w3.org/1999/xlink" height="339px" style="width:1197px;height:339px;" version="1.1" viewBox="0 0 1197 339" width="1197px"><defs><filter height="300%" id="f1" width="300%" x="-1" y="-1"><feGaussianBlur result="blurOut" stdDeviation="2.0"/><feColorMatrix in="blurOut" result="blurOut2" type="matrix" values="0 0 0 0 0 0 0 0 0 0 0 0 0 0 0 0 0 0 .4 0"/><feOffset dx="4.0" dy="4.0" in="blurOut2" result="blurOut3"/><feBlend in="SourceGraphic" in2="blurOut3" mode="normal"/></filter></defs><g><line style="stroke: #A80036; stroke-width: 1.0; stroke-dasharray: 5.0,5.0;" x1="87" x2="87" y1="39.7799" y2="299.35"/><line style="stroke: #A80036; stroke-width: 1.0; stroke-dasharray: 5.0,5.0;" x1="303.5" x2="303.5" y1="39.7799" y2="299.35"/><line style="stroke: #A80036; stroke-width: 1.0; stroke-dasharray: 5.0,5.0;" x1="464.5" x2="464.5" y1="39.7799" y2="299.35"/><line style="stroke: #A80036; stroke-width: 1.0; stroke-dasharray: 5.0,5.0;" x1="625.5" x2="625.5" y1="39.7799" y2="299.35"/><line style="stroke: #A80036; stroke-width: 1.0; stroke-dasharray: 5.0,5.0;" x1="786.5" x2="786.5" y1="39.7799" y2="299.35"/><line style="stroke: #A80036; stroke-width: 1.0; stroke-dasharray: 5.0,5.0;" x1="1028" x2="1028" y1="39.7799" y2="299.35"/><rect fill="#FEFECE" filter="url(#f1)" height="31.7799" style="stroke: #A80036; stroke-width: 1.5;" width="154" x="8" y="3"/><text fill="#000000" font-family="sans-serif" font-size="14" lengthAdjust="spacingAndGlyphs" textLength="140" x="15" y="23.9999">stream2Tunnel_client</text><rect fill="#FEFECE" filter="url(#f1)" height="31.7799" style="stroke: #A80036; stroke-width: 1.5;" width="154" x="8" y="298.35"/><text fill="#000000" font-family="sans-serif" font-size="14" lengthAdjust="spacingAndGlyphs" textLength="140" x="15" y="319.35">stream2Tunnel_client</text><rect fill="#FEFECE" filter="url(#f1)" height="31.7799" style="stroke: #A80036; stroke-width: 1.5;" width="147" x="228.5" y="3"/><text fill="#000000" font-family="sans-serif" font-size="14" lengthAdjust="spacingAndGlyphs" textLength="133" x="235.5" y="23.9999">packetReader_client</text><rect fill="#FEFECE" filter="url(#f1)" height="31.7799" style="stroke: #A80036; stroke-width: 1.5;" width="147" x="228.5" y="298.35"/><text fill="#000000" font-family="sans-serif" font-size="14" lengthAdjust="spacingAndGlyphs" textLength="133" x="235.5" y="319.35">packetReader_client</text><rect fill="#FEFECE" filter="url(#f1)" height="31.7799" style="stroke: #A80036; stroke-width: 1.5;" width="147" x="389.5" y="3"/><text fill="#000000" font-family="sans-serif" font-size="14" lengthAdjust="spacingAndGlyphs" textLength="133" x="396.5" y="23.9999">packetWriter_client</text><rect fill="#FEFECE" filter="url(#f1)" height="31.7799" style="stroke: #A80036; stroke-width: 1.5;" width="147" x="389.5" y="298.35"/><text fill="#000000" font-family="sans-serif" font-size="14" lengthAdjust="spacingAndGlyphs" textLength="133" x="396.5" y="319.35">packetWriter_client</text><rect fill="#FEFECE" filter="url(#f1)" height="31.7799" style="stroke: #A80036; stroke-width: 1.5;" width="147" x="550.5" y="3"/><text fill="#000000" font-family="sans-serif" font-size="14" lengthAdjust="spacingAndGlyphs" textLength="133" x="557.5" y="23.9999">packetWriter_server</text><rect fill="#FEFECE" filter="url(#f1)" height="31.7799" style="stroke: #A80036; stroke-width: 1.5;" width="147" x="550.5" y="298.35"/><text fill="#000000" font-family="sans-serif" font-size="14" lengthAdjust="spacingAndGlyphs" textLength="133" x="557.5" y="319.35">packetWriter_server</text><rect fill="#FEFECE" filter="url(#f1)" height="31.7799" style="stroke: #A80036; stroke-width: 1.5;" width="147" x="711.5" y="3"/><text fill="#000000" font-family="sans-serif" font-size="14" lengthAdjust="spacingAndGlyphs" textLength="133" x="718.5" y="23.9999">packetReader_server</text><rect fill="#FEFECE" filter="url(#f1)" height="31.7799" style="stroke: #A80036; stroke-width: 1.5;" width="147" x="711.5" y="298.35"/><text fill="#000000" font-family="sans-serif" font-size="14" lengthAdjust="spacingAndGlyphs" textLength="133" x="718.5" y="319.35">packetReader_server</text><rect fill="#FEFECE" filter="url(#f1)" height="31.7799" style="stroke: #A80036; stroke-width: 1.5;" width="154" x="949" y="3"/><text fill="#000000" font-family="sans-serif" font-size="14" lengthAdjust="spacingAndGlyphs" textLength="140" x="956" y="23.9999">tunnel2Stream_server</text><rect fill="#FEFECE" filter="url(#f1)" height="31.7799" style="stroke: #A80036; stroke-width: 1.5;" width="154" x="949" y="298.35"/><text fill="#000000" font-family="sans-serif" font-size="14" lengthAdjust="spacingAndGlyphs" textLength="140" x="956" y="319.35">tunnel2Stream_server</text><line style="stroke: #A80036; stroke-width: 1.0;" x1="87" x2="129" y1="72.2899" y2="72.2899"/><line style="stroke: #A80036; stroke-width: 1.0;" x1="129" x2="129" y1="72.2899" y2="85.2899"/><line style="stroke: #A80036; stroke-width: 1.0;" x1="88" x2="129" y1="85.2899" y2="85.2899"/><polygon fill="#A80036" points="98,81.2899,88,85.2899,98,89.2899,94,85.2899" style="stroke: #A80036; stroke-width: 1.0;"/><text fill="#000000" font-family="sans-serif" font-size="13" lengthAdjust="spacingAndGlyphs" textLength="203" x="94" y="66.7799">check the count send packets.</text><line style="stroke: #A80036; stroke-width: 1.0;" x1="463" x2="453" y1="115.2899" y2="111.2899"/><line style="stroke: #A80036; stroke-width: 1.0;" x1="463" x2="453" y1="115.2899" y2="119.2899"/><line style="stroke: #A80036; stroke-width: 1.0;" x1="87" x2="464" y1="115.2899" y2="115.2899"/><text fill="#000000" font-family="sans-serif" font-size="13" lengthAdjust="spacingAndGlyphs" textLength="224" x="94" y="110.2899">write the packet to client queue</text><line style="stroke: #A80036; stroke-width: 1.0;" x1="785" x2="775" y1="145.7999" y2="141.7999"/><line style="stroke: #A80036; stroke-width: 1.0;" x1="785" x2="775" y1="145.7999" y2="149.7999"/><line style="stroke: #A80036; stroke-width: 1.0;" x1="465" x2="786" y1="145.7999" y2="145.7999"/><text fill="#000000" font-family="sans-serif" font-size="13" lengthAdjust="spacingAndGlyphs" textLength="112" x="472" y="140.8">write the packet</text><line style="stroke: #A80036; stroke-width: 1.0;" x1="1026" x2="1016" y1="176.31" y2="172.31"/><line style="stroke: #A80036; stroke-width: 1.0;" x1="1026" x2="1016" y1="176.31" y2="180.31"/><line style="stroke: #A80036; stroke-width: 1.0;" x1="787" x2="1027" y1="176.31" y2="176.31"/><text fill="#000000" font-family="sans-serif" font-size="13" lengthAdjust="spacingAndGlyphs" textLength="217" x="794" y="171.31">read the packet to server queue</text><line style="stroke: #A80036; stroke-width: 1.0;" x1="1028" x2="1070" y1="207.33" y2="207.33"/><line style="stroke: #A80036; stroke-width: 1.0;" x1="1070" x2="1070" y1="207.33" y2="220.33"/><line style="stroke: #A80036; stroke-width: 1.0;" x1="1029" x2="1070" y1="220.33" y2="220.33"/><polygon fill="#A80036" points="1039,216.33,1029,220.33,1039,224.33,1035,220.33" style="stroke: #A80036; stroke-width: 1.0;"/><text fill="#000000" font-family="sans-serif" font-size="13" lengthAdjust="spacingAndGlyphs" textLength="161" x="1035" y="201.82">count received packets.</text><line style="stroke: #A80036; stroke-width: 1.0;" x1="626" x2="636" y1="250.33" y2="246.33"/><line style="stroke: #A80036; stroke-width: 1.0;" x1="626" x2="636" y1="250.33" y2="254.33"/><line style="stroke: #A80036; stroke-width: 1.0;" x1="626" x2="1027" y1="250.33" y2="250.33"/><text fill="#000000" font-family="sans-serif" font-size="13" lengthAdjust="spacingAndGlyphs" textLength="210" x="643" y="245.33">write the sync to server queue</text><line style="stroke: #A80036; stroke-width: 1.0;" x1="304" x2="314" y1="280.84" y2="276.84"/><line style="stroke: #A80036; stroke-width: 1.0;" x1="304" x2="314" y1="280.84" y2="284.84"/><line style="stroke: #A80036; stroke-width: 1.0;" x1="304" x2="625" y1="280.84" y2="280.84"/><text fill="#000000" font-family="sans-serif" font-size="13" lengthAdjust="spacingAndGlyphs" textLength="98" x="321" y="275.84">write the sync</text></g></svg>