<?xml version="1.0" encoding="UTF-8" standalone="no"?>
<!DOCTYPE svg PUBLIC "-//W3C//DTD SVG 1.1//EN"
 "http://www.w3.org/Graphics/SVG/1.1/DTD/svg11.dtd">
<!-- Generated by graphviz version 2.30.1 (20180420.1509)
 -->
<!-- Title: G Pages: 1 -->
<svg width="600pt" height="206pt"
 viewBox="0.00 0.00 600.00 206.00" xmlns="http://www.w3.org/2000/svg" xmlns:xlink="http://www.w3.org/1999/xlink">
<g id="graph0" class="graph" transform="scale(1 1) rotate(0) translate(4 202)">
<title>G</title>
<polygon fill="white" stroke="white" points="-4,5 -4,-202 597,-202 597,5 -4,5"/>
<g id="clust1" class="cluster"><title>clusterA</title>
<polygon fill="none" stroke="black" points="102,-8 102,-190 510,-190 510,-8 102,-8"/>
</g>
<!-- tunnel -->
<g id="node1" class="node"><title>tunnel</title>
<ellipse fill="none" stroke="black" cx="37" cy="-68" rx="32.4945" ry="32.4945"/>
<ellipse fill="none" stroke="black" cx="37" cy="-68" rx="36.4942" ry="36.4942"/>
<text text-anchor="middle" x="37" y="-64.3" font-family="Times,serif" font-size="14.00">tunnel</text>
</g>
<!-- packetReader -->
<g id="node3" class="node"><title>packetReader</title>
<polygon fill="none" stroke="black" points="212,-59.5 110,-59.5 110,-16.5 212,-16.5 212,-59.5"/>
<text text-anchor="middle" x="161" y="-34.3" font-family="Times,serif" font-size="14.00">packetReader</text>
</g>
<!-- tunnel&#45;&gt;packetReader -->
<g id="edge1" class="edge"><title>tunnel&#45;&gt;packetReader</title>
<path fill="none" stroke="black" d="M72.5907,-59.4941C81.1454,-57.3905 90.559,-55.0757 99.9427,-52.7682"/>
<polygon fill="black" stroke="black" points="100.799,-56.1621 109.674,-50.3754 99.1271,-49.3646 100.799,-56.1621"/>
</g>
<!-- packetWriter -->
<g id="node2" class="node"><title>packetWriter</title>
<polygon fill="none" stroke="black" points="211,-120.5 111,-120.5 111,-77.5 211,-77.5 211,-120.5"/>
<text text-anchor="middle" x="161" y="-95.3" font-family="Times,serif" font-size="14.00">packetWriter</text>
</g>
<!-- packetWriter&#45;&gt;tunnel -->
<g id="edge6" class="edge"><title>packetWriter&#45;&gt;tunnel</title>
<path fill="none" stroke="black" d="M110.73,-86.4805C101.308,-84.0864 91.4982,-81.5938 82.246,-79.2428"/>
<polygon fill="black" stroke="black" points="83.0238,-75.8293 72.4698,-76.7587 81.2999,-82.6137 83.0238,-75.8293"/>
</g>
<!-- ReadQueue -->
<g id="node8" class="node"><title>ReadQueue</title>
<ellipse fill="none" stroke="black" cx="302" cy="-38" rx="51.9908" ry="18"/>
<text text-anchor="middle" x="302" y="-34.3" font-family="Times,serif" font-size="14.00">ReadQueue</text>
</g>
<!-- packetReader&#45;&gt;ReadQueue -->
<g id="edge2" class="edge"><title>packetReader&#45;&gt;ReadQueue</title>
<path fill="none" stroke="black" d="M212.227,-38C221.067,-38 230.359,-38 239.467,-38"/>
<polygon fill="black" stroke="black" points="239.636,-41.5001 249.636,-38 239.636,-34.5001 239.636,-41.5001"/>
</g>
<!-- keepalive -->
<g id="node4" class="node"><title>keepalive</title>
<polygon fill="none" stroke="black" points="487,-181.5 407,-181.5 407,-138.5 487,-138.5 487,-181.5"/>
<text text-anchor="middle" x="447" y="-156.3" font-family="Times,serif" font-size="14.00">keepalive</text>
</g>
<!-- WriteQueue -->
<g id="node5" class="node"><title>WriteQueue</title>
<ellipse fill="none" stroke="black" cx="302" cy="-99" rx="53.8905" ry="18"/>
<text text-anchor="middle" x="302" y="-95.3" font-family="Times,serif" font-size="14.00">WriteQueue</text>
</g>
<!-- keepalive&#45;&gt;WriteQueue -->
<g id="edge7" class="edge"><title>keepalive&#45;&gt;WriteQueue</title>
<path fill="none" stroke="black" d="M406.925,-143.331C387.879,-135.207 364.939,-125.422 345.462,-117.113"/>
<polygon fill="black" stroke="black" points="346.783,-113.872 336.212,-113.167 344.036,-120.31 346.783,-113.872"/>
</g>
<!-- WriteQueue&#45;&gt;packetWriter -->
<g id="edge5" class="edge"><title>WriteQueue&#45;&gt;packetWriter</title>
<path fill="none" stroke="black" d="M248.054,-99C239.341,-99 230.26,-99 221.402,-99"/>
<polygon fill="black" stroke="black" points="221.142,-95.5001 211.142,-99 221.142,-102.5 221.142,-95.5001"/>
</g>
<!-- tunnel2Stream -->
<g id="node6" class="node"><title>tunnel2Stream</title>
<polygon fill="none" stroke="black" points="501,-59.5 393,-59.5 393,-16.5 501,-16.5 501,-59.5"/>
<text text-anchor="middle" x="447" y="-34.3" font-family="Times,serif" font-size="14.00">tunnel2Stream</text>
</g>
<!-- host -->
<g id="node9" class="node"><title>host</title>
<polygon fill="none" stroke="black" points="592,-86 542,-86 538,-82 538,-50 588,-50 592,-54 592,-86"/>
<polyline fill="none" stroke="black" points="588,-82 538,-82 "/>
<polyline fill="none" stroke="black" points="588,-82 588,-50 "/>
<polyline fill="none" stroke="black" points="588,-82 592,-86 "/>
<text text-anchor="middle" x="565" y="-64.3" font-family="Times,serif" font-size="14.00">host</text>
</g>
<!-- tunnel2Stream&#45;&gt;host -->
<g id="edge8" class="edge"><title>tunnel2Stream&#45;&gt;host</title>
<path fill="none" stroke="black" d="M501.006,-51.7085C510.234,-54.095 519.632,-56.5254 528.256,-58.7558"/>
<polygon fill="black" stroke="black" points="527.409,-62.152 537.967,-61.2674 529.162,-55.375 527.409,-62.152"/>
</g>
<!-- stream2Tunnel -->
<g id="node7" class="node"><title>stream2Tunnel</title>
<polygon fill="none" stroke="black" points="502,-120.5 392,-120.5 392,-77.5 502,-77.5 502,-120.5"/>
<text text-anchor="middle" x="447" y="-95.3" font-family="Times,serif" font-size="14.00">stream2Tunnel</text>
</g>
<!-- stream2Tunnel&#45;&gt;WriteQueue -->
<g id="edge4" class="edge"><title>stream2Tunnel&#45;&gt;WriteQueue</title>
<path fill="none" stroke="black" d="M391.938,-99C383.616,-99 374.958,-99 366.454,-99"/>
<polygon fill="black" stroke="black" points="366.191,-95.5001 356.191,-99 366.191,-102.5 366.191,-95.5001"/>
</g>
<!-- ReadQueue&#45;&gt;tunnel2Stream -->
<g id="edge3" class="edge"><title>ReadQueue&#45;&gt;tunnel2Stream</title>
<path fill="none" stroke="black" d="M354.393,-38C363.545,-38 373.176,-38 382.616,-38"/>
<polygon fill="black" stroke="black" points="382.752,-41.5001 392.752,-38 382.752,-34.5001 382.752,-41.5001"/>
</g>
<!-- host&#45;&gt;stream2Tunnel -->
<g id="edge9" class="edge"><title>host&#45;&gt;stream2Tunnel</title>
<path fill="none" stroke="black" d="M537.967,-74.957C530.217,-77.0283 521.358,-79.3956 512.293,-81.8184"/>
<polygon fill="black" stroke="black" points="511.174,-78.4945 502.416,-84.4577 512.981,-85.2571 511.174,-78.4945"/>
</g>
</g>
</svg>
