<?xml version="1.0" encoding="UTF-8" standalone="no"?>
<!DOCTYPE svg PUBLIC "-//W3C//DTD SVG 1.1//EN"
 "http://www.w3.org/Graphics/SVG/1.1/DTD/svg11.dtd">
<!-- Generated by graphviz version 2.30.1 (20180420.1509)
 -->
<!-- Title: G Pages: 1 -->
<svg width="134pt" height="260pt"
 viewBox="0.00 0.00 134.00 260.00" xmlns="http://www.w3.org/2000/svg" xmlns:xlink="http://www.w3.org/1999/xlink">
<g id="graph0" class="graph" transform="scale(1 1) rotate(0) translate(4 256)">
<title>G</title>
<polygon fill="white" stroke="white" points="-4,5 -4,-256 131,-256 131,5 -4,5"/>
<!-- node0 -->
<g id="node1" class="node"><title>node0</title>
<polygon fill="none" stroke="black" points="90,-252 36,-252 36,-216 90,-216 90,-252"/>
<text text-anchor="middle" x="63" y="-230.3" font-family="Times,serif" font-size="14.00">buf</text>
</g>
<!-- node1 -->
<g id="node2" class="node"><title>node1</title>
<polygon fill="none" stroke="black" points="54,-180 0,-180 0,-144 54,-144 54,-180"/>
<text text-anchor="middle" x="27" y="-158.3" font-family="Times,serif" font-size="14.00">buf</text>
</g>
<!-- node0&#45;&gt;node1 -->
<g id="edge1" class="edge"><title>node0&#45;&gt;node1</title>
<path fill="none" stroke="black" d="M54.1011,-215.697C50.0032,-207.728 45.0512,-198.1 40.5073,-189.264"/>
<polygon fill="black" stroke="black" points="43.4826,-187.396 35.7965,-180.104 37.2575,-190.598 43.4826,-187.396"/>
</g>
<!-- node2 -->
<g id="node3" class="node"><title>node2</title>
<polygon fill="none" stroke="black" points="54,-108 0,-108 0,-72 54,-72 54,-108"/>
<text text-anchor="middle" x="27" y="-86.3" font-family="Times,serif" font-size="14.00">buf</text>
</g>
<!-- node1&#45;&gt;node2 -->
<g id="edge2" class="edge"><title>node1&#45;&gt;node2</title>
<path fill="none" stroke="black" d="M27,-143.697C27,-135.983 27,-126.712 27,-118.112"/>
<polygon fill="black" stroke="black" points="30.5001,-118.104 27,-108.104 23.5001,-118.104 30.5001,-118.104"/>
</g>
<!-- node3 -->
<g id="node4" class="node"><title>node3</title>
<polygon fill="none" stroke="black" points="90,-36 36,-36 36,-0 90,-0 90,-36"/>
<text text-anchor="middle" x="63" y="-14.3" font-family="Times,serif" font-size="14.00">buf</text>
</g>
<!-- node2&#45;&gt;node3 -->
<g id="edge3" class="edge"><title>node2&#45;&gt;node3</title>
<path fill="none" stroke="black" d="M35.8989,-71.6966C39.9968,-63.7284 44.9488,-54.0995 49.4927,-45.2641"/>
<polygon fill="black" stroke="black" points="52.7425,-46.598 54.2035,-36.1043 46.5174,-43.3965 52.7425,-46.598"/>
</g>
<!-- node4 -->
<g id="node5" class="node"><title>node4</title>
<polygon fill="none" stroke="black" points="126,-108 72,-108 72,-72 126,-72 126,-108"/>
<text text-anchor="middle" x="99" y="-86.3" font-family="Times,serif" font-size="14.00">buf</text>
</g>
<!-- node3&#45;&gt;node4 -->
<g id="edge4" class="edge"><title>node3&#45;&gt;node4</title>
<path fill="none" stroke="black" d="M71.7965,-36.1043C75.9236,-44.1291 80.9337,-53.871 85.524,-62.7967"/>
<polygon fill="black" stroke="black" points="82.4151,-64.4045 90.1011,-71.6966 88.6401,-61.203 82.4151,-64.4045"/>
</g>
<!-- node5 -->
<g id="node6" class="node"><title>node5</title>
<polygon fill="none" stroke="black" points="126,-180 72,-180 72,-144 126,-144 126,-180"/>
<text text-anchor="middle" x="99" y="-158.3" font-family="Times,serif" font-size="14.00">buf</text>
</g>
<!-- node4&#45;&gt;node5 -->
<g id="edge5" class="edge"><title>node4&#45;&gt;node5</title>
<path fill="none" stroke="black" d="M99,-108.104C99,-115.791 99,-125.054 99,-133.665"/>
<polygon fill="black" stroke="black" points="95.5001,-133.697 99,-143.697 102.5,-133.697 95.5001,-133.697"/>
</g>
<!-- node5&#45;&gt;node0 -->
<g id="edge6" class="edge"><title>node5&#45;&gt;node0</title>
<path fill="none" stroke="black" d="M90.2035,-180.104C86.0764,-188.129 81.0663,-197.871 76.476,-206.797"/>
<polygon fill="black" stroke="black" points="73.3599,-205.203 71.8989,-215.697 79.5849,-208.404 73.3599,-205.203"/>
</g>
</g>
</svg>
