<?xml version="1.0" encoding="UTF-8" standalone="no"?>
<!DOCTYPE svg PUBLIC "-//W3C//DTD SVG 1.1//EN"
 "http://www.w3.org/Graphics/SVG/1.1/DTD/svg11.dtd">
<!-- Generated by graphviz version 2.38.0 (20140413.2041)
 -->
<!-- Title: G Pages: 1 -->
<svg width="599pt" height="206pt"
 viewBox="0.00 0.00 598.88 206.00" xmlns="http://www.w3.org/2000/svg" xmlns:xlink="http://www.w3.org/1999/xlink">
<g id="graph0" class="graph" transform="scale(1 1) rotate(0) translate(4 202)">
<title>G</title>
<polygon fill="white" stroke="none" points="-4,4 -4,-202 594.885,-202 594.885,4 -4,4"/>
<g id="clust1" class="cluster"><title>clusterA</title>
<polygon fill="none" stroke="black" points="100.994,-8 100.994,-190 508.885,-190 508.885,-8 100.994,-8"/>
</g>
<!-- tunnel -->
<g id="node1" class="node"><title>tunnel</title>
<ellipse fill="none" stroke="black" cx="36.4971" cy="-68" rx="32.4945" ry="32.4945"/>
<ellipse fill="none" stroke="black" cx="36.4971" cy="-68" rx="36.4942" ry="36.4942"/>
<text text-anchor="middle" x="36.4971" y="-64.3" font-family="Times,serif" font-size="14.00">tunnel</text>
</g>
<!-- packetReader -->
<g id="node3" class="node"><title>packetReader</title>
<polygon fill="none" stroke="black" points="210.994,-59.5 108.994,-59.5 108.994,-16.5 210.994,-16.5 210.994,-59.5"/>
<text text-anchor="middle" x="159.994" y="-34.3" font-family="Times,serif" font-size="14.00">packetReader</text>
</g>
<!-- tunnel&#45;&gt;packetReader -->
<g id="edge1" class="edge"><title>tunnel&#45;&gt;packetReader</title>
<path fill="none" stroke="black" d="M72.3082,-59.4045C80.6729,-57.3391 89.8453,-55.0742 98.995,-52.815"/>
<polygon fill="black" stroke="black" points="100.006,-56.1706 108.875,-50.3754 98.3278,-49.3747 100.006,-56.1706"/>
</g>
<!-- packetWriter -->
<g id="node2" class="node"><title>packetWriter</title>
<polygon fill="none" stroke="black" points="209.994,-120.5 109.994,-120.5 109.994,-77.5 209.994,-77.5 209.994,-120.5"/>
<text text-anchor="middle" x="159.994" y="-95.3" font-family="Times,serif" font-size="14.00">packetWriter</text>
</g>
<!-- packetWriter&#45;&gt;tunnel -->
<g id="edge6" class="edge"><title>packetWriter&#45;&gt;tunnel</title>
<path fill="none" stroke="black" d="M109.927,-86.4805C100.74,-84.1363 91.1818,-81.6976 82.1374,-79.39"/>
<polygon fill="black" stroke="black" points="82.7462,-75.9333 72.1913,-76.8522 81.0156,-82.716 82.7462,-75.9333"/>
</g>
<!-- ReadQueue -->
<g id="node8" class="node"><title>ReadQueue</title>
<ellipse fill="none" stroke="black" cx="300.939" cy="-38" rx="51.9908" ry="18"/>
<text text-anchor="middle" x="300.939" y="-34.3" font-family="Times,serif" font-size="14.00">ReadQueue</text>
</g>
<!-- packetReader&#45;&gt;ReadQueue -->
<g id="edge2" class="edge"><title>packetReader&#45;&gt;ReadQueue</title>
<path fill="none" stroke="black" d="M211.201,-38C220.038,-38 229.327,-38 238.43,-38"/>
<polygon fill="black" stroke="black" points="238.596,-41.5001 248.596,-38 238.596,-34.5001 238.596,-41.5001"/>
</g>
<!-- keepalive -->
<g id="node4" class="node"><title>keepalive</title>
<polygon fill="none" stroke="black" points="485.885,-181.5 405.885,-181.5 405.885,-138.5 485.885,-138.5 485.885,-181.5"/>
<text text-anchor="middle" x="445.885" y="-156.3" font-family="Times,serif" font-size="14.00">keepalive</text>
</g>
<!-- WriteQueue -->
<g id="node5" class="node"><title>WriteQueue</title>
<ellipse fill="none" stroke="black" cx="300.939" cy="-99" rx="53.8905" ry="18"/>
<text text-anchor="middle" x="300.939" y="-95.3" font-family="Times,serif" font-size="14.00">WriteQueue</text>
</g>
<!-- keepalive&#45;&gt;WriteQueue -->
<g id="edge7" class="edge"><title>keepalive&#45;&gt;WriteQueue</title>
<path fill="none" stroke="black" d="M405.824,-143.331C386.786,-135.207 363.855,-125.422 344.386,-117.113"/>
<polygon fill="black" stroke="black" points="345.71,-113.873 335.138,-113.167 342.962,-120.311 345.71,-113.873"/>
</g>
<!-- WriteQueue&#45;&gt;packetWriter -->
<g id="edge5" class="edge"><title>WriteQueue&#45;&gt;packetWriter</title>
<path fill="none" stroke="black" d="M246.617,-99C238.036,-99 229.107,-99 220.394,-99"/>
<polygon fill="black" stroke="black" points="220.299,-95.5001 210.299,-99 220.299,-102.5 220.299,-95.5001"/>
</g>
<!-- tunnel2Stream -->
<g id="node6" class="node"><title>tunnel2Stream</title>
<polygon fill="none" stroke="black" points="499.885,-59.5 391.885,-59.5 391.885,-16.5 499.885,-16.5 499.885,-59.5"/>
<text text-anchor="middle" x="445.885" y="-34.3" font-family="Times,serif" font-size="14.00">tunnel2Stream</text>
</g>
<!-- host -->
<g id="node9" class="node"><title>host</title>
<polygon fill="none" stroke="black" points="590.885,-86 540.885,-86 536.885,-82 536.885,-50 586.885,-50 590.885,-54 590.885,-86"/>
<polyline fill="none" stroke="black" points="586.885,-82 536.885,-82 "/>
<polyline fill="none" stroke="black" points="586.885,-82 586.885,-50 "/>
<polyline fill="none" stroke="black" points="586.885,-82 590.885,-86 "/>
<text text-anchor="middle" x="563.885" y="-64.3" font-family="Times,serif" font-size="14.00">host</text>
</g>
<!-- tunnel2Stream&#45;&gt;host -->
<g id="edge8" class="edge"><title>tunnel2Stream&#45;&gt;host</title>
<path fill="none" stroke="black" d="M499.891,-51.7085C509.119,-54.095 518.516,-56.5254 527.14,-58.7558"/>
<polygon fill="black" stroke="black" points="526.294,-62.152 536.852,-61.2674 528.047,-55.375 526.294,-62.152"/>
</g>
<!-- stream2Tunnel -->
<g id="node7" class="node"><title>stream2Tunnel</title>
<polygon fill="none" stroke="black" points="500.885,-120.5 390.885,-120.5 390.885,-77.5 500.885,-77.5 500.885,-120.5"/>
<text text-anchor="middle" x="445.885" y="-95.3" font-family="Times,serif" font-size="14.00">stream2Tunnel</text>
</g>
<!-- stream2Tunnel&#45;&gt;WriteQueue -->
<g id="edge4" class="edge"><title>stream2Tunnel&#45;&gt;WriteQueue</title>
<path fill="none" stroke="black" d="M390.843,-99C382.524,-99 373.87,-99 365.37,-99"/>
<polygon fill="black" stroke="black" points="365.11,-95.5001 355.11,-99 365.11,-102.5 365.11,-95.5001"/>
</g>
<!-- ReadQueue&#45;&gt;tunnel2Stream -->
<g id="edge3" class="edge"><title>ReadQueue&#45;&gt;tunnel2Stream</title>
<path fill="none" stroke="black" d="M353.312,-38C362.461,-38 372.089,-38 381.525,-38"/>
<polygon fill="black" stroke="black" points="381.657,-41.5001 391.657,-38 381.657,-34.5001 381.657,-41.5001"/>
</g>
<!-- host&#45;&gt;stream2Tunnel -->
<g id="edge9" class="edge"><title>host&#45;&gt;stream2Tunnel</title>
<path fill="none" stroke="black" d="M536.852,-74.957C529.101,-77.0283 520.243,-79.3956 511.177,-81.8184"/>
<polygon fill="black" stroke="black" points="510.058,-78.4945 501.301,-84.4577 511.866,-85.2571 510.058,-78.4945"/>
</g>
</g>
</svg>
