<?xml version="1.0" encoding="UTF-8" standalone="yes"?><svg xmlns="http://www.w3.org/2000/svg" xmlns:xlink="http://www.w3.org/1999/xlink" height="542px" style="width:505px;height:542px;" version="1.1" viewBox="0 0 505 542" width="505px"><defs><filter height="300%" id="f1" width="300%" x="-1" y="-1"><feGaussianBlur result="blurOut" stdDeviation="2.0"/><feColorMatrix in="blurOut" result="blurOut2" type="matrix" values="0 0 0 0 0 0 0 0 0 0 0 0 0 0 0 0 0 0 .4 0"/><feOffset dx="4.0" dy="4.0" in="blurOut2" result="blurOut3"/><feBlend in="SourceGraphic" in2="blurOut3" mode="normal"/></filter></defs><g><rect fill="#FFFFFF" filter="url(#f1)" height="511" style="stroke: #000000; stroke-width: 2.0;" width="226" x="22" y="24"/><path d="M110,25 L110,34.7799 L100,44.7799 L22,44.7799 " fill="#FFFFFF" style="stroke: #000000; stroke-width: 2.0;"/><text fill="#000000" font-family="sans-serif" font-size="14" font-weight="bold" lengthAdjust="spacingAndGlyphs" textLength="78" x="25" y="38.9999">tunnelの例</text><rect fill="#FFFFFF" filter="url(#f1)" height="209" style="stroke: #000000; stroke-width: 2.0;" width="178" x="46" y="69"/><text fill="#000000" font-family="sans-serif" font-size="14" font-weight="bold" lengthAdjust="spacingAndGlyphs" textLength="72" x="99" y="84.9999">network_1</text><rect fill="#FFFFFF" filter="url(#f1)" height="209" style="stroke: #000000; stroke-width: 2.0;" width="178" x="46" y="302"/><text fill="#000000" font-family="sans-serif" font-size="14" font-weight="bold" lengthAdjust="spacingAndGlyphs" textLength="72" x="99" y="317.9999">network_2</text><rect fill="#FFFFFF" filter="url(#f1)" height="511" style="stroke: #000000; stroke-width: 2.0;" width="226" x="272" y="24"/><path d="M424,25 L424,34.7799 L414,44.7799 L272,44.7799 " fill="#FFFFFF" style="stroke: #000000; stroke-width: 2.0;"/><text fill="#000000" font-family="sans-serif" font-size="14" font-weight="bold" lengthAdjust="spacingAndGlyphs" textLength="142" x="275" y="38.9999">reverse_tunnelの例</text><rect fill="#FFFFFF" filter="url(#f1)" height="209" style="stroke: #000000; stroke-width: 2.0;" width="178" x="296" y="69"/><text fill="#000000" font-family="sans-serif" font-size="14" font-weight="bold" lengthAdjust="spacingAndGlyphs" textLength="72" x="349" y="84.9999">network_A</text><rect fill="#FFFFFF" filter="url(#f1)" height="209" style="stroke: #000000; stroke-width: 2.0;" width="178" x="296" y="302"/><text fill="#000000" font-family="sans-serif" font-size="14" font-weight="bold" lengthAdjust="spacingAndGlyphs" textLength="72" x="349" y="317.9999">network_B</text><polygon fill="#FEFECE" filter="url(#f1)" points="73,116,83,106,197,106,197,143.7799,187,153.7799,73,153.7799,73,116" style="stroke: #000000; stroke-width: 1.5;"/><line style="stroke: #000000; stroke-width: 1.5;" x1="187" x2="196" y1="116" y2="107"/><line style="stroke: #000000; stroke-width: 1.5;" x1="73" x2="187" y1="116" y2="116"/><line style="stroke: #000000; stroke-width: 1.5;" x1="187" x2="187" y1="116" y2="153.7799"/><text fill="#000000" font-family="sans-serif" font-size="14" lengthAdjust="spacingAndGlyphs" textLength="84" x="88" y="139.9999">tcp_client_A</text><polygon fill="#FEFECE" filter="url(#f1)" points="62.75,224,72.75,214,207.75,214,207.75,251.7799,197.75,261.7799,62.75,261.7799,62.75,224" style="stroke: #000000; stroke-width: 1.5;"/><line style="stroke: #000000; stroke-width: 1.5;" x1="197.75" x2="206.75" y1="224" y2="215"/><line style="stroke: #000000; stroke-width: 1.5;" x1="62.75" x2="197.75" y1="224" y2="224"/><line style="stroke: #000000; stroke-width: 1.5;" x1="197.75" x2="197.75" y1="224" y2="261.7799"/><text fill="#000000" font-family="sans-serif" font-size="14" lengthAdjust="spacingAndGlyphs" textLength="105" x="77.75" y="247.9999">tunnel_client_1</text><polygon fill="#FEFECE" filter="url(#f1)" points="62.75,349,72.75,339,207.75,339,207.75,376.7799,197.75,386.7799,62.75,386.7799,62.75,349" style="stroke: #000000; stroke-width: 1.5;"/><line style="stroke: #000000; stroke-width: 1.5;" x1="197.75" x2="206.75" y1="349" y2="340"/><line style="stroke: #000000; stroke-width: 1.5;" x1="62.75" x2="197.75" y1="349" y2="349"/><line style="stroke: #000000; stroke-width: 1.5;" x1="197.75" x2="197.75" y1="349" y2="386.7799"/><text fill="#000000" font-family="sans-serif" font-size="14" lengthAdjust="spacingAndGlyphs" textLength="105" x="77.75" y="372.9999">tunnel_server_1</text><polygon fill="#FEFECE" filter="url(#f1)" points="73,457,83,447,197,447,197,484.7799,187,494.7799,73,494.7799,73,457" style="stroke: #000000; stroke-width: 1.5;"/><line style="stroke: #000000; stroke-width: 1.5;" x1="187" x2="196" y1="457" y2="448"/><line style="stroke: #000000; stroke-width: 1.5;" x1="73" x2="187" y1="457" y2="457"/><line style="stroke: #000000; stroke-width: 1.5;" x1="187" x2="187" y1="457" y2="494.7799"/><text fill="#000000" font-family="sans-serif" font-size="14" lengthAdjust="spacingAndGlyphs" textLength="84" x="88" y="480.9999">tcp_server_B</text><polygon fill="#FEFECE" filter="url(#f1)" points="323,116,333,106,447,106,447,143.7799,437,153.7799,323,153.7799,323,116" style="stroke: #000000; stroke-width: 1.5;"/><line style="stroke: #000000; stroke-width: 1.5;" x1="437" x2="446" y1="116" y2="107"/><line style="stroke: #000000; stroke-width: 1.5;" x1="323" x2="437" y1="116" y2="116"/><line style="stroke: #000000; stroke-width: 1.5;" x1="437" x2="437" y1="116" y2="153.7799"/><text fill="#000000" font-family="sans-serif" font-size="14" lengthAdjust="spacingAndGlyphs" textLength="84" x="338" y="139.9999">tcp_server_C</text><polygon fill="#FEFECE" filter="url(#f1)" points="312.75,224,322.75,214,457.75,214,457.75,251.7799,447.75,261.7799,312.75,261.7799,312.75,224" style="stroke: #000000; stroke-width: 1.5;"/><line style="stroke: #000000; stroke-width: 1.5;" x1="447.75" x2="456.75" y1="224" y2="215"/><line style="stroke: #000000; stroke-width: 1.5;" x1="312.75" x2="447.75" y1="224" y2="224"/><line style="stroke: #000000; stroke-width: 1.5;" x1="447.75" x2="447.75" y1="224" y2="261.7799"/><text fill="#000000" font-family="sans-serif" font-size="14" lengthAdjust="spacingAndGlyphs" textLength="105" x="327.75" y="247.9999">tunnel_client_2</text><polygon fill="#FEFECE" filter="url(#f1)" points="312.75,349,322.75,339,457.75,339,457.75,376.7799,447.75,386.7799,312.75,386.7799,312.75,349" style="stroke: #000000; stroke-width: 1.5;"/><line style="stroke: #000000; stroke-width: 1.5;" x1="447.75" x2="456.75" y1="349" y2="340"/><line style="stroke: #000000; stroke-width: 1.5;" x1="312.75" x2="447.75" y1="349" y2="349"/><line style="stroke: #000000; stroke-width: 1.5;" x1="447.75" x2="447.75" y1="349" y2="386.7799"/><text fill="#000000" font-family="sans-serif" font-size="14" lengthAdjust="spacingAndGlyphs" textLength="105" x="327.75" y="372.9999">tunnel_server_2</text><polygon fill="#FEFECE" filter="url(#f1)" points="323,457,333,447,447,447,447,484.7799,437,494.7799,323,494.7799,323,457" style="stroke: #000000; stroke-width: 1.5;"/><line style="stroke: #000000; stroke-width: 1.5;" x1="437" x2="446" y1="457" y2="448"/><line style="stroke: #000000; stroke-width: 1.5;" x1="323" x2="437" y1="457" y2="457"/><line style="stroke: #000000; stroke-width: 1.5;" x1="437" x2="437" y1="457" y2="494.7799"/><text fill="#000000" font-family="sans-serif" font-size="14" lengthAdjust="spacingAndGlyphs" textLength="84" x="338" y="480.9999">tcp_client_D</text><path d="M135,154 C135,170.003 135,191.446 135,208.528 " fill="none" style="stroke: #A80036; stroke-width: 1.0;"/><polygon fill="#A80036" points="135,213.678,139,204.678,135,208.678,131,204.678,135,213.678" style="stroke: #A80036; stroke-width: 1.0;"/><path d="M135,262.135 C135,282.494 135,312.191 135,333.908 " fill="none" style="stroke: #A80036; stroke-width: 1.0;"/><polygon fill="#A80036" points="135,338.968,139,329.968,135,333.968,131,329.968,135,338.968" style="stroke: #A80036; stroke-width: 1.0;"/><path d="M135,387 C135,403.003 135,424.446 135,441.528 " fill="none" style="stroke: #A80036; stroke-width: 1.0;"/><polygon fill="#A80036" points="135,446.678,139,437.678,135,441.678,131,437.678,135,446.678" style="stroke: #A80036; stroke-width: 1.0;"/><path d="M385,159.131 C385,176.154 385,197.604 385,213.678 " fill="none" style="stroke: #A80036; stroke-width: 1.0;"/><polygon fill="#A80036" points="385,154,381,163,385,159,389,163,385,154" style="stroke: #A80036; stroke-width: 1.0;"/><path d="M385,262.135 C385,282.494 385,312.191 385,333.908 " fill="none" style="stroke: #A80036; stroke-width: 1.0;"/><polygon fill="#A80036" points="385,338.968,389,329.968,385,333.968,381,329.968,385,338.968" style="stroke: #A80036; stroke-width: 1.0;"/><path d="M385,392.131 C385,409.154 385,430.604 385,446.678 " fill="none" style="stroke: #A80036; stroke-width: 1.0;"/><polygon fill="#A80036" points="385,387,381,396,385,392,389,396,385,387" style="stroke: #A80036; stroke-width: 1.0;"/></g></svg>