<?xml version="1.0" encoding="UTF-8" standalone="no"?>
<!DOCTYPE svg PUBLIC "-//W3C//DTD SVG 1.1//EN"
 "http://www.w3.org/Graphics/SVG/1.1/DTD/svg11.dtd">
<!-- Generated by graphviz version 2.30.1 (20180420.1509)
 -->
<!-- Title: G Pages: 1 -->
<svg width="570pt" height="206pt"
 viewBox="0.00 0.00 570.00 206.00" xmlns="http://www.w3.org/2000/svg" xmlns:xlink="http://www.w3.org/1999/xlink">
<g id="graph0" class="graph" transform="scale(1 1) rotate(0) translate(4 202)">
<title>G</title>
<polygon fill="white" stroke="white" points="-4,5 -4,-202 567,-202 567,5 -4,5"/>
<g id="clust1" class="cluster"><title>clusterA</title>
<polygon fill="none" stroke="black" points="102,-8 102,-190 480,-190 480,-8 102,-8"/>
</g>
<!-- tunnel -->
<g id="node1" class="node"><title>tunnel</title>
<ellipse fill="none" stroke="black" cx="37" cy="-68" rx="32.4945" ry="32.4945"/>
<ellipse fill="none" stroke="black" cx="37" cy="-68" rx="36.4942" ry="36.4942"/>
<text text-anchor="middle" x="37" y="-64.3" font-family="Times,serif" font-size="14.00">tunnel</text>
</g>
<!-- packetReader -->
<g id="node3" class="node"><title>packetReader</title>
<polygon fill="none" stroke="black" points="212,-59.5 110,-59.5 110,-16.5 212,-16.5 212,-59.5"/>
<text text-anchor="middle" x="161" y="-34.3" font-family="Times,serif" font-size="14.00">packetReader</text>
</g>
<!-- tunnel&#45;&gt;packetReader -->
<g id="edge1" class="edge"><title>tunnel&#45;&gt;packetReader</title>
<path fill="none" stroke="black" d="M72.5907,-59.4941C81.1454,-57.3905 90.559,-55.0757 99.9427,-52.7682"/>
<polygon fill="black" stroke="black" points="100.799,-56.1621 109.674,-50.3754 99.1271,-49.3646 100.799,-56.1621"/>
</g>
<!-- packetWriter -->
<g id="node2" class="node"><title>packetWriter</title>
<polygon fill="none" stroke="black" points="211,-120.5 111,-120.5 111,-77.5 211,-77.5 211,-120.5"/>
<text text-anchor="middle" x="161" y="-95.3" font-family="Times,serif" font-size="14.00">packetWriter</text>
</g>
<!-- packetWriter&#45;&gt;tunnel -->
<g id="edge3" class="edge"><title>packetWriter&#45;&gt;tunnel</title>
<path fill="none" stroke="black" d="M110.73,-86.4805C101.308,-84.0864 91.4982,-81.5938 82.246,-79.2428"/>
<polygon fill="black" stroke="black" points="83.0238,-75.8293 72.4698,-76.7587 81.2999,-82.6137 83.0238,-75.8293"/>
</g>
<!-- CITI1 -->
<g id="node6" class="node"><title>CITI1</title>
<polygon fill="none" stroke="black" points="463,-120.5 401,-120.5 401,-116.5 397,-116.5 397,-112.5 401,-112.5 401,-85.5 397,-85.5 397,-81.5 401,-81.5 401,-77.5 463,-77.5 463,-120.5"/>
<polyline fill="none" stroke="black" points="401,-116.5 405,-116.5 405,-112.5 401,-112.5 "/>
<polyline fill="none" stroke="black" points="401,-85.5 405,-85.5 405,-81.5 401,-81.5 "/>
<text text-anchor="middle" x="432" y="-95.3" font-family="Times,serif" font-size="14.00">CITI1</text>
</g>
<!-- packetReader&#45;&gt;CITI1 -->
<g id="edge5" class="edge"><title>packetReader&#45;&gt;CITI1</title>
<path fill="none" stroke="black" d="M212.354,-44.3991C251.82,-49.995 307.914,-59.2325 356,-72 367.586,-75.0764 379.919,-79.1623 391.167,-83.2223"/>
<polygon fill="black" stroke="black" points="390.132,-86.5713 400.725,-86.7575 392.56,-80.0059 390.132,-86.5713"/>
</g>
<!-- CITI2 -->
<g id="node7" class="node"><title>CITI2</title>
<polygon fill="none" stroke="black" points="463,-59.5 401,-59.5 401,-55.5 397,-55.5 397,-51.5 401,-51.5 401,-24.5 397,-24.5 397,-20.5 401,-20.5 401,-16.5 463,-16.5 463,-59.5"/>
<polyline fill="none" stroke="black" points="401,-55.5 405,-55.5 405,-51.5 401,-51.5 "/>
<polyline fill="none" stroke="black" points="401,-24.5 405,-24.5 405,-20.5 401,-20.5 "/>
<text text-anchor="middle" x="432" y="-34.3" font-family="Times,serif" font-size="14.00">CITI2</text>
</g>
<!-- packetReader&#45;&gt;CITI2 -->
<g id="edge9" class="edge"><title>packetReader&#45;&gt;CITI2</title>
<path fill="none" stroke="black" d="M212.449,-38C264.035,-38 343.147,-38 390.703,-38"/>
<polygon fill="black" stroke="black" points="390.925,-41.5001 400.925,-38 390.925,-34.5001 390.925,-41.5001"/>
</g>
<!-- keepalive -->
<g id="node4" class="node"><title>keepalive</title>
<polygon fill="none" stroke="black" points="472,-181.5 392,-181.5 392,-138.5 472,-138.5 472,-181.5"/>
<text text-anchor="middle" x="432" y="-156.3" font-family="Times,serif" font-size="14.00">keepalive</text>
</g>
<!-- WriteQueue -->
<g id="node5" class="node"><title>WriteQueue</title>
<ellipse fill="none" stroke="black" cx="302" cy="-99" rx="53.8905" ry="18"/>
<text text-anchor="middle" x="302" y="-95.3" font-family="Times,serif" font-size="14.00">WriteQueue</text>
</g>
<!-- keepalive&#45;&gt;WriteQueue -->
<g id="edge4" class="edge"><title>keepalive&#45;&gt;WriteQueue</title>
<path fill="none" stroke="black" d="M391.9,-141.367C376.436,-133.997 358.673,-125.532 343.111,-118.115"/>
<polygon fill="black" stroke="black" points="344.279,-114.795 333.746,-113.652 341.267,-121.114 344.279,-114.795"/>
</g>
<!-- WriteQueue&#45;&gt;packetWriter -->
<g id="edge2" class="edge"><title>WriteQueue&#45;&gt;packetWriter</title>
<path fill="none" stroke="black" d="M248.054,-99C239.341,-99 230.26,-99 221.402,-99"/>
<polygon fill="black" stroke="black" points="221.142,-95.5001 211.142,-99 221.142,-102.5 221.142,-95.5001"/>
</g>
<!-- host1 -->
<g id="node8" class="node"><title>host1</title>
<polygon fill="none" stroke="black" points="562,-117 512,-117 508,-113 508,-81 558,-81 562,-85 562,-117"/>
<polyline fill="none" stroke="black" points="558,-113 508,-113 "/>
<polyline fill="none" stroke="black" points="558,-113 558,-81 "/>
<polyline fill="none" stroke="black" points="558,-113 562,-117 "/>
<text text-anchor="middle" x="535" y="-95.3" font-family="Times,serif" font-size="14.00">host1</text>
</g>
<!-- CITI1&#45;&gt;host1 -->
<g id="edge6" class="edge"><title>CITI1&#45;&gt;host1</title>
<path fill="none" stroke="black" d="M463.22,-92.7591C474.133,-92.1814 486.562,-92.0954 497.926,-92.501"/>
<polygon fill="black" stroke="black" points="497.825,-96.0003 507.99,-93.0118 498.18,-89.0093 497.825,-96.0003"/>
</g>
<!-- CITI1&#45;&gt;WriteQueue -->
<g id="edge7" class="edge"><title>CITI1&#45;&gt;WriteQueue</title>
<path fill="none" stroke="black" d="M400.99,-99C390.541,-99 378.389,-99 366.272,-99"/>
<polygon fill="black" stroke="black" points="366.14,-95.5001 356.14,-99 366.14,-102.5 366.14,-95.5001"/>
</g>
<!-- host2 -->
<g id="node9" class="node"><title>host2</title>
<polygon fill="none" stroke="black" points="562,-56 512,-56 508,-52 508,-20 558,-20 562,-24 562,-56"/>
<polyline fill="none" stroke="black" points="558,-52 508,-52 "/>
<polyline fill="none" stroke="black" points="558,-52 558,-20 "/>
<polyline fill="none" stroke="black" points="558,-52 562,-56 "/>
<text text-anchor="middle" x="535" y="-34.3" font-family="Times,serif" font-size="14.00">host2</text>
</g>
<!-- CITI2&#45;&gt;host2 -->
<g id="edge10" class="edge"><title>CITI2&#45;&gt;host2</title>
<path fill="none" stroke="black" d="M463.22,-31.7591C474.133,-31.1814 486.562,-31.0954 497.926,-31.501"/>
<polygon fill="black" stroke="black" points="497.825,-35.0003 507.99,-32.0118 498.18,-28.0093 497.825,-35.0003"/>
</g>
<!-- CITI2&#45;&gt;WriteQueue -->
<g id="edge11" class="edge"><title>CITI2&#45;&gt;WriteQueue</title>
<path fill="none" stroke="black" d="M400.99,-52.3018C383.669,-60.556 361.67,-71.0399 342.907,-79.982"/>
<polygon fill="black" stroke="black" points="341.233,-76.9024 333.711,-84.3641 344.244,-83.2216 341.233,-76.9024"/>
</g>
<!-- host1&#45;&gt;CITI1 -->
<g id="edge8" class="edge"><title>host1&#45;&gt;CITI1</title>
<path fill="none" stroke="black" d="M507.99,-104.988C497.412,-105.702 484.942,-105.914 473.239,-105.625"/>
<polygon fill="black" stroke="black" points="473.347,-102.126 463.22,-105.241 473.079,-109.121 473.347,-102.126"/>
</g>
<!-- host2&#45;&gt;CITI2 -->
<g id="edge12" class="edge"><title>host2&#45;&gt;CITI2</title>
<path fill="none" stroke="black" d="M507.99,-43.9882C497.412,-44.7021 484.942,-44.9142 473.239,-44.6246"/>
<polygon fill="black" stroke="black" points="473.347,-41.1262 463.22,-44.2409 473.079,-48.1211 473.347,-41.1262"/>
</g>
</g>
</svg>
