<?xml version="1.0" encoding="UTF-8" standalone="no"?>
<!DOCTYPE svg PUBLIC "-//W3C//DTD SVG 1.1//EN"
 "http://www.w3.org/Graphics/SVG/1.1/DTD/svg11.dtd">
<!-- Generated by graphviz version 2.30.1 (20180420.1509)
 -->
<!-- Title: G Pages: 1 -->
<svg width="818pt" height="347pt"
 viewBox="0.00 0.00 818.00 347.00" xmlns="http://www.w3.org/2000/svg" xmlns:xlink="http://www.w3.org/1999/xlink">
<g id="graph0" class="graph" transform="scale(1 1) rotate(0) translate(4 343)">
<title>G</title>
<polygon fill="white" stroke="white" points="-4,5 -4,-343 815,-343 815,5 -4,5"/>
<g id="clust1" class="cluster"><title>clusterA</title>
<path fill="none" stroke="black" d="M20,-60C20,-60 316,-60 316,-60 322,-60 328,-66 328,-72 328,-72 328,-169 328,-169 328,-175 322,-181 316,-181 316,-181 20,-181 20,-181 14,-181 8,-175 8,-169 8,-169 8,-72 8,-72 8,-66 14,-60 20,-60"/>
<text text-anchor="middle" x="168" y="-165.8" font-family="Times,serif" font-size="14.00">thread</text>
</g>
<g id="clust2" class="cluster"><title>clusterB</title>
<path fill="none" stroke="black" d="M360,-68C360,-68 558,-68 558,-68 564,-68 570,-74 570,-80 570,-80 570,-161 570,-161 570,-167 564,-173 558,-173 558,-173 360,-173 360,-173 354,-173 348,-167 348,-161 348,-161 348,-80 348,-80 348,-74 354,-68 360,-68"/>
<text text-anchor="middle" x="459" y="-157.8" font-family="Times,serif" font-size="14.00">thread</text>
</g>
<g id="clust3" class="cluster"><title>clusterC</title>
<path fill="none" stroke="black" d="M602,-121C602,-121 790,-121 790,-121 796,-121 802,-127 802,-133 802,-133 802,-319 802,-319 802,-325 796,-331 790,-331 790,-331 602,-331 602,-331 596,-331 590,-325 590,-319 590,-319 590,-133 590,-133 590,-127 596,-121 602,-121"/>
<text text-anchor="middle" x="696" y="-315.8" font-family="Times,serif" font-size="14.00">thread</text>
</g>
<g id="clust4" class="cluster"><title>clusterD</title>
<path fill="none" stroke="black" d="M604,-8C604,-8 781,-8 781,-8 787,-8 793,-14 793,-20 793,-20 793,-101 793,-101 793,-107 787,-113 781,-113 781,-113 604,-113 604,-113 598,-113 592,-107 592,-101 592,-101 592,-20 592,-20 592,-14 598,-8 604,-8"/>
<text text-anchor="middle" x="692.5" y="-97.8" font-family="Times,serif" font-size="14.00">thread</text>
</g>
<!-- .lns -->
<g id="node1" class="node"><title>.lns</title>
<ellipse fill="none" stroke="black" cx="50" cy="-109" rx="33.8824" ry="33.8824"/>
<text text-anchor="middle" x="50" y="-105.3" font-family="Times,serif" font-size="14.00">.lns</text>
</g>
<!-- parse -->
<g id="node2" class="node"><title>parse</title>
<polygon fill="#44cc44" stroke="black" points="177.5,-130.5 120.5,-130.5 120.5,-87.5 177.5,-87.5 177.5,-130.5"/>
<text text-anchor="middle" x="149" y="-105.3" font-family="Times,serif" font-size="14.00">parse</text>
</g>
<!-- .lns&#45;&gt;parse -->
<g id="edge1" class="edge"><title>.lns&#45;&gt;parse</title>
<path fill="none" stroke="black" d="M84.1106,-109C92.4605,-109 101.489,-109 110.056,-109"/>
<polygon fill="black" stroke="black" points="110.201,-112.5 120.201,-109 110.201,-105.5 110.201,-112.5"/>
</g>
<!-- token -->
<g id="node3" class="node"><title>token</title>
<polygon fill="none" stroke="black" points="312.29,-95.3976 312.29,-122.602 285.76,-141.839 248.24,-141.839 221.71,-122.602 221.71,-95.3976 248.24,-76.1608 285.76,-76.1608 312.29,-95.3976"/>
<polygon fill="none" stroke="black" points="316.302,-93.3676 316.302,-124.632 287.067,-145.83 246.933,-145.83 217.698,-124.632 217.698,-93.3676 246.933,-72.1696 287.067,-72.1696 316.302,-93.3676"/>
<polygon fill="none" stroke="black" points="320.314,-91.3377 320.314,-126.662 288.373,-149.822 245.627,-149.822 213.686,-126.662 213.686,-91.3377 245.627,-68.1783 288.373,-68.1783 320.314,-91.3377"/>
<text text-anchor="middle" x="267" y="-105.3" font-family="Times,serif" font-size="14.00">token</text>
</g>
<!-- parse&#45;&gt;token -->
<g id="edge2" class="edge"><title>parse&#45;&gt;token</title>
<path fill="none" stroke="black" d="M177.785,-109C185.577,-109 194.378,-109 203.328,-109"/>
<polygon fill="black" stroke="black" points="203.452,-112.5 213.452,-109 203.452,-105.5 203.452,-112.5"/>
</g>
<!-- create_Ast -->
<g id="node4" class="node"><title>create_Ast</title>
<polygon fill="#44cc44" stroke="black" points="442,-130.5 356,-130.5 356,-87.5 442,-87.5 442,-130.5"/>
<text text-anchor="middle" x="399" y="-105.3" font-family="Times,serif" font-size="14.00">create_Ast</text>
</g>
<!-- token&#45;&gt;create_Ast -->
<g id="edge3" class="edge"><title>token&#45;&gt;create_Ast</title>
<path fill="none" stroke="black" d="M320.501,-109C328.726,-109 337.229,-109 345.455,-109"/>
<polygon fill="black" stroke="black" points="345.685,-112.5 355.685,-109 345.685,-105.5 345.685,-112.5"/>
</g>
<!-- AST -->
<g id="node5" class="node"><title>AST</title>
<polygon fill="none" stroke="black" points="561.16,-95.4048 561.16,-122.595 537.049,-141.822 502.951,-141.822 478.84,-122.595 478.84,-95.4048 502.951,-76.1782 537.049,-76.1782 561.16,-95.4048"/>
<text text-anchor="middle" x="520" y="-105.3" font-family="Times,serif" font-size="14.00">AST</text>
</g>
<!-- create_Ast&#45;&gt;AST -->
<g id="edge4" class="edge"><title>create_Ast&#45;&gt;AST</title>
<path fill="none" stroke="black" d="M442.29,-109C450.837,-109 459.902,-109 468.693,-109"/>
<polygon fill="black" stroke="black" points="468.839,-112.5 478.839,-109 468.839,-105.5 468.839,-112.5"/>
</g>
<!-- convLua -->
<g id="node6" class="node"><title>convLua</title>
<polygon fill="#44cc44" stroke="black" points="674,-185.5 598,-185.5 598,-142.5 674,-142.5 674,-185.5"/>
<text text-anchor="middle" x="636" y="-160.3" font-family="Times,serif" font-size="14.00">convLua</text>
</g>
<!-- AST&#45;&gt;convLua -->
<g id="edge5" class="edge"><title>AST&#45;&gt;convLua</title>
<path fill="none" stroke="black" d="M556.758,-126.251C566.858,-131.125 577.998,-136.499 588.626,-141.627"/>
<polygon fill="black" stroke="black" points="587.268,-144.857 597.795,-146.05 590.31,-138.553 587.268,-144.857"/>
</g>
<!-- convGo -->
<g id="node9" class="node"><title>convGo</title>
<polygon fill="#44cc44" stroke="black" points="671.5,-74.5 600.5,-74.5 600.5,-31.5 671.5,-31.5 671.5,-74.5"/>
<text text-anchor="middle" x="636" y="-49.3" font-family="Times,serif" font-size="14.00">convGo</text>
</g>
<!-- AST&#45;&gt;convGo -->
<g id="edge8" class="edge"><title>AST&#45;&gt;convGo</title>
<path fill="none" stroke="black" d="M556.445,-91.5882C567.482,-86.1666 579.784,-80.1239 591.315,-74.4594"/>
<polygon fill="black" stroke="black" points="592.926,-77.5674 600.359,-70.0168 589.84,-71.2845 592.926,-77.5674"/>
</g>
<!-- .lua -->
<g id="node7" class="node"><title>.lua</title>
<ellipse fill="none" stroke="black" cx="752" cy="-164" rx="34.7971" ry="34.7971"/>
<text text-anchor="middle" x="752" y="-160.3" font-family="Times,serif" font-size="14.00">.lua</text>
</g>
<!-- convLua&#45;&gt;.lua -->
<g id="edge6" class="edge"><title>convLua&#45;&gt;.lua</title>
<path fill="none" stroke="black" d="M674.013,-164C684.556,-164 696.144,-164 707.057,-164"/>
<polygon fill="black" stroke="black" points="707.258,-167.5 717.258,-164 707.258,-160.5 707.258,-167.5"/>
</g>
<!-- .meta -->
<g id="node8" class="node"><title>.meta</title>
<ellipse fill="none" stroke="black" cx="752" cy="-258" rx="41.9398" ry="41.9398"/>
<text text-anchor="middle" x="752" y="-254.3" font-family="Times,serif" font-size="14.00">.meta</text>
</g>
<!-- convLua&#45;&gt;.meta -->
<g id="edge7" class="edge"><title>convLua&#45;&gt;.meta</title>
<path fill="none" stroke="black" d="M662.868,-185.33C677.078,-197.046 695.01,-211.833 710.984,-225.004"/>
<polygon fill="black" stroke="black" points="709.187,-228.059 719.129,-231.72 713.64,-222.658 709.187,-228.059"/>
</g>
<!-- .go -->
<g id="node10" class="node"><title>.go</title>
<ellipse fill="none" stroke="black" cx="752" cy="-49" rx="32.5538" ry="32.5538"/>
<text text-anchor="middle" x="752" y="-45.3" font-family="Times,serif" font-size="14.00">.go</text>
</g>
<!-- convGo&#45;&gt;.go -->
<g id="edge9" class="edge"><title>convGo&#45;&gt;.go</title>
<path fill="none" stroke="black" d="M671.513,-51.789C683.391,-51.3722 696.821,-50.901 709.215,-50.4662"/>
<polygon fill="black" stroke="black" points="709.454,-53.96 719.325,-50.1114 709.208,-46.9643 709.454,-53.96"/>
</g>
</g>
</svg>
