<?xml version="1.0" encoding="UTF-8" standalone="no"?>
<!DOCTYPE svg PUBLIC "-//W3C//DTD SVG 1.1//EN"
 "http://www.w3.org/Graphics/SVG/1.1/DTD/svg11.dtd">
<!-- Generated by graphviz version 2.43.0 (0)
 -->
<!-- Title: G Pages: 1 -->
<svg width="1083pt" height="206pt"
 viewBox="0.00 0.00 1083.22 206.00" xmlns="http://www.w3.org/2000/svg" xmlns:xlink="http://www.w3.org/1999/xlink">
<g id="graph0" class="graph" transform="scale(1 1) rotate(0) translate(4 202)">
<title>G</title>
<polygon fill="white" stroke="transparent" points="-4,4 -4,-202 1079.22,-202 1079.22,4 -4,4"/>
<!-- root -->
<g id="node1" class="node">
<title>root</title>
<ellipse fill="none" stroke="black" cx="29.9" cy="-99" rx="29.8" ry="18"/>
<text text-anchor="middle" x="29.9" y="-95.3" font-family="Times,serif" font-size="14.00">root</text>
</g>
<!-- DeclFunc -->
<g id="node2" class="node">
<title>DeclFunc</title>
<ellipse fill="none" stroke="black" cx="169.89" cy="-126" rx="74.19" ry="18"/>
<text text-anchor="middle" x="169.89" y="-122.3" font-family="Times,serif" font-size="14.00">DeclFunc:add</text>
</g>
<!-- root&#45;&gt;DeclFunc -->
<g id="edge1" class="edge">
<title>root&#45;&gt;DeclFunc</title>
<path fill="none" stroke="black" d="M58.49,-104.4C71.01,-106.85 86.41,-109.86 101.69,-112.85"/>
<polygon fill="black" stroke="black" points="101.2,-116.32 111.69,-114.81 102.54,-109.45 101.2,-116.32"/>
</g>
<!-- StmtExp -->
<g id="node10" class="node">
<title>StmtExp</title>
<ellipse fill="none" stroke="black" cx="169.89" cy="-72" rx="51.99" ry="18"/>
<text text-anchor="middle" x="169.89" y="-68.3" font-family="Times,serif" font-size="14.00">StmtExp</text>
</g>
<!-- root&#45;&gt;StmtExp -->
<g id="edge9" class="edge">
<title>root&#45;&gt;StmtExp</title>
<path fill="none" stroke="black" d="M58.49,-93.6C74.5,-90.47 95.22,-86.41 114.39,-82.66"/>
<polygon fill="black" stroke="black" points="115.09,-86.09 124.23,-80.74 113.75,-79.22 115.09,-86.09"/>
</g>
<!-- DeclArg -->
<g id="node3" class="node">
<title>DeclArg</title>
<ellipse fill="none" stroke="black" cx="344.33" cy="-180" rx="64.19" ry="18"/>
<text text-anchor="middle" x="344.33" y="-176.3" font-family="Times,serif" font-size="14.00">DeclArg:val</text>
</g>
<!-- DeclFunc&#45;&gt;DeclArg -->
<g id="edge2" class="edge">
<title>DeclFunc&#45;&gt;DeclArg</title>
<path fill="none" stroke="black" d="M216.19,-140.19C239.17,-147.38 267.2,-156.16 291.08,-163.64"/>
<polygon fill="black" stroke="black" points="290.1,-167 300.69,-166.65 292.2,-160.32 290.1,-167"/>
</g>
<!-- Block -->
<g id="node4" class="node">
<title>Block</title>
<ellipse fill="none" stroke="black" cx="344.33" cy="-126" rx="36.29" ry="18"/>
<text text-anchor="middle" x="344.33" y="-122.3" font-family="Times,serif" font-size="14.00">Block</text>
</g>
<!-- DeclFunc&#45;&gt;Block -->
<g id="edge3" class="edge">
<title>DeclFunc&#45;&gt;Block</title>
<path fill="none" stroke="black" d="M244.02,-126C262.09,-126 280.95,-126 297.31,-126"/>
<polygon fill="black" stroke="black" points="297.68,-129.5 307.68,-126 297.68,-122.5 297.68,-129.5"/>
</g>
<!-- Return -->
<g id="node5" class="node">
<title>Return</title>
<ellipse fill="none" stroke="black" cx="509.01" cy="-126" rx="42.79" ry="18"/>
<text text-anchor="middle" x="509.01" y="-122.3" font-family="Times,serif" font-size="14.00">Return</text>
</g>
<!-- Block&#45;&gt;Return -->
<g id="edge4" class="edge">
<title>Block&#45;&gt;Return</title>
<path fill="none" stroke="black" d="M381.03,-126C402.96,-126 431.44,-126 455.87,-126"/>
<polygon fill="black" stroke="black" points="456.06,-129.5 466.06,-126 456.06,-122.5 456.06,-129.5"/>
</g>
<!-- ExpList1 -->
<g id="node6" class="node">
<title>ExpList1</title>
<ellipse fill="none" stroke="black" cx="673.05" cy="-126" rx="46.29" ry="18"/>
<text text-anchor="middle" x="673.05" y="-122.3" font-family="Times,serif" font-size="14.00">ExpList</text>
</g>
<!-- Return&#45;&gt;ExpList1 -->
<g id="edge5" class="edge">
<title>Return&#45;&gt;ExpList1</title>
<path fill="none" stroke="black" d="M552.17,-126C571.83,-126 595.49,-126 616.59,-126"/>
<polygon fill="black" stroke="black" points="616.7,-129.5 626.7,-126 616.7,-122.5 616.7,-129.5"/>
</g>
<!-- ExpOp2 -->
<g id="node7" class="node">
<title>ExpOp2</title>
<ellipse fill="none" stroke="black" cx="831.24" cy="-126" rx="58.49" ry="18"/>
<text text-anchor="middle" x="831.24" y="-122.3" font-family="Times,serif" font-size="14.00">ExpOp2:+</text>
</g>
<!-- ExpList1&#45;&gt;ExpOp2 -->
<g id="edge6" class="edge">
<title>ExpList1&#45;&gt;ExpOp2</title>
<path fill="none" stroke="black" d="M719.23,-126C732.77,-126 747.93,-126 762.59,-126"/>
<polygon fill="black" stroke="black" points="762.63,-129.5 772.63,-126 762.63,-122.5 762.63,-129.5"/>
</g>
<!-- ExpRefval -->
<g id="node8" class="node">
<title>ExpRefval</title>
<ellipse fill="none" stroke="black" cx="1000.48" cy="-153" rx="74.99" ry="18"/>
<text text-anchor="middle" x="1000.48" y="-149.3" font-family="Times,serif" font-size="14.00">ExpRefval:val</text>
</g>
<!-- ExpOp2&#45;&gt;ExpRefval -->
<g id="edge7" class="edge">
<title>ExpOp2&#45;&gt;ExpRefval</title>
<path fill="none" stroke="black" d="M883.33,-134.25C897.3,-136.5 912.7,-138.99 927.6,-141.4"/>
<polygon fill="black" stroke="black" points="927.38,-144.91 937.81,-143.04 928.5,-137.99 927.38,-144.91"/>
</g>
<!-- LiteralInt_10 -->
<g id="node9" class="node">
<title>LiteralInt_10</title>
<ellipse fill="none" stroke="black" cx="1000.48" cy="-99" rx="69.59" ry="18"/>
<text text-anchor="middle" x="1000.48" y="-95.3" font-family="Times,serif" font-size="14.00">LiteralInt:10</text>
</g>
<!-- ExpOp2&#45;&gt;LiteralInt_10 -->
<g id="edge8" class="edge">
<title>ExpOp2&#45;&gt;LiteralInt_10</title>
<path fill="none" stroke="black" d="M883.33,-117.75C898.3,-115.34 914.92,-112.65 930.8,-110.09"/>
<polygon fill="black" stroke="black" points="931.78,-113.47 941.1,-108.43 930.67,-106.56 931.78,-113.47"/>
</g>
<!-- ExpCall -->
<g id="node11" class="node">
<title>ExpCall</title>
<ellipse fill="none" stroke="black" cx="344.33" cy="-72" rx="46.59" ry="18"/>
<text text-anchor="middle" x="344.33" y="-68.3" font-family="Times,serif" font-size="14.00">ExpCall</text>
</g>
<!-- StmtExp&#45;&gt;ExpCall -->
<g id="edge10" class="edge">
<title>StmtExp&#45;&gt;ExpCall</title>
<path fill="none" stroke="black" d="M222.16,-72C242.63,-72 266.28,-72 287.21,-72"/>
<polygon fill="black" stroke="black" points="287.24,-75.5 297.24,-72 287.24,-68.5 287.24,-75.5"/>
</g>
<!-- ExpRef -->
<g id="node12" class="node">
<title>ExpRef</title>
<ellipse fill="none" stroke="black" cx="509.01" cy="-72" rx="64.19" ry="18"/>
<text text-anchor="middle" x="509.01" y="-68.3" font-family="Times,serif" font-size="14.00">ExpRef:add</text>
</g>
<!-- ExpCall&#45;&gt;ExpRef -->
<g id="edge11" class="edge">
<title>ExpCall&#45;&gt;ExpRef</title>
<path fill="none" stroke="black" d="M391.51,-72C404.87,-72 419.79,-72 434.38,-72"/>
<polygon fill="black" stroke="black" points="434.4,-75.5 444.4,-72 434.4,-68.5 434.4,-75.5"/>
</g>
<!-- ExpList2 -->
<g id="node13" class="node">
<title>ExpList2</title>
<ellipse fill="none" stroke="black" cx="509.01" cy="-18" rx="46.29" ry="18"/>
<text text-anchor="middle" x="509.01" y="-14.3" font-family="Times,serif" font-size="14.00">ExpList</text>
</g>
<!-- ExpCall&#45;&gt;ExpList2 -->
<g id="edge12" class="edge">
<title>ExpCall&#45;&gt;ExpList2</title>
<path fill="none" stroke="black" d="M380.23,-60.42C404.65,-52.31 437.47,-41.41 463.74,-32.7"/>
<polygon fill="black" stroke="black" points="465.06,-35.94 473.45,-29.47 462.86,-29.3 465.06,-35.94"/>
</g>
<!-- LiteralInt_1 -->
<g id="node14" class="node">
<title>LiteralInt_1</title>
<ellipse fill="none" stroke="black" cx="673.05" cy="-18" rx="63.89" ry="18"/>
<text text-anchor="middle" x="673.05" y="-14.3" font-family="Times,serif" font-size="14.00">LiteralInt:1</text>
</g>
<!-- ExpList2&#45;&gt;LiteralInt_1 -->
<g id="edge13" class="edge">
<title>ExpList2&#45;&gt;LiteralInt_1</title>
<path fill="none" stroke="black" d="M555.58,-18C569.12,-18 584.3,-18 599.12,-18"/>
<polygon fill="black" stroke="black" points="599.3,-21.5 609.3,-18 599.3,-14.5 599.3,-21.5"/>
</g>
</g>
</svg>
