<?xml version="1.0" encoding="UTF-8" standalone="no"?>
<!DOCTYPE svg PUBLIC "-//W3C//DTD SVG 1.1//EN"
 "http://www.w3.org/Graphics/SVG/1.1/DTD/svg11.dtd">
<!-- Generated by graphviz version 2.43.0 (0)
 -->
<!-- Title: G Pages: 1 -->
<svg width="506pt" height="216pt"
 viewBox="0.00 0.00 505.97 216.28" xmlns="http://www.w3.org/2000/svg" xmlns:xlink="http://www.w3.org/1999/xlink">
<g id="graph0" class="graph" transform="scale(1 1) rotate(0) translate(4 212.28)">
<title>G</title>
<polygon fill="white" stroke="transparent" points="-4,4 -4,-212.28 501.97,-212.28 501.97,4 -4,4"/>
<g id="clust1" class="cluster">
<title>cluster_B</title>
<polygon fill="none" stroke="black" points="268.18,-17.28 268.18,-200.28 414.97,-200.28 414.97,-17.28 268.18,-17.28"/>
<text text-anchor="middle" x="341.57" y="-185.08" font-family="Times,serif" font-size="14.00">ユーザのJavaScript</text>
</g>
<!-- builtin_thread -->
<g id="node1" class="node">
<title>builtin_thread</title>
<polygon fill="none" stroke="black" points="230.17,-152.28 54.26,-152.28 9.01,-116.28 184.92,-116.28 230.17,-152.28"/>
<text text-anchor="middle" x="119.59" y="-130.58" font-family="Times,serif" font-size="14.00">組込みスレッド</text>
</g>
<!-- event_loop -->
<g id="node2" class="node">
<title>event_loop</title>
<ellipse fill="none" stroke="black" cx="119.59" cy="-62.28" rx="119.68" ry="18"/>
<text text-anchor="middle" x="119.59" y="-58.58" font-family="Times,serif" font-size="14.00">イベント待ち[隠れている]</text>
</g>
<!-- builtin_thread&#45;&gt;event_loop -->
<g id="edge8" class="edge">
<title>builtin_thread&#45;&gt;event_loop</title>
<path fill="none" stroke="black" stroke-dasharray="5,2" d="M119.59,-115.86C119.59,-108.22 119.59,-99.17 119.59,-90.7"/>
<polygon fill="black" stroke="black" points="123.09,-90.44 119.59,-80.44 116.09,-90.44 123.09,-90.44"/>
<text text-anchor="middle" x="109.09" y="-94.58" font-family="Times,serif" font-size="14.00">イベント通知</text>
</g>
<!-- on_event1 -->
<g id="node3" class="node">
<title>on_event1</title>
<ellipse fill="none" stroke="black" cx="341.57" cy="-151.28" rx="41.69" ry="18"/>
<text text-anchor="middle" x="341.57" y="-147.58" font-family="Times,serif" font-size="14.00">onload</text>
</g>
<!-- event_loop&#45;&gt;on_event1 -->
<g id="edge1" class="edge">
<title>event_loop&#45;&gt;on_event1</title>
<path fill="none" stroke="black" d="M169.25,-78.66C191,-86.51 216.73,-96.53 239.18,-107.28 252.65,-113.73 254.68,-117.86 268.18,-124.28 277.82,-128.86 288.46,-133.2 298.55,-137.01"/>
<polygon fill="black" stroke="black" points="297.41,-140.32 308,-140.49 299.83,-133.75 297.41,-140.32"/>
</g>
<!-- on_event2 -->
<g id="node4" class="node">
<title>on_event2</title>
<ellipse fill="none" stroke="black" cx="341.57" cy="-97.28" rx="42.79" ry="18"/>
<text text-anchor="middle" x="341.57" y="-93.58" font-family="Times,serif" font-size="14.00">onclick</text>
</g>
<!-- event_loop&#45;&gt;on_event2 -->
<g id="edge2" class="edge">
<title>event_loop&#45;&gt;on_event2</title>
<path fill="none" stroke="black" d="M202.5,-75.31C232.27,-80.04 264.97,-85.25 291.08,-89.4"/>
<polygon fill="black" stroke="black" points="290.68,-92.88 301.1,-91 291.78,-85.97 290.68,-92.88"/>
</g>
<!-- on_event3 -->
<g id="node5" class="node">
<title>on_event3</title>
<ellipse fill="none" stroke="black" cx="341.57" cy="-43.28" rx="62.29" ry="18"/>
<text text-anchor="middle" x="341.57" y="-39.58" font-family="Times,serif" font-size="14.00">onmessage</text>
</g>
<!-- event_loop&#45;&gt;on_event3 -->
<g id="edge3" class="edge">
<title>event_loop&#45;&gt;on_event3</title>
<path fill="none" stroke="black" d="M223.82,-53.36C239.96,-51.97 256.3,-50.55 271.44,-49.25"/>
<polygon fill="black" stroke="black" points="272.05,-52.71 281.71,-48.36 271.44,-45.73 272.05,-52.71"/>
</g>
<!-- end -->
<g id="node6" class="node">
<title>end</title>
<ellipse fill="none" stroke="black" cx="470.97" cy="-62.28" rx="27" ry="18"/>
</g>
<!-- on_event1&#45;&gt;end -->
<g id="edge4" class="edge">
<title>on_event1&#45;&gt;end</title>
<path fill="none" stroke="black" d="M377.4,-142.12C389.9,-137.87 403.68,-132.01 414.97,-124.28 429.62,-114.23 442.94,-99.44 452.8,-86.83"/>
<polygon fill="black" stroke="black" points="455.82,-88.63 459.04,-78.54 450.23,-84.42 455.82,-88.63"/>
</g>
<!-- on_event2&#45;&gt;end -->
<g id="edge5" class="edge">
<title>on_event2&#45;&gt;end</title>
<path fill="none" stroke="black" d="M378.06,-87.53C396.11,-82.57 417.96,-76.56 435.82,-71.66"/>
<polygon fill="black" stroke="black" points="436.84,-75.01 445.55,-68.98 434.98,-68.26 436.84,-75.01"/>
</g>
<!-- on_event3&#45;&gt;end -->
<g id="edge6" class="edge">
<title>on_event3&#45;&gt;end</title>
<path fill="none" stroke="black" d="M397.34,-51.44C409.83,-53.31 422.8,-55.24 434.25,-56.95"/>
<polygon fill="black" stroke="black" points="433.89,-60.43 444.29,-58.45 434.92,-53.51 433.89,-60.43"/>
</g>
<!-- end&#45;&gt;event_loop -->
<g id="edge7" class="edge">
<title>end&#45;&gt;event_loop</title>
<path fill="none" stroke="black" d="M457.48,-46.11C447.43,-34.51 432.18,-19.83 414.97,-13.28 330.35,18.95 224.06,-15.66 165.14,-40.87"/>
<polygon fill="black" stroke="black" points="163.5,-37.77 155.75,-44.98 166.31,-44.18 163.5,-37.77"/>
</g>
</g>
</svg>
