<?xml version="1.0" encoding="UTF-8" standalone="no"?>
<!DOCTYPE svg PUBLIC "-//W3C//DTD SVG 1.1//EN"
 "http://www.w3.org/Graphics/SVG/1.1/DTD/svg11.dtd">
<!-- Generated by graphviz version 2.38.0 (20140413.2041)
 -->
<!-- Title: G Pages: 1 -->
<svg width="569pt" height="206pt"
 viewBox="0.00 0.00 568.88 206.00" xmlns="http://www.w3.org/2000/svg" xmlns:xlink="http://www.w3.org/1999/xlink">
<g id="graph0" class="graph" transform="scale(1 1) rotate(0) translate(4 202)">
<title>G</title>
<polygon fill="white" stroke="none" points="-4,4 -4,-202 564.885,-202 564.885,4 -4,4"/>
<g id="clust1" class="cluster"><title>clusterA</title>
<polygon fill="none" stroke="black" points="100.994,-8 100.994,-190 478.885,-190 478.885,-8 100.994,-8"/>
</g>
<!-- tunnel -->
<g id="node1" class="node"><title>tunnel</title>
<ellipse fill="none" stroke="black" cx="36.4971" cy="-68" rx="32.4945" ry="32.4945"/>
<ellipse fill="none" stroke="black" cx="36.4971" cy="-68" rx="36.4942" ry="36.4942"/>
<text text-anchor="middle" x="36.4971" y="-64.3" font-family="Times,serif" font-size="14.00">tunnel</text>
</g>
<!-- packetReader -->
<g id="node3" class="node"><title>packetReader</title>
<polygon fill="none" stroke="black" points="210.994,-59.5 108.994,-59.5 108.994,-16.5 210.994,-16.5 210.994,-59.5"/>
<text text-anchor="middle" x="159.994" y="-34.3" font-family="Times,serif" font-size="14.00">packetReader</text>
</g>
<!-- tunnel&#45;&gt;packetReader -->
<g id="edge1" class="edge"><title>tunnel&#45;&gt;packetReader</title>
<path fill="none" stroke="black" d="M72.3082,-59.4045C80.6729,-57.3391 89.8453,-55.0742 98.995,-52.815"/>
<polygon fill="black" stroke="black" points="100.006,-56.1706 108.875,-50.3754 98.3278,-49.3747 100.006,-56.1706"/>
</g>
<!-- packetWriter -->
<g id="node2" class="node"><title>packetWriter</title>
<polygon fill="none" stroke="black" points="209.994,-120.5 109.994,-120.5 109.994,-77.5 209.994,-77.5 209.994,-120.5"/>
<text text-anchor="middle" x="159.994" y="-95.3" font-family="Times,serif" font-size="14.00">packetWriter</text>
</g>
<!-- packetWriter&#45;&gt;tunnel -->
<g id="edge3" class="edge"><title>packetWriter&#45;&gt;tunnel</title>
<path fill="none" stroke="black" d="M109.927,-86.4805C100.74,-84.1363 91.1818,-81.6976 82.1374,-79.39"/>
<polygon fill="black" stroke="black" points="82.7462,-75.9333 72.1913,-76.8522 81.0156,-82.716 82.7462,-75.9333"/>
</g>
<!-- CITI1 -->
<g id="node6" class="node"><title>CITI1</title>
<polygon fill="none" stroke="black" points="461.885,-120.5 399.885,-120.5 399.885,-116.5 395.885,-116.5 395.885,-112.5 399.885,-112.5 399.885,-85.5 395.885,-85.5 395.885,-81.5 399.885,-81.5 399.885,-77.5 461.885,-77.5 461.885,-120.5"/>
<polyline fill="none" stroke="black" points="399.885,-116.5 403.885,-116.5 403.885,-112.5 399.885,-112.5 "/>
<polyline fill="none" stroke="black" points="399.885,-85.5 403.885,-85.5 403.885,-81.5 399.885,-81.5 "/>
<text text-anchor="middle" x="430.885" y="-95.3" font-family="Times,serif" font-size="14.00">CITI1</text>
</g>
<!-- packetReader&#45;&gt;CITI1 -->
<g id="edge5" class="edge"><title>packetReader&#45;&gt;CITI1</title>
<path fill="none" stroke="black" d="M211.32,-44.4017C250.763,-49.999 306.826,-59.2372 354.885,-72 366.471,-75.0769 378.804,-79.163 390.051,-83.223"/>
<polygon fill="black" stroke="black" points="389.016,-86.572 399.61,-86.7582 391.445,-80.0066 389.016,-86.572"/>
</g>
<!-- CITI2 -->
<g id="node7" class="node"><title>CITI2</title>
<polygon fill="none" stroke="black" points="461.885,-59.5 399.885,-59.5 399.885,-55.5 395.885,-55.5 395.885,-51.5 399.885,-51.5 399.885,-24.5 395.885,-24.5 395.885,-20.5 399.885,-20.5 399.885,-16.5 461.885,-16.5 461.885,-59.5"/>
<polyline fill="none" stroke="black" points="399.885,-55.5 403.885,-55.5 403.885,-51.5 399.885,-51.5 "/>
<polyline fill="none" stroke="black" points="399.885,-24.5 403.885,-24.5 403.885,-20.5 399.885,-20.5 "/>
<text text-anchor="middle" x="430.885" y="-34.3" font-family="Times,serif" font-size="14.00">CITI2</text>
</g>
<!-- packetReader&#45;&gt;CITI2 -->
<g id="edge9" class="edge"><title>packetReader&#45;&gt;CITI2</title>
<path fill="none" stroke="black" d="M211.423,-38C262.987,-38 342.068,-38 389.604,-38"/>
<polygon fill="black" stroke="black" points="389.822,-41.5001 399.822,-38 389.822,-34.5001 389.822,-41.5001"/>
</g>
<!-- keepalive -->
<g id="node4" class="node"><title>keepalive</title>
<polygon fill="none" stroke="black" points="470.885,-181.5 390.885,-181.5 390.885,-138.5 470.885,-138.5 470.885,-181.5"/>
<text text-anchor="middle" x="430.885" y="-156.3" font-family="Times,serif" font-size="14.00">keepalive</text>
</g>
<!-- WriteQueue -->
<g id="node5" class="node"><title>WriteQueue</title>
<ellipse fill="none" stroke="black" cx="300.939" cy="-99" rx="53.8905" ry="18"/>
<text text-anchor="middle" x="300.939" y="-95.3" font-family="Times,serif" font-size="14.00">WriteQueue</text>
</g>
<!-- keepalive&#45;&gt;WriteQueue -->
<g id="edge4" class="edge"><title>keepalive&#45;&gt;WriteQueue</title>
<path fill="none" stroke="black" d="M390.802,-141.367C375.344,-133.997 357.589,-125.532 342.033,-118.115"/>
<polygon fill="black" stroke="black" points="343.205,-114.797 332.672,-113.652 340.192,-121.115 343.205,-114.797"/>
</g>
<!-- WriteQueue&#45;&gt;packetWriter -->
<g id="edge2" class="edge"><title>WriteQueue&#45;&gt;packetWriter</title>
<path fill="none" stroke="black" d="M246.617,-99C238.036,-99 229.107,-99 220.394,-99"/>
<polygon fill="black" stroke="black" points="220.299,-95.5001 210.299,-99 220.299,-102.5 220.299,-95.5001"/>
</g>
<!-- CITI1&#45;&gt;WriteQueue -->
<g id="edge7" class="edge"><title>CITI1&#45;&gt;WriteQueue</title>
<path fill="none" stroke="black" d="M399.563,-99C389.172,-99 377.124,-99 365.114,-99"/>
<polygon fill="black" stroke="black" points="365.071,-95.5001 355.071,-99 365.071,-102.5 365.071,-95.5001"/>
</g>
<!-- host1 -->
<g id="node8" class="node"><title>host1</title>
<polygon fill="none" stroke="black" points="560.885,-117 510.885,-117 506.885,-113 506.885,-81 556.885,-81 560.885,-85 560.885,-117"/>
<polyline fill="none" stroke="black" points="556.885,-113 506.885,-113 "/>
<polyline fill="none" stroke="black" points="556.885,-113 556.885,-81 "/>
<polyline fill="none" stroke="black" points="556.885,-113 560.885,-117 "/>
<text text-anchor="middle" x="533.885" y="-95.3" font-family="Times,serif" font-size="14.00">host1</text>
</g>
<!-- CITI1&#45;&gt;host1 -->
<g id="edge6" class="edge"><title>CITI1&#45;&gt;host1</title>
<path fill="none" stroke="black" d="M462.105,-92.7591C473.018,-92.1814 485.446,-92.0954 496.811,-92.501"/>
<polygon fill="black" stroke="black" points="496.71,-96.0003 506.875,-93.0118 497.065,-89.0093 496.71,-96.0003"/>
</g>
<!-- CITI2&#45;&gt;WriteQueue -->
<g id="edge11" class="edge"><title>CITI2&#45;&gt;WriteQueue</title>
<path fill="none" stroke="black" d="M399.563,-52.4561C382.369,-60.6541 360.639,-71.0138 342.049,-79.8772"/>
<polygon fill="black" stroke="black" points="340.452,-76.7609 332.932,-84.2239 343.465,-83.0796 340.452,-76.7609"/>
</g>
<!-- host2 -->
<g id="node9" class="node"><title>host2</title>
<polygon fill="none" stroke="black" points="560.885,-56 510.885,-56 506.885,-52 506.885,-20 556.885,-20 560.885,-24 560.885,-56"/>
<polyline fill="none" stroke="black" points="556.885,-52 506.885,-52 "/>
<polyline fill="none" stroke="black" points="556.885,-52 556.885,-20 "/>
<polyline fill="none" stroke="black" points="556.885,-52 560.885,-56 "/>
<text text-anchor="middle" x="533.885" y="-34.3" font-family="Times,serif" font-size="14.00">host2</text>
</g>
<!-- CITI2&#45;&gt;host2 -->
<g id="edge10" class="edge"><title>CITI2&#45;&gt;host2</title>
<path fill="none" stroke="black" d="M462.105,-31.7591C473.018,-31.1814 485.446,-31.0954 496.811,-31.501"/>
<polygon fill="black" stroke="black" points="496.71,-35.0003 506.875,-32.0118 497.065,-28.0093 496.71,-35.0003"/>
</g>
<!-- host1&#45;&gt;CITI1 -->
<g id="edge8" class="edge"><title>host1&#45;&gt;CITI1</title>
<path fill="none" stroke="black" d="M506.875,-104.988C496.296,-105.702 483.827,-105.914 472.124,-105.625"/>
<polygon fill="black" stroke="black" points="472.231,-102.126 462.105,-105.241 471.963,-109.121 472.231,-102.126"/>
</g>
<!-- host2&#45;&gt;CITI2 -->
<g id="edge12" class="edge"><title>host2&#45;&gt;CITI2</title>
<path fill="none" stroke="black" d="M506.875,-43.9882C496.296,-44.7021 483.827,-44.9142 472.124,-44.6246"/>
<polygon fill="black" stroke="black" points="472.231,-41.1262 462.105,-44.2409 471.963,-48.1211 472.231,-41.1262"/>
</g>
</g>
</svg>
