<?xml version="1.0" encoding="UTF-8" standalone="no"?>
<!DOCTYPE svg PUBLIC "-//W3C//DTD SVG 1.1//EN"
 "http://www.w3.org/Graphics/SVG/1.1/DTD/svg11.dtd">
<!-- Generated by graphviz version 2.30.1 (20180420.1509)
 -->
<!-- Title: G Pages: 1 -->
<svg width="558pt" height="206pt"
 viewBox="0.00 0.00 558.00 206.00" xmlns="http://www.w3.org/2000/svg" xmlns:xlink="http://www.w3.org/1999/xlink">
<g id="graph0" class="graph" transform="scale(1 1) rotate(0) translate(4 202)">
<title>G</title>
<polygon fill="white" stroke="white" points="-4,5 -4,-202 555,-202 555,5 -4,5"/>
<g id="clust1" class="cluster"><title>cluster</title>
<polygon fill="none" stroke="black" points="102,-8 102,-190 468,-190 468,-8 102,-8"/>
</g>
<!-- tunnel -->
<g id="node1" class="node"><title>tunnel</title>
<ellipse fill="none" stroke="black" cx="37" cy="-68" rx="32.4945" ry="32.4945"/>
<ellipse fill="none" stroke="black" cx="37" cy="-68" rx="36.4942" ry="36.4942"/>
<text text-anchor="middle" x="37" y="-64.3" font-family="Times,serif" font-size="14.00">tunnel</text>
</g>
<!-- tunnel2Stream -->
<g id="node3" class="node"><title>tunnel2Stream</title>
<polygon fill="none" stroke="black" points="459,-59.5 351,-59.5 351,-16.5 459,-16.5 459,-59.5"/>
<text text-anchor="middle" x="405" y="-34.3" font-family="Times,serif" font-size="14.00">tunnel2Stream</text>
</g>
<!-- tunnel&#45;&gt;tunnel2Stream -->
<g id="edge1" class="edge"><title>tunnel&#45;&gt;tunnel2Stream</title>
<path fill="none" stroke="black" d="M73.606,-65.0815C135.434,-60.0136 263.419,-49.523 340.69,-43.1894"/>
<polygon fill="black" stroke="black" points="341.1,-46.6676 350.78,-42.3623 340.528,-39.691 341.1,-46.6676"/>
</g>
<!-- host -->
<g id="node2" class="node"><title>host</title>
<polygon fill="none" stroke="black" points="550,-117 500,-117 496,-113 496,-81 546,-81 550,-85 550,-117"/>
<polyline fill="none" stroke="black" points="546,-113 496,-113 "/>
<polyline fill="none" stroke="black" points="546,-113 546,-81 "/>
<polyline fill="none" stroke="black" points="546,-113 550,-117 "/>
<text text-anchor="middle" x="523" y="-95.3" font-family="Times,serif" font-size="14.00">host</text>
</g>
<!-- stream2Tunnel -->
<g id="node4" class="node"><title>stream2Tunnel</title>
<polygon fill="none" stroke="black" points="460,-181.5 350,-181.5 350,-138.5 460,-138.5 460,-181.5"/>
<text text-anchor="middle" x="405" y="-156.3" font-family="Times,serif" font-size="14.00">stream2Tunnel</text>
</g>
<!-- host&#45;&gt;stream2Tunnel -->
<g id="edge3" class="edge"><title>host&#45;&gt;stream2Tunnel</title>
<path fill="none" stroke="black" d="M495.758,-113.879C486.977,-118.777 477.106,-124.197 468,-129 464.777,-130.7 461.449,-132.432 458.085,-134.164"/>
<polygon fill="black" stroke="black" points="456.463,-131.062 449.149,-138.728 459.647,-137.296 456.463,-131.062"/>
</g>
<!-- tunnel2Stream&#45;&gt;host -->
<g id="edge2" class="edge"><title>tunnel2Stream&#45;&gt;host</title>
<path fill="none" stroke="black" d="M449.149,-59.2724C455.494,-62.4877 461.933,-65.7997 468,-69 474.118,-72.2272 480.582,-75.7326 486.828,-79.1712"/>
<polygon fill="black" stroke="black" points="485.315,-82.3342 495.758,-84.1211 488.708,-76.2118 485.315,-82.3342"/>
</g>
<!-- Queue -->
<g id="node7" class="node"><title>Queue</title>
<ellipse fill="none" stroke="black" cx="280" cy="-99" rx="33.5952" ry="18"/>
<text text-anchor="middle" x="280" y="-95.3" font-family="Times,serif" font-size="14.00">Queue</text>
</g>
<!-- stream2Tunnel&#45;&gt;Queue -->
<g id="edge4" class="edge"><title>stream2Tunnel&#45;&gt;Queue</title>
<path fill="none" stroke="black" d="M360.981,-138.665C345.751,-131.112 328.854,-122.732 314.529,-115.628"/>
<polygon fill="black" stroke="black" points="316.045,-112.473 305.531,-111.166 312.934,-118.744 316.045,-112.473"/>
</g>
<!-- packetWriter -->
<g id="node5" class="node"><title>packetWriter</title>
<polygon fill="none" stroke="black" points="210,-117.5 110,-117.5 110,-74.5 210,-74.5 210,-117.5"/>
<text text-anchor="middle" x="160" y="-92.3" font-family="Times,serif" font-size="14.00">packetWriter</text>
</g>
<!-- packetWriter&#45;&gt;tunnel -->
<g id="edge6" class="edge"><title>packetWriter&#45;&gt;tunnel</title>
<path fill="none" stroke="black" d="M109.785,-84.6113C100.752,-82.5212 91.3723,-80.3506 82.4885,-78.2949"/>
<polygon fill="black" stroke="black" points="83.2459,-74.8777 72.7143,-76.0331 81.6677,-81.6975 83.2459,-74.8777"/>
</g>
<!-- keepalive -->
<g id="node6" class="node"><title>keepalive</title>
<polygon fill="none" stroke="black" points="445,-120.5 365,-120.5 365,-77.5 445,-77.5 445,-120.5"/>
<text text-anchor="middle" x="405" y="-95.3" font-family="Times,serif" font-size="14.00">keepalive</text>
</g>
<!-- keepalive&#45;&gt;Queue -->
<g id="edge7" class="edge"><title>keepalive&#45;&gt;Queue</title>
<path fill="none" stroke="black" d="M364.744,-99C351.873,-99 337.501,-99 324.346,-99"/>
<polygon fill="black" stroke="black" points="324.108,-95.5001 314.108,-99 324.108,-102.5 324.108,-95.5001"/>
</g>
<!-- Queue&#45;&gt;packetWriter -->
<g id="edge5" class="edge"><title>Queue&#45;&gt;packetWriter</title>
<path fill="none" stroke="black" d="M246.13,-98.1643C238.005,-97.9577 229.05,-97.7301 220.093,-97.5024"/>
<polygon fill="black" stroke="black" points="220.109,-94.0017 210.023,-97.2463 219.931,-100.999 220.109,-94.0017"/>
</g>
</g>
</svg>
