<?xml version="1.0" encoding="UTF-8" standalone="no"?><svg xmlns="http://www.w3.org/2000/svg" xmlns:xlink="http://www.w3.org/1999/xlink" contentScriptType="application/ecmascript" contentStyleType="text/css" height="518px" preserveAspectRatio="none" style="width:505px;height:518px;" version="1.1" viewBox="0 0 505 518" width="505px" zoomAndPan="magnify"><defs><filter height="300%" id="f4o3k7qmx7hya" width="300%" x="-1" y="-1"><feGaussianBlur result="blurOut" stdDeviation="2.0"/><feColorMatrix in="blurOut" result="blurOut2" type="matrix" values="0 0 0 0 0 0 0 0 0 0 0 0 0 0 0 0 0 0 .4 0"/><feOffset dx="4.0" dy="4.0" in="blurOut2" result="blurOut3"/><feBlend in="SourceGraphic" in2="blurOut3" mode="normal"/></filter></defs><g><!--MD5=[01c650ea569181d585b804fb5b1cdd13]
cluster tunnelの例--><rect fill="#FFFFFF" filter="url(#f4o3k7qmx7hya)" height="483" style="stroke: #000000; stroke-width: 1.5;" width="224" x="22" y="24"/><path d="M109,25 L109,31 L99,41 L22,41 " fill="none" style="stroke: #000000; stroke-width: 1.5;"/><text fill="#000000" font-family="sans-serif" font-size="14" font-weight="bold" lengthAdjust="spacingAndGlyphs" textLength="77" x="25" y="37.3184">tunnelの例</text><!--MD5=[8825f24baf9b2bbaa49fcee5fd867035]
cluster network_1--><rect fill="#FFFFFF" filter="url(#f4o3k7qmx7hya)" height="197" style="stroke: #000000; stroke-width: 1.5;" width="174" x="47" y="65"/><text fill="#000000" font-family="sans-serif" font-size="14" font-weight="bold" lengthAdjust="spacingAndGlyphs" textLength="77" x="95.5" y="79.3184">network_1</text><!--MD5=[8e4ecf265b1a7b5125633c71bc652769]
cluster network_2--><rect fill="#FFFFFF" filter="url(#f4o3k7qmx7hya)" height="197" style="stroke: #000000; stroke-width: 1.5;" width="176" x="46" y="286"/><text fill="#000000" font-family="sans-serif" font-size="14" font-weight="bold" lengthAdjust="spacingAndGlyphs" textLength="77" x="95.5" y="300.3184">network_2</text><!--MD5=[fc08a7506be1ff1e615dd27eb50e8976]
cluster reverse_tunnelの例--><rect fill="#FFFFFF" filter="url(#f4o3k7qmx7hya)" height="483" style="stroke: #000000; stroke-width: 1.5;" width="224" x="270" y="24"/><path d="M419,25 L419,31 L409,41 L270,41 " fill="none" style="stroke: #000000; stroke-width: 1.5;"/><text fill="#000000" font-family="sans-serif" font-size="14" font-weight="bold" lengthAdjust="spacingAndGlyphs" textLength="139" x="273" y="37.3184">reverse_tunnelの例</text><!--MD5=[3a61559508d2e93dc895da511a4d0a53]
cluster network_A--><rect fill="#FFFFFF" filter="url(#f4o3k7qmx7hya)" height="197" style="stroke: #000000; stroke-width: 1.5;" width="174" x="295" y="65"/><text fill="#000000" font-family="sans-serif" font-size="14" font-weight="bold" lengthAdjust="spacingAndGlyphs" textLength="77" x="343.5" y="79.3184">network_A</text><!--MD5=[c7e727f6088f3dfa81c744938e28134f]
cluster network_B--><rect fill="#FFFFFF" filter="url(#f4o3k7qmx7hya)" height="197" style="stroke: #000000; stroke-width: 1.5;" width="176" x="294" y="286"/><text fill="#000000" font-family="sans-serif" font-size="14" font-weight="bold" lengthAdjust="spacingAndGlyphs" textLength="77" x="343.5" y="300.3184">network_B</text><!--MD5=[e511913196be5725b10b30b29619c120]
entity tcp_client_A--><polygon fill="#FEFECE" filter="url(#f4o3k7qmx7hya)" points="73,108,83,98,195,98,195,132,185,142,73,142,73,108" style="stroke: #000000; stroke-width: 1.5;"/><line style="stroke: #000000; stroke-width: 1.5;" x1="185" x2="194" y1="108" y2="99"/><line style="stroke: #000000; stroke-width: 1.5;" x1="73" x2="185" y1="108" y2="108"/><line style="stroke: #000000; stroke-width: 1.5;" x1="185" x2="185" y1="108" y2="142"/><text fill="#000000" font-family="sans-serif" font-size="14" lengthAdjust="spacingAndGlyphs" textLength="82" x="88" y="130.3184">tcp_client_A</text><!--MD5=[94b9f0367bc570d1bbaf9f2f8d079ced]
entity tunnel_client_1--><polygon fill="#FEFECE" filter="url(#f4o3k7qmx7hya)" points="63.5,212,73.5,202,204.5,202,204.5,236,194.5,246,63.5,246,63.5,212" style="stroke: #000000; stroke-width: 1.5;"/><line style="stroke: #000000; stroke-width: 1.5;" x1="194.5" x2="203.5" y1="212" y2="203"/><line style="stroke: #000000; stroke-width: 1.5;" x1="63.5" x2="194.5" y1="212" y2="212"/><line style="stroke: #000000; stroke-width: 1.5;" x1="194.5" x2="194.5" y1="212" y2="246"/><text fill="#000000" font-family="sans-serif" font-size="14" lengthAdjust="spacingAndGlyphs" textLength="101" x="78.5" y="234.3184">tunnel_client_1</text><!--MD5=[a5dbff7643ef5318b89cf941d0bd821f]
entity tunnel_server_1--><polygon fill="#FEFECE" filter="url(#f4o3k7qmx7hya)" points="62.5,329,72.5,319,205.5,319,205.5,353,195.5,363,62.5,363,62.5,329" style="stroke: #000000; stroke-width: 1.5;"/><line style="stroke: #000000; stroke-width: 1.5;" x1="195.5" x2="204.5" y1="329" y2="320"/><line style="stroke: #000000; stroke-width: 1.5;" x1="62.5" x2="195.5" y1="329" y2="329"/><line style="stroke: #000000; stroke-width: 1.5;" x1="195.5" x2="195.5" y1="329" y2="363"/><text fill="#000000" font-family="sans-serif" font-size="14" lengthAdjust="spacingAndGlyphs" textLength="103" x="77.5" y="351.3184">tunnel_server_1</text><!--MD5=[4685c27190c2901e676b4be5a8bda8f5]
entity tcp_server_B--><polygon fill="#FEFECE" filter="url(#f4o3k7qmx7hya)" points="72,433,82,423,196,423,196,457,186,467,72,467,72,433" style="stroke: #000000; stroke-width: 1.5;"/><line style="stroke: #000000; stroke-width: 1.5;" x1="186" x2="195" y1="433" y2="424"/><line style="stroke: #000000; stroke-width: 1.5;" x1="72" x2="186" y1="433" y2="433"/><line style="stroke: #000000; stroke-width: 1.5;" x1="186" x2="186" y1="433" y2="467"/><text fill="#000000" font-family="sans-serif" font-size="14" lengthAdjust="spacingAndGlyphs" textLength="84" x="87" y="455.3184">tcp_server_B</text><!--MD5=[c526059ca92048d36c40267534db11b6]
entity tcp_server_C--><polygon fill="#FEFECE" filter="url(#f4o3k7qmx7hya)" points="319.5,108,329.5,98,444.5,98,444.5,132,434.5,142,319.5,142,319.5,108" style="stroke: #000000; stroke-width: 1.5;"/><line style="stroke: #000000; stroke-width: 1.5;" x1="434.5" x2="443.5" y1="108" y2="99"/><line style="stroke: #000000; stroke-width: 1.5;" x1="319.5" x2="434.5" y1="108" y2="108"/><line style="stroke: #000000; stroke-width: 1.5;" x1="434.5" x2="434.5" y1="108" y2="142"/><text fill="#000000" font-family="sans-serif" font-size="14" lengthAdjust="spacingAndGlyphs" textLength="85" x="334.5" y="130.3184">tcp_server_C</text><!--MD5=[e5e882ad98b0e4d8c959126788a71ccc]
entity tunnel_client_2--><polygon fill="#FEFECE" filter="url(#f4o3k7qmx7hya)" points="311.5,212,321.5,202,452.5,202,452.5,236,442.5,246,311.5,246,311.5,212" style="stroke: #000000; stroke-width: 1.5;"/><line style="stroke: #000000; stroke-width: 1.5;" x1="442.5" x2="451.5" y1="212" y2="203"/><line style="stroke: #000000; stroke-width: 1.5;" x1="311.5" x2="442.5" y1="212" y2="212"/><line style="stroke: #000000; stroke-width: 1.5;" x1="442.5" x2="442.5" y1="212" y2="246"/><text fill="#000000" font-family="sans-serif" font-size="14" lengthAdjust="spacingAndGlyphs" textLength="101" x="326.5" y="234.3184">tunnel_client_2</text><!--MD5=[d539182dbd89cb579540d5caab4b2b25]
entity tunnel_server_2--><polygon fill="#FEFECE" filter="url(#f4o3k7qmx7hya)" points="310.5,329,320.5,319,453.5,319,453.5,353,443.5,363,310.5,363,310.5,329" style="stroke: #000000; stroke-width: 1.5;"/><line style="stroke: #000000; stroke-width: 1.5;" x1="443.5" x2="452.5" y1="329" y2="320"/><line style="stroke: #000000; stroke-width: 1.5;" x1="310.5" x2="443.5" y1="329" y2="329"/><line style="stroke: #000000; stroke-width: 1.5;" x1="443.5" x2="443.5" y1="329" y2="363"/><text fill="#000000" font-family="sans-serif" font-size="14" lengthAdjust="spacingAndGlyphs" textLength="103" x="325.5" y="351.3184">tunnel_server_2</text><!--MD5=[59782427743d89247e1fb1d9675133b7]
entity tcp_client_D--><polygon fill="#FEFECE" filter="url(#f4o3k7qmx7hya)" points="320,433,330,423,444,423,444,457,434,467,320,467,320,433" style="stroke: #000000; stroke-width: 1.5;"/><line style="stroke: #000000; stroke-width: 1.5;" x1="434" x2="443" y1="433" y2="424"/><line style="stroke: #000000; stroke-width: 1.5;" x1="320" x2="434" y1="433" y2="433"/><line style="stroke: #000000; stroke-width: 1.5;" x1="434" x2="434" y1="433" y2="467"/><text fill="#000000" font-family="sans-serif" font-size="14" lengthAdjust="spacingAndGlyphs" textLength="84" x="335" y="455.3184">tcp_client_D</text><!--MD5=[12b2eaebdf17e77e725be30ccced4aa4]
link tcp_client_A to tunnel_client_1--><path d="M134,142.134 C134,157.999 134,179.817 134,196.792 " fill="none" id="tcp_client_A-&gt;tunnel_client_1" style="stroke: #A80036; stroke-width: 1.0;"/><polygon fill="#A80036" points="134,201.893,138,192.893,134,196.893,130,192.893,134,201.893" style="stroke: #A80036; stroke-width: 1.0;"/><!--MD5=[423c998453163003a63aac713531df2c]
link tunnel_client_1 to tunnel_server_1--><path d="M134,246.093 C134,265.102 134,293.129 134,313.616 " fill="none" id="tunnel_client_1-&gt;tunnel_server_1" style="stroke: #A80036; stroke-width: 1.0;"/><polygon fill="#A80036" points="134,318.651,138,309.651,134,313.651,130,309.651,134,318.651" style="stroke: #A80036; stroke-width: 1.0;"/><!--MD5=[e0e4ec31367df3a4475c195b13033604]
link tunnel_server_1 to tcp_server_B--><path d="M134,363.134 C134,378.999 134,400.817 134,417.792 " fill="none" id="tunnel_server_1-&gt;tcp_server_B" style="stroke: #A80036; stroke-width: 1.0;"/><polygon fill="#A80036" points="134,422.893,138,413.893,134,417.893,130,413.893,134,422.893" style="stroke: #A80036; stroke-width: 1.0;"/><!--MD5=[06c0a93b74a2c7b5695229074ecf5847]
reverse link tcp_server_C to tunnel_client_2--><path d="M382,147.237 C382,164.218 382,186.035 382,201.893 " fill="none" id="tcp_server_C&lt;-tunnel_client_2" style="stroke: #A80036; stroke-width: 1.0;"/><polygon fill="#A80036" points="382,142.134,378,151.134,382,147.134,386,151.134,382,142.134" style="stroke: #A80036; stroke-width: 1.0;"/><!--MD5=[3cf7737478554a73699cf8e022b3bb78]
link tunnel_client_2 to tunnel_server_2--><path d="M382,246.093 C382,265.102 382,293.129 382,313.616 " fill="none" id="tunnel_client_2-&gt;tunnel_server_2" style="stroke: #A80036; stroke-width: 1.0;"/><polygon fill="#A80036" points="382,318.651,386,309.651,382,313.651,378,309.651,382,318.651" style="stroke: #A80036; stroke-width: 1.0;"/><!--MD5=[902286f1f3d1f8b9c2e5c1706c5d8e42]
reverse link tunnel_server_2 to tcp_client_D--><path d="M382,368.237 C382,385.218 382,407.035 382,422.893 " fill="none" id="tunnel_server_2&lt;-tcp_client_D" style="stroke: #A80036; stroke-width: 1.0;"/><polygon fill="#A80036" points="382,363.134,378,372.134,382,368.134,386,372.134,382,363.134" style="stroke: #A80036; stroke-width: 1.0;"/><!--MD5=[36865cc1bc03f59880197d8110e61db9]
@startuml
frame tunnelの例 {
rectangle network_1 {
node tcp_client_A
node tunnel_client_1
}
rectangle network_2 {
node tunnel_server_1
node tcp_server_B
}
}

tcp_client_A - -> tunnel_client_1
tunnel_client_1 - -> tunnel_server_1
tunnel_server_1 - -> tcp_server_B

frame reverse_tunnelの例 {
rectangle network_A {
node tcp_server_C
node tunnel_client_2
}
rectangle network_B {
node tunnel_server_2
node tcp_client_D
}
}

tcp_server_C <- - tunnel_client_2
tunnel_client_2 - -> tunnel_server_2
tunnel_server_2 <- - tcp_client_D
@enduml

PlantUML version 1.2020.11(Sat May 30 19:13:43 JST 2020)
(GPL source distribution)
Java Runtime: OpenJDK Runtime Environment
JVM: OpenJDK 64-Bit Server VM
Default Encoding: UTF-8
Language: ja
Country: JP
--></g></svg>