<?xml version="1.0" encoding="UTF-8" standalone="yes"?><svg xmlns="http://www.w3.org/2000/svg" xmlns:xlink="http://www.w3.org/1999/xlink" height="630px" style="width:307px;height:630px;" version="1.1" viewBox="0 0 307 630" width="307px"><defs><filter height="300%" id="f1" width="300%" x="-1" y="-1"><feGaussianBlur result="blurOut" stdDeviation="2.0"/><feColorMatrix in="blurOut" result="blurOut2" type="matrix" values="0 0 0 0 0 0 0 0 0 0 0 0 0 0 0 0 0 0 .4 0"/><feOffset dx="4.0" dy="4.0" in="blurOut2" result="blurOut3"/><feBlend in="SourceGraphic" in2="blurOut3" mode="normal"/></filter></defs><g><path d="M25,331 C25,328 27,326 30,326 C33,326 35,328 35,331 C35,328 37,326 40,326 C43,326 45,328 45,331 C45,328 47,326 50,326 C53,326 55,328 55,331 C55,328 57,326 60,326 C63,326 65,328 65,331 C65,328 67,326 70,326 C73,326 75,328 75,331 C75,328 77,326 80,326 C83,326 85,328 85,331 C85,328 87,326 90,326 C93,326 95,328 95,331 C95,328 97,326 100,326 C103,326 105,328 105,331 C105,328 107,326 110,326 C113,326 115,328 115,331 C115,328 117,326 120,326 C123,326 125,328 125,331 C125,328 127,326 130,326 C133,326 135,328 135,331 C135,328 137,326 140,326 C143,326 145,328 145,331 C145,328 147,326 150,326 C153,326 155,328 155,331 C155,328 157,326 160,326 C163,326 165,328 165,331 C165,328 167,326 170,326 C173,326 175,328 175,331 C175,328 177,326 180,326 C183,326 185,328 185,331 C185,328 187,326 190,326 C193,326 195,328 195,331 C195,328 197,326 200,326 C203,326 205,328 205,331 C205,328 207,326 210,326 C213,326 215,328 215,331 C215,328 217,326 220,326 C223,326 225,328 225,331 C225,328 227,326 230,326 C233,326 235,328 235,331 C238,331 240,333 240,336 C240,339 238,341 235,341 C238,341 240,343 240,346 C240,349 238,351 235,351 C238,351 240,353 240,356 C240,359 238,361 235,361 C238,361 240,363 240,366 C240,369 238,371 235,371 C238,371 240,373 240,376 C240,379 238,381 235,381 C238,381 240,383 240,386 C240,389 238,391 235,391 C238,391 240,393 240,396 C240,399 238,401 235,401 C238,401 240,403 240,406 C240,409 238,411 235,411 C238,411 240,413 240,416 C240,419 238,421 235,421 C238,421 240,423 240,426 C240,429 238,431 235,431 C238,431 240,433 240,436 C240,439 238,441 235,441 C238,441 240,443 240,446 C240,449 238,451 235,451 C238,451 240,453 240,456 C240,459 238,461 235,461 C238,461 240,463 240,466 C240,469 238,471 235,471 C238,471 240,473 240,476 C240,479 238,481 235,481 C238,481 240,483 240,486 C240,489 238,491 235,491 C238,491 240,493 240,496 C240,499 238,501 235,501 C235,504 232,506 230,506 C227,506 225,504 225,501 C225,504 222,506 220,506 C217,506 215,504 215,501 C215,504 212,506 210,506 C207,506 205,504 205,501 C205,504 202,506 200,506 C197,506 195,504 195,501 C195,504 192,506 190,506 C187,506 185,504 185,501 C185,504 182,506 180,506 C177,506 175,504 175,501 C175,504 172,506 170,506 C167,506 165,504 165,501 C165,504 162,506 160,506 C157,506 155,504 155,501 C155,504 152,506 150,506 C147,506 145,504 145,501 C145,504 142,506 140,506 C137,506 135,504 135,501 C135,504 132,506 130,506 C127,506 125,504 125,501 C125,504 122,506 120,506 C117,506 115,504 115,501 C115,504 112,506 110,506 C107,506 105,504 105,501 C105,504 102,506 100,506 C97,506 95,504 95,501 C95,504 92,506 90,506 C87,506 85,504 85,501 C85,504 82,506 80,506 C77,506 75,504 75,501 C75,504 72,506 70,506 C67,506 65,504 65,501 C65,504 62,506 60,506 C57,506 55,504 55,501 C55,504 52,506 50,506 C47,506 45,504 45,501 C45,504 42,506 40,506 C37,506 35,504 35,501 C35,504 32,506 30,506 C27,506 25,504 25,501 C22,501 20,499 20,496 C20,493 22,491 25,491 C22,491 20,489 20,486 C20,483 22,481 25,481 C22,481 20,479 20,476 C20,473 22,471 25,471 C22,471 20,469 20,466 C20,463 22,461 25,461 C22,461 20,459 20,456 C20,453 22,451 25,451 C22,451 20,449 20,446 C20,443 22,441 25,441 C22,441 20,439 20,436 C20,433 22,431 25,431 C22,431 20,429 20,426 C20,423 22,421 25,421 C22,421 20,419 20,416 C20,413 22,411 25,411 C22,411 20,409 20,406 C20,403 22,401 25,401 C22,401 20,399 20,396 C20,393 22,391 25,391 C22,391 20,389 20,386 C20,383 22,381 25,381 C22,381 20,379 20,376 C20,373 22,371 25,371 C22,371 20,369 20,366 C20,363 22,361 25,361 C22,361 20,359 20,356 C20,353 22,351 25,351 C22,351 20,349 20,346 C20,343 22,341 25,341 C22,341 20,339 20,336 C20,333 22,331 25,331 " fill="#FFFFFF" filter="url(#f1)" style="stroke: #000000; stroke-width: 2.0;"/><text fill="#000000" font-family="sans-serif" font-size="14" font-weight="bold" lengthAdjust="spacingAndGlyphs" textLength="33" x="111.5" y="349.3184">GCP</text><rect fill="#FFFFFF" filter="url(#f1)" height="93" style="stroke: #000000; stroke-width: 2.0;" width="148" x="152" y="530"/><text fill="#000000" font-family="sans-serif" font-size="14" font-weight="bold" lengthAdjust="spacingAndGlyphs" textLength="15" x="218.5" y="544.3184">家</text><path d="M38.5,461 C38.5,451 75,451 75,451 C75,451 111.5,451 111.5,461 L111.5,480 C111.5,490 75,490 75,490 C75,490 38.5,490 38.5,480 L38.5,461 " fill="#FEFECE" filter="url(#f1)" style="stroke: #000000; stroke-width: 1.5;"/><path d="M38.5,461 C38.5,471 75,471 75,471 C75,471 111.5,471 111.5,461 " fill="none" style="stroke: #000000; stroke-width: 1.5;"/><text fill="#000000" font-family="sans-serif" font-size="14" lengthAdjust="spacingAndGlyphs" textLength="53" x="48.5" y="483.3184">firestore</text><rect fill="#FEFECE" filter="url(#f1)" height="34" style="stroke: #000000; stroke-width: 1.5;" width="122" x="96" y="357"/><text fill="#000000" font-family="sans-serif" font-size="14" lengthAdjust="spacingAndGlyphs" textLength="102" x="106" y="379.3184">CloudFunctions</text><rect fill="#FEFECE" filter="url(#f1)" height="34" style="stroke: #000000; stroke-width: 1.5;" width="71" x="146.5" y="453.5"/><text fill="#000000" font-family="sans-serif" font-size="14" lengthAdjust="spacingAndGlyphs" textLength="51" x="156.5" y="475.8184">PubSub</text><polygon fill="#FEFECE" filter="url(#f1)" points="168.5,573,178.5,563,283.5,563,283.5,597,273.5,607,168.5,607,168.5,573" style="stroke: #000000; stroke-width: 1.5;"/><line style="stroke: #000000; stroke-width: 1.5;" x1="273.5" x2="282.5" y1="573" y2="564"/><line style="stroke: #000000; stroke-width: 1.5;" x1="168.5" x2="273.5" y1="573" y2="573"/><line style="stroke: #000000; stroke-width: 1.5;" x1="273.5" x2="273.5" y1="573" y2="607"/><text fill="#000000" font-family="sans-serif" font-size="14" lengthAdjust="spacingAndGlyphs" textLength="75" x="183.5" y="595.3184">raspberrypi</text><ellipse cx="157" cy="18" fill="#FEFECE" filter="url(#f1)" rx="8" ry="8" style="stroke: #A80036; stroke-width: 2.0;"/><path d="M157,26 L157,53 M144,34 L170,34 M157,53 L144,68 M157,53 L170,68 " fill="#FEFECE" filter="url(#f1)" style="stroke: #A80036; stroke-width: 2.0;"/><text fill="#000000" font-family="sans-serif" font-size="14" lengthAdjust="spacingAndGlyphs" textLength="40" x="137" y="87.3184">ユーザ</text><polygon fill="#FEFECE" filter="url(#f1)" points="117.5,159,127.5,149,196.5,149,196.5,183,186.5,193,117.5,193,117.5,159" style="stroke: #000000; stroke-width: 1.5;"/><line style="stroke: #000000; stroke-width: 1.5;" x1="186.5" x2="195.5" y1="159" y2="150"/><line style="stroke: #000000; stroke-width: 1.5;" x1="117.5" x2="186.5" y1="159" y2="159"/><line style="stroke: #000000; stroke-width: 1.5;" x1="186.5" x2="186.5" y1="159" y2="193"/><text fill="#000000" font-family="sans-serif" font-size="14" lengthAdjust="spacingAndGlyphs" textLength="39" x="132.5" y="181.3184">スマホ</text><polygon fill="#FEFECE" filter="url(#f1)" points="96,263,106,253,218,253,218,287,208,297,96,297,96,263" style="stroke: #000000; stroke-width: 1.5;"/><line style="stroke: #000000; stroke-width: 1.5;" x1="208" x2="217" y1="263" y2="254"/><line style="stroke: #000000; stroke-width: 1.5;" x1="96" x2="208" y1="263" y2="263"/><line style="stroke: #000000; stroke-width: 1.5;" x1="208" x2="208" y1="263" y2="297"/><text fill="#000000" font-family="sans-serif" font-size="14" lengthAdjust="spacingAndGlyphs" textLength="82" x="111" y="285.3184">githubPages</text><path d="M157,89.29 C157,109.17 157,132.423 157,148.85 " fill="none" style="stroke: #A80036; stroke-width: 1.0;"/><path d="M157,193.134 C157,208.999 157,230.817 157,247.792 " fill="none" style="stroke: #A80036; stroke-width: 1.0;"/><polygon fill="#A80036" points="157,252.893,161,243.893,157,247.893,153,243.893,157,252.893" style="stroke: #A80036; stroke-width: 1.0;"/><path d="M157,297.048 C157,313.167 157,335.319 157,351.54 " fill="none" style="stroke: #A80036; stroke-width: 1.0;"/><polygon fill="#A80036" points="157,356.797,161,347.797,157,351.797,153,347.797,157,356.797" style="stroke: #A80036; stroke-width: 1.0;"/><path d="M143.09,391.031 C129.751,406.403 109.488,429.755 94.5326,446.99 " fill="none" style="stroke: #A80036; stroke-width: 1.0;"/><polygon fill="#A80036" points="91.2358,450.789,100.1556,446.6132,94.5129,447.0127,94.1135,441.3699,91.2358,450.789" style="stroke: #A80036; stroke-width: 1.0;"/><path d="M161.241,391.031 C165.407,406.779 171.789,430.902 176.377,448.243 " fill="none" style="stroke: #A80036; stroke-width: 1.0;"/><polygon fill="#A80036" points="177.738,453.391,179.3004,443.6669,176.4579,448.5577,171.5671,445.7151,177.738,453.391" style="stroke: #A80036; stroke-width: 1.0;"/><path d="M188.304,487.619 C195.506,506.032 207.39,536.419 215.89,558.1508 " fill="none" style="stroke: #A80036; stroke-width: 1.0;"/><polygon fill="#A80036" points="217.757,562.9242,218.2043,553.0855,215.9359,558.2676,210.7538,555.9992,217.757,562.9242" style="stroke: #A80036; stroke-width: 1.0;"/><path d="M186.681,394.525 C204.346,408.025 225.177,427.714 235,451 C250.562,487.89 240.981,535.659 233.132,562.7568 " fill="none" style="stroke: #A80036; stroke-width: 1.0;"/><polygon fill="#A80036" points="182.266,391.228,187.0837,399.8181,186.2722,394.2198,191.8705,393.4082,182.266,391.228" style="stroke: #A80036; stroke-width: 1.0;"/></g></svg>