<?xml version="1.0" encoding="UTF-8" standalone="no"?>
<!DOCTYPE svg PUBLIC "-//W3C//DTD SVG 1.1//EN"
 "http://www.w3.org/Graphics/SVG/1.1/DTD/svg11.dtd">
<!-- Generated by graphviz version 2.43.0 (0)
 -->
<!-- Title: G Pages: 1 -->
<svg width="608pt" height="193pt"
 viewBox="0.00 0.00 608.00 193.00" xmlns="http://www.w3.org/2000/svg" xmlns:xlink="http://www.w3.org/1999/xlink">
<g id="graph0" class="graph" transform="scale(1 1) rotate(0) translate(4 189)">
<title>G</title>
<polygon fill="white" stroke="transparent" points="-4,4 -4,-189 604,-189 604,4 -4,4"/>
<g id="clust1" class="cluster">
<title>cluster_browser</title>
<polygon fill="none" stroke="black" stroke-dasharray="5,2" points="8,-46 8,-177 592,-177 592,-46 8,-46"/>
<text text-anchor="middle" x="300" y="-161.8" font-family="Times,serif" font-size="14.00">Web Browser (Firefox)</text>
</g>
<!-- Input -->
<g id="node1" class="node">
<title>Input</title>
<polygon fill="none" stroke="black" points="168,-109 16,-109 16,-73 174,-73 174,-103 168,-109"/>
<polyline fill="none" stroke="black" points="168,-109 168,-103 "/>
<polyline fill="none" stroke="black" points="174,-103 168,-103 "/>
<text text-anchor="middle" x="95" y="-87.3" font-family="sans-serif" font-size="14.00">平文テキスト / 暗号文</text>
</g>
<!-- Ext -->
<g id="node2" class="node">
<title>Ext</title>
<polygon fill="#e1f5fe" stroke="black" points="341,-110 211,-110 211,-72 341,-72 341,-110"/>
<text text-anchor="middle" x="276" y="-94.8" font-family="sans-serif" font-size="14.00">cryptool_webext</text>
<text text-anchor="middle" x="276" y="-79.8" font-family="sans-serif" font-size="14.00">(JavaScript)</text>
</g>
<!-- Input&#45;&gt;Ext -->
<g id="edge1" class="edge">
<title>Input&#45;&gt;Ext</title>
<path fill="none" stroke="black" d="M174.25,-91C183.04,-91 191.98,-91 200.72,-91"/>
<polygon fill="black" stroke="black" points="200.86,-94.5 210.86,-91 200.86,-87.5 200.86,-94.5"/>
</g>
<!-- Crypto -->
<g id="node3" class="node">
<title>Crypto</title>
<polygon fill="none" stroke="black" points="584,-92 459,-92 459,-88 455,-88 455,-84 459,-84 459,-62 455,-62 455,-58 459,-58 459,-54 584,-54 584,-92"/>
<polyline fill="none" stroke="black" points="459,-88 463,-88 463,-84 459,-84 "/>
<polyline fill="none" stroke="black" points="459,-62 463,-62 463,-58 459,-58 "/>
<text text-anchor="middle" x="521.5" y="-76.8" font-family="sans-serif" font-size="14.00">Web Crypto API</text>
<text text-anchor="middle" x="521.5" y="-61.8" font-family="sans-serif" font-size="14.00">(暗号化/復号)</text>
</g>
<!-- Ext&#45;&gt;Crypto -->
<g id="edge2" class="edge">
<title>Ext&#45;&gt;Crypto</title>
<path fill="none" stroke="black" d="M341.24,-75.52C347.22,-74.5 353.2,-73.63 359,-73 388.29,-69.82 420.75,-69.25 448.84,-69.69"/>
<polygon fill="black" stroke="black" points="448.91,-73.19 458.98,-69.89 449.05,-66.19 448.91,-73.19"/>
<text text-anchor="middle" x="395" y="-76.8" font-family="Times,serif" font-size="14.00">鍵・データ</text>
</g>
<!-- Output -->
<g id="node4" class="node">
<title>Output</title>
<polygon fill="none" stroke="black" points="559.5,-146 477.5,-146 477.5,-110 565.5,-110 565.5,-140 559.5,-146"/>
<polyline fill="none" stroke="black" points="559.5,-146 559.5,-140 "/>
<polyline fill="none" stroke="black" points="565.5,-140 559.5,-140 "/>
<text text-anchor="middle" x="521.5" y="-124.3" font-family="sans-serif" font-size="14.00">結果の出力</text>
</g>
<!-- Ext&#45;&gt;Output -->
<g id="edge4" class="edge">
<title>Ext&#45;&gt;Output</title>
<path fill="none" stroke="black" d="M341.31,-106.65C347.28,-107.87 353.24,-109.01 359,-110 394.85,-116.13 435.55,-120.65 467.13,-123.63"/>
<polygon fill="black" stroke="black" points="467.19,-127.15 477.46,-124.58 467.83,-120.18 467.19,-127.15"/>
</g>
<!-- Internet -->
<g id="node5" class="node">
<title>Internet</title>
<polygon fill="none" stroke="black" points="594,-36 449,-36 449,0 594,0 594,-36"/>
<text text-anchor="middle" x="521.5" y="-14.3" font-family="sans-serif" font-size="14.00">外部インターネット</text>
</g>
<!-- Ext&#45;&gt;Internet -->
<g id="edge5" class="edge">
<title>Ext&#45;&gt;Internet</title>
<path fill="none" stroke="red" stroke-dasharray="1,5" d="M310.03,-71.94C324.65,-64.19 342.28,-55.72 359,-50 387.67,-40.19 420.28,-33.02 448.66,-27.98"/>
<text text-anchor="middle" x="395" y="-53.8" font-family="Times,serif" font-size="14.00">通信拒否</text>
</g>
<!-- Crypto&#45;&gt;Ext -->
<g id="edge3" class="edge">
<title>Crypto&#45;&gt;Ext</title>
<path fill="none" stroke="black" d="M458.54,-84.59C449.34,-85.96 439.94,-87.17 431,-88 405.14,-90.41 376.74,-91.42 351.44,-91.75"/>
<polygon fill="black" stroke="black" points="351.15,-88.25 341.18,-91.85 351.21,-95.25 351.15,-88.25"/>
<text text-anchor="middle" x="395" y="-94.8" font-family="Times,serif" font-size="14.00">処理結果</text>
</g>
</g>
</svg>
