<?xml version="1.0" encoding="UTF-8" standalone="no"?>
<!DOCTYPE svg PUBLIC "-//W3C//DTD SVG 1.1//EN"
 "http://www.w3.org/Graphics/SVG/1.1/DTD/svg11.dtd">
<!-- Generated by graphviz version 2.30.1 (20180420.1509)
 -->
<!-- Title: G Pages: 1 -->
<svg width="818pt" height="317pt"
 viewBox="0.00 0.00 818.00 317.00" xmlns="http://www.w3.org/2000/svg" xmlns:xlink="http://www.w3.org/1999/xlink">
<g id="graph0" class="graph" transform="scale(1 1) rotate(0) translate(4 313)">
<title>G</title>
<polygon fill="white" stroke="white" points="-4,5 -4,-313 815,-313 815,5 -4,5"/>
<g id="clust1" class="cluster"><title>clusterA</title>
<path fill="none" stroke="black" d="M20,-8C20,-8 790,-8 790,-8 796,-8 802,-14 802,-20 802,-20 802,-289 802,-289 802,-295 796,-301 790,-301 790,-301 20,-301 20,-301 14,-301 8,-295 8,-289 8,-289 8,-20 8,-20 8,-14 14,-8 20,-8"/>
<text text-anchor="middle" x="405" y="-285.8" font-family="Times,serif" font-size="14.00">thread</text>
</g>
<!-- .lns -->
<g id="node1" class="node"><title>.lns</title>
<ellipse fill="none" stroke="black" cx="50" cy="-175" rx="33.8824" ry="33.8824"/>
<text text-anchor="middle" x="50" y="-171.3" font-family="Times,serif" font-size="14.00">.lns</text>
</g>
<!-- parse -->
<g id="node2" class="node"><title>parse</title>
<polygon fill="#44cc44" stroke="black" points="177.5,-196.5 120.5,-196.5 120.5,-153.5 177.5,-153.5 177.5,-196.5"/>
<text text-anchor="middle" x="149" y="-171.3" font-family="Times,serif" font-size="14.00">parse</text>
</g>
<!-- .lns&#45;&gt;parse -->
<g id="edge1" class="edge"><title>.lns&#45;&gt;parse</title>
<path fill="none" stroke="black" d="M84.1106,-175C92.4605,-175 101.489,-175 110.056,-175"/>
<polygon fill="black" stroke="black" points="110.201,-178.5 120.201,-175 110.201,-171.5 110.201,-178.5"/>
</g>
<!-- token -->
<g id="node3" class="node"><title>token</title>
<polygon fill="none" stroke="black" points="312.29,-161.398 312.29,-188.602 285.76,-207.839 248.24,-207.839 221.71,-188.602 221.71,-161.398 248.24,-142.161 285.76,-142.161 312.29,-161.398"/>
<polygon fill="none" stroke="black" points="316.302,-159.368 316.302,-190.632 287.067,-211.83 246.933,-211.83 217.698,-190.632 217.698,-159.368 246.933,-138.17 287.067,-138.17 316.302,-159.368"/>
<polygon fill="none" stroke="black" points="320.314,-157.338 320.314,-192.662 288.373,-215.822 245.627,-215.822 213.686,-192.662 213.686,-157.338 245.627,-134.178 288.373,-134.178 320.314,-157.338"/>
<text text-anchor="middle" x="267" y="-171.3" font-family="Times,serif" font-size="14.00">token</text>
</g>
<!-- parse&#45;&gt;token -->
<g id="edge2" class="edge"><title>parse&#45;&gt;token</title>
<path fill="none" stroke="black" d="M177.785,-175C185.577,-175 194.378,-175 203.328,-175"/>
<polygon fill="black" stroke="black" points="203.452,-178.5 213.452,-175 203.452,-171.5 203.452,-178.5"/>
</g>
<!-- create_Ast -->
<g id="node4" class="node"><title>create_Ast</title>
<polygon fill="#44cc44" stroke="black" points="442,-196.5 356,-196.5 356,-153.5 442,-153.5 442,-196.5"/>
<text text-anchor="middle" x="399" y="-171.3" font-family="Times,serif" font-size="14.00">create_Ast</text>
</g>
<!-- token&#45;&gt;create_Ast -->
<g id="edge3" class="edge"><title>token&#45;&gt;create_Ast</title>
<path fill="none" stroke="black" d="M320.501,-175C328.726,-175 337.229,-175 345.455,-175"/>
<polygon fill="black" stroke="black" points="345.685,-178.5 355.685,-175 345.685,-171.5 345.685,-178.5"/>
</g>
<!-- AST -->
<g id="node5" class="node"><title>AST</title>
<polygon fill="none" stroke="black" points="561.16,-161.405 561.16,-188.595 537.049,-207.822 502.951,-207.822 478.84,-188.595 478.84,-161.405 502.951,-142.178 537.049,-142.178 561.16,-161.405"/>
<text text-anchor="middle" x="520" y="-171.3" font-family="Times,serif" font-size="14.00">AST</text>
</g>
<!-- create_Ast&#45;&gt;AST -->
<g id="edge4" class="edge"><title>create_Ast&#45;&gt;AST</title>
<path fill="none" stroke="black" d="M442.29,-175C450.837,-175 459.902,-175 468.693,-175"/>
<polygon fill="black" stroke="black" points="468.839,-178.5 478.839,-175 468.839,-171.5 468.839,-178.5"/>
</g>
<!-- convLua -->
<g id="node6" class="node"><title>convLua</title>
<polygon fill="#44cc44" stroke="black" points="674,-166.5 598,-166.5 598,-123.5 674,-123.5 674,-166.5"/>
<text text-anchor="middle" x="636" y="-141.3" font-family="Times,serif" font-size="14.00">convLua</text>
</g>
<!-- AST&#45;&gt;convLua -->
<g id="edge5" class="edge"><title>AST&#45;&gt;convLua</title>
<path fill="none" stroke="black" d="M561.192,-164.423C569.855,-162.143 579.087,-159.714 587.984,-157.373"/>
<polygon fill="black" stroke="black" points="589.059,-160.709 597.839,-154.779 587.277,-153.94 589.059,-160.709"/>
</g>
<!-- convGo -->
<g id="node9" class="node"><title>convGo</title>
<polygon fill="#44cc44" stroke="black" points="671.5,-242.5 600.5,-242.5 600.5,-199.5 671.5,-199.5 671.5,-242.5"/>
<text text-anchor="middle" x="636" y="-217.3" font-family="Times,serif" font-size="14.00">convGo</text>
</g>
<!-- AST&#45;&gt;convGo -->
<g id="edge8" class="edge"><title>AST&#45;&gt;convGo</title>
<path fill="none" stroke="black" d="M558.96,-190.317C569.176,-194.439 580.313,-198.933 590.835,-203.179"/>
<polygon fill="black" stroke="black" points="589.698,-206.494 600.281,-206.991 592.317,-200.003 589.698,-206.494"/>
</g>
<!-- .lua -->
<g id="node7" class="node"><title>.lua</title>
<ellipse fill="none" stroke="black" cx="752" cy="-51" rx="34.7971" ry="34.7971"/>
<text text-anchor="middle" x="752" y="-47.3" font-family="Times,serif" font-size="14.00">.lua</text>
</g>
<!-- convLua&#45;&gt;.lua -->
<g id="edge6" class="edge"><title>convLua&#45;&gt;.lua</title>
<path fill="none" stroke="black" d="M662.868,-123.67C678.789,-110.543 699.383,-93.5615 716.66,-79.3158"/>
<polygon fill="black" stroke="black" points="719.351,-81.6333 724.839,-72.571 714.897,-76.2325 719.351,-81.6333"/>
</g>
<!-- .meta -->
<g id="node8" class="node"><title>.meta</title>
<ellipse fill="none" stroke="black" cx="752" cy="-145" rx="41.9398" ry="41.9398"/>
<text text-anchor="middle" x="752" y="-141.3" font-family="Times,serif" font-size="14.00">.meta</text>
</g>
<!-- convLua&#45;&gt;.meta -->
<g id="edge7" class="edge"><title>convLua&#45;&gt;.meta</title>
<path fill="none" stroke="black" d="M674.013,-145C682.33,-145 691.298,-145 700.072,-145"/>
<polygon fill="black" stroke="black" points="700.232,-148.5 710.232,-145 700.232,-141.5 700.232,-148.5"/>
</g>
<!-- .go -->
<g id="node10" class="node"><title>.go</title>
<ellipse fill="none" stroke="black" cx="752" cy="-237" rx="32.5538" ry="32.5538"/>
<text text-anchor="middle" x="752" y="-233.3" font-family="Times,serif" font-size="14.00">.go</text>
</g>
<!-- convGo&#45;&gt;.go -->
<g id="edge9" class="edge"><title>convGo&#45;&gt;.go</title>
<path fill="none" stroke="black" d="M671.513,-225.844C683.493,-227.525 697.052,-229.428 709.535,-231.18"/>
<polygon fill="black" stroke="black" points="709.319,-234.684 719.709,-232.608 710.292,-227.752 709.319,-234.684"/>
</g>
</g>
</svg>
