<?xml version="1.0" encoding="UTF-8"?>
<!DOCTYPE svg PUBLIC "-//W3C//DTD SVG 1.1//EN" "http://www.w3.org/Graphics/SVG/1.1/DTD/svg11.dtd">
<svg width="160mm" height="90mm" viewBox="0 0 16000 9000" version="1.1" xmlns="http://www.w3.org/2000/svg" xmlns:xlink="http://www.w3.org/1999/xlink" stroke-width="28.222" stroke-linejoin="round" xml:space="preserve">
 <path fill="rgb(255,255,255)" stroke="none" d="M 7991,8990 L -9,8990 -9,-9 15990,-9 15990,8990 7991,8990 Z"/>
 <path fill="none" stroke="rgb(179,179,179)" stroke-linejoin="round" d="M 7120,8165 L 1780,8165 1780,364 12460,364 12460,8165 7120,8165 Z"/>
 <path fill="none" stroke="rgb(179,179,179)" stroke-linejoin="round" d="M 12460,8164 L 1780,8164"/>
 <path fill="none" stroke="rgb(179,179,179)" stroke-linejoin="round" d="M 12460,7049 L 1780,7049"/>
 <path fill="none" stroke="rgb(179,179,179)" stroke-linejoin="round" d="M 12460,5934 L 1780,5934"/>
 <path fill="none" stroke="rgb(179,179,179)" stroke-linejoin="round" d="M 12460,4820 L 1780,4820"/>
 <path fill="none" stroke="rgb(179,179,179)" stroke-linejoin="round" d="M 12460,3706 L 1780,3706"/>
 <path fill="none" stroke="rgb(179,179,179)" stroke-linejoin="round" d="M 12460,2592 L 1780,2592"/>
 <path fill="none" stroke="rgb(179,179,179)" stroke-linejoin="round" d="M 12460,1477 L 1780,1477"/>
 <path fill="none" stroke="rgb(179,179,179)" stroke-linejoin="round" d="M 12460,363 L 1780,363"/>
 <path fill="none" stroke="rgb(179,179,179)" stroke-linejoin="round" d="M 1780,8314 L 1780,8164"/>
 <path fill="none" stroke="rgb(179,179,179)" stroke-linejoin="round" d="M 1780,8314 L 1780,8164"/>
 <path fill="none" stroke="rgb(179,179,179)" stroke-linejoin="round" d="M 3560,8314 L 3560,8164"/>
 <path fill="none" stroke="rgb(179,179,179)" stroke-linejoin="round" d="M 3560,8314 L 3560,8164"/>
 <path fill="none" stroke="rgb(179,179,179)" stroke-linejoin="round" d="M 5340,8314 L 5340,8164"/>
 <path fill="none" stroke="rgb(179,179,179)" stroke-linejoin="round" d="M 5340,8314 L 5340,8164"/>
 <path fill="none" stroke="rgb(179,179,179)" stroke-linejoin="round" d="M 7120,8314 L 7120,8164"/>
 <path fill="none" stroke="rgb(179,179,179)" stroke-linejoin="round" d="M 7120,8314 L 7120,8164"/>
 <path fill="none" stroke="rgb(179,179,179)" stroke-linejoin="round" d="M 8899,8314 L 8899,8164"/>
 <path fill="none" stroke="rgb(179,179,179)" stroke-linejoin="round" d="M 8899,8314 L 8899,8164"/>
 <path fill="none" stroke="rgb(179,179,179)" stroke-linejoin="round" d="M 10679,8314 L 10679,8164"/>
 <path fill="none" stroke="rgb(179,179,179)" stroke-linejoin="round" d="M 10679,8314 L 10679,8164"/>
 <path fill="none" stroke="rgb(179,179,179)" stroke-linejoin="round" d="M 12460,8314 L 12460,8164"/>
 <path fill="none" stroke="rgb(179,179,179)" stroke-linejoin="round" d="M 12460,8314 L 12460,8164"/>
 <path fill="none" stroke="rgb(179,179,179)" stroke-linejoin="round" d="M 1780,8164 L 12460,8164"/>
 <path fill="none" stroke="rgb(179,179,179)" stroke-linejoin="round" d="M 1630,8164 L 1780,8164"/>
 <path fill="none" stroke="rgb(179,179,179)" stroke-linejoin="round" d="M 1630,8164 L 1780,8164"/>
 <path fill="none" stroke="rgb(179,179,179)" stroke-linejoin="round" d="M 1630,7049 L 1780,7049"/>
 <path fill="none" stroke="rgb(179,179,179)" stroke-linejoin="round" d="M 1630,7049 L 1780,7049"/>
 <path fill="none" stroke="rgb(179,179,179)" stroke-linejoin="round" d="M 1630,5934 L 1780,5934"/>
 <path fill="none" stroke="rgb(179,179,179)" stroke-linejoin="round" d="M 1630,5934 L 1780,5934"/>
 <path fill="none" stroke="rgb(179,179,179)" stroke-linejoin="round" d="M 1630,4820 L 1780,4820"/>
 <path fill="none" stroke="rgb(179,179,179)" stroke-linejoin="round" d="M 1630,4820 L 1780,4820"/>
 <path fill="none" stroke="rgb(179,179,179)" stroke-linejoin="round" d="M 1630,3706 L 1780,3706"/>
 <path fill="none" stroke="rgb(179,179,179)" stroke-linejoin="round" d="M 1630,3706 L 1780,3706"/>
 <path fill="none" stroke="rgb(179,179,179)" stroke-linejoin="round" d="M 1630,2592 L 1780,2592"/>
 <path fill="none" stroke="rgb(179,179,179)" stroke-linejoin="round" d="M 1630,2592 L 1780,2592"/>
 <path fill="none" stroke="rgb(179,179,179)" stroke-linejoin="round" d="M 1630,1477 L 1780,1477"/>
 <path fill="none" stroke="rgb(179,179,179)" stroke-linejoin="round" d="M 1630,1477 L 1780,1477"/>
 <path fill="none" stroke="rgb(179,179,179)" stroke-linejoin="round" d="M 1630,363 L 1780,363"/>
 <path fill="none" stroke="rgb(179,179,179)" stroke-linejoin="round" d="M 1630,363 L 1780,363"/>
 <path fill="none" stroke="rgb(179,179,179)" stroke-linejoin="round" d="M 1780,8164 L 1780,363"/>
 <path fill="none" stroke="rgb(179,179,179)" stroke-linejoin="round" d="M 12610,8164 L 12460,8164"/>
 <path fill="none" stroke="rgb(179,179,179)" stroke-linejoin="round" d="M 12610,8164 L 12460,8164"/>
 <path fill="none" stroke="rgb(179,179,179)" stroke-linejoin="round" d="M 12610,7049 L 12460,7049"/>
 <path fill="none" stroke="rgb(179,179,179)" stroke-linejoin="round" d="M 12610,7049 L 12460,7049"/>
 <path fill="none" stroke="rgb(179,179,179)" stroke-linejoin="round" d="M 12610,5934 L 12460,5934"/>
 <path fill="none" stroke="rgb(179,179,179)" stroke-linejoin="round" d="M 12610,5934 L 12460,5934"/>
 <path fill="none" stroke="rgb(179,179,179)" stroke-linejoin="round" d="M 12610,4820 L 12460,4820"/>
 <path fill="none" stroke="rgb(179,179,179)" stroke-linejoin="round" d="M 12610,4820 L 12460,4820"/>
 <path fill="none" stroke="rgb(179,179,179)" stroke-linejoin="round" d="M 12610,3706 L 12460,3706"/>
 <path fill="none" stroke="rgb(179,179,179)" stroke-linejoin="round" d="M 12610,3706 L 12460,3706"/>
 <path fill="none" stroke="rgb(179,179,179)" stroke-linejoin="round" d="M 12610,2592 L 12460,2592"/>
 <path fill="none" stroke="rgb(179,179,179)" stroke-linejoin="round" d="M 12610,2592 L 12460,2592"/>
 <path fill="none" stroke="rgb(179,179,179)" stroke-linejoin="round" d="M 12610,1477 L 12460,1477"/>
 <path fill="none" stroke="rgb(179,179,179)" stroke-linejoin="round" d="M 12610,1477 L 12460,1477"/>
 <path fill="none" stroke="rgb(179,179,179)" stroke-linejoin="round" d="M 12610,363 L 12460,363"/>
 <path fill="none" stroke="rgb(179,179,179)" stroke-linejoin="round" d="M 12610,363 L 12460,363"/>
 <path fill="none" stroke="rgb(179,179,179)" stroke-linejoin="round" d="M 12460,8164 L 12460,363"/>
 <path fill="none" stroke="rgb(255,211,32)" stroke-width="80" stroke-linejoin="round" d="M 1780,8030 L 1815,7896 1886,8164 1886,7829 1922,8164 1922,7584 1922,7573 1958,8141 1993,8164 1993,8130 1993,8164 1993,8085 1993,8164 1993,7963 1993,7941 2029,7550 2029,7539 2456,7305 2919,7116 3204,6971 3453,6715 3560,6625 4272,6313 5055,5968 5553,5700 6016,5332 6764,5043 6906,4864 7903,4552 8401,4319 8686,4107 9184,3885 10466,3494 10466,3428 10501,3227 10537,3115 10537,2937 10573,2803 10608,2636 10715,2525"/>
 <path fill="rgb(255,211,32)" stroke="none" d="M 1655,7905 L 1780,8155 1905,7905 1655,7905 Z"/>
 <path fill="none" stroke="rgb(255,211,32)" stroke-linejoin="round" d="M 1655,7905 L 1780,8155 1905,7905 1655,7905 Z"/>
 <path fill="rgb(255,211,32)" stroke="none" d="M 1690,7771 L 1815,8021 1940,7771 1690,7771 Z"/>
 <path fill="none" stroke="rgb(255,211,32)" stroke-linejoin="round" d="M 1690,7771 L 1815,8021 1940,7771 1690,7771 Z"/>
 <path fill="rgb(255,211,32)" stroke="none" d="M 1761,8039 L 1886,8289 2011,8039 1761,8039 Z"/>
 <path fill="none" stroke="rgb(255,211,32)" stroke-linejoin="round" d="M 1761,8039 L 1886,8289 2011,8039 1761,8039 Z"/>
 <path fill="rgb(255,211,32)" stroke="none" d="M 1761,7704 L 1886,7954 2011,7704 1761,7704 Z"/>
 <path fill="none" stroke="rgb(255,211,32)" stroke-linejoin="round" d="M 1761,7704 L 1886,7954 2011,7704 1761,7704 Z"/>
 <path fill="rgb(255,211,32)" stroke="none" d="M 1797,8039 L 1922,8289 2047,8039 1797,8039 Z"/>
 <path fill="none" stroke="rgb(255,211,32)" stroke-linejoin="round" d="M 1797,8039 L 1922,8289 2047,8039 1797,8039 Z"/>
 <path fill="rgb(255,211,32)" stroke="none" d="M 1797,7459 L 1922,7709 2047,7459 1797,7459 Z"/>
 <path fill="none" stroke="rgb(255,211,32)" stroke-linejoin="round" d="M 1797,7459 L 1922,7709 2047,7459 1797,7459 Z"/>
 <path fill="rgb(255,211,32)" stroke="none" d="M 1797,7448 L 1922,7698 2047,7448 1797,7448 Z"/>
 <path fill="none" stroke="rgb(255,211,32)" stroke-linejoin="round" d="M 1797,7448 L 1922,7698 2047,7448 1797,7448 Z"/>
 <path fill="rgb(255,211,32)" stroke="none" d="M 1833,8016 L 1958,8266 2083,8016 1833,8016 Z"/>
 <path fill="none" stroke="rgb(255,211,32)" stroke-linejoin="round" d="M 1833,8016 L 1958,8266 2083,8016 1833,8016 Z"/>
 <path fill="rgb(255,211,32)" stroke="none" d="M 1868,8039 L 1993,8289 2118,8039 1868,8039 Z"/>
 <path fill="none" stroke="rgb(255,211,32)" stroke-linejoin="round" d="M 1868,8039 L 1993,8289 2118,8039 1868,8039 Z"/>
 <path fill="rgb(255,211,32)" stroke="none" d="M 1868,8005 L 1993,8255 2118,8005 1868,8005 Z"/>
 <path fill="none" stroke="rgb(255,211,32)" stroke-linejoin="round" d="M 1868,8005 L 1993,8255 2118,8005 1868,8005 Z"/>
 <path fill="rgb(255,211,32)" stroke="none" d="M 1868,8039 L 1993,8289 2118,8039 1868,8039 Z"/>
 <path fill="none" stroke="rgb(255,211,32)" stroke-linejoin="round" d="M 1868,8039 L 1993,8289 2118,8039 1868,8039 Z"/>
 <path fill="rgb(255,211,32)" stroke="none" d="M 1868,7960 L 1993,8210 2118,7960 1868,7960 Z"/>
 <path fill="none" stroke="rgb(255,211,32)" stroke-linejoin="round" d="M 1868,7960 L 1993,8210 2118,7960 1868,7960 Z"/>
 <path fill="rgb(255,211,32)" stroke="none" d="M 1868,8039 L 1993,8289 2118,8039 1868,8039 Z"/>
 <path fill="none" stroke="rgb(255,211,32)" stroke-linejoin="round" d="M 1868,8039 L 1993,8289 2118,8039 1868,8039 Z"/>
 <path fill="rgb(255,211,32)" stroke="none" d="M 1868,7838 L 1993,8088 2118,7838 1868,7838 Z"/>
 <path fill="none" stroke="rgb(255,211,32)" stroke-linejoin="round" d="M 1868,7838 L 1993,8088 2118,7838 1868,7838 Z"/>
 <path fill="rgb(255,211,32)" stroke="none" d="M 1868,7816 L 1993,8066 2118,7816 1868,7816 Z"/>
 <path fill="none" stroke="rgb(255,211,32)" stroke-linejoin="round" d="M 1868,7816 L 1993,8066 2118,7816 1868,7816 Z"/>
 <path fill="rgb(255,211,32)" stroke="none" d="M 1904,7425 L 2029,7675 2154,7425 1904,7425 Z"/>
 <path fill="none" stroke="rgb(255,211,32)" stroke-linejoin="round" d="M 1904,7425 L 2029,7675 2154,7425 1904,7425 Z"/>
 <path fill="rgb(255,211,32)" stroke="none" d="M 1904,7414 L 2029,7664 2154,7414 1904,7414 Z"/>
 <path fill="none" stroke="rgb(255,211,32)" stroke-linejoin="round" d="M 1904,7414 L 2029,7664 2154,7414 1904,7414 Z"/>
 <path fill="rgb(255,211,32)" stroke="none" d="M 2331,7180 L 2456,7430 2581,7180 2331,7180 Z"/>
 <path fill="none" stroke="rgb(255,211,32)" stroke-linejoin="round" d="M 2331,7180 L 2456,7430 2581,7180 2331,7180 Z"/>
 <path fill="rgb(255,211,32)" stroke="none" d="M 2794,6991 L 2919,7241 3044,6991 2794,6991 Z"/>
 <path fill="none" stroke="rgb(255,211,32)" stroke-linejoin="round" d="M 2794,6991 L 2919,7241 3044,6991 2794,6991 Z"/>
 <path fill="rgb(255,211,32)" stroke="none" d="M 3079,6846 L 3204,7096 3329,6846 3079,6846 Z"/>
 <path fill="none" stroke="rgb(255,211,32)" stroke-linejoin="round" d="M 3079,6846 L 3204,7096 3329,6846 3079,6846 Z"/>
 <path fill="rgb(255,211,32)" stroke="none" d="M 3328,6590 L 3453,6840 3578,6590 3328,6590 Z"/>
 <path fill="none" stroke="rgb(255,211,32)" stroke-linejoin="round" d="M 3328,6590 L 3453,6840 3578,6590 3328,6590 Z"/>
 <path fill="rgb(255,211,32)" stroke="none" d="M 3435,6500 L 3560,6750 3685,6500 3435,6500 Z"/>
 <path fill="none" stroke="rgb(255,211,32)" stroke-linejoin="round" d="M 3435,6500 L 3560,6750 3685,6500 3435,6500 Z"/>
 <path fill="rgb(255,211,32)" stroke="none" d="M 4147,6188 L 4272,6438 4397,6188 4147,6188 Z"/>
 <path fill="none" stroke="rgb(255,211,32)" stroke-linejoin="round" d="M 4147,6188 L 4272,6438 4397,6188 4147,6188 Z"/>
 <path fill="rgb(255,211,32)" stroke="none" d="M 4930,5843 L 5055,6093 5180,5843 4930,5843 Z"/>
 <path fill="none" stroke="rgb(255,211,32)" stroke-linejoin="round" d="M 4930,5843 L 5055,6093 5180,5843 4930,5843 Z"/>
 <path fill="rgb(255,211,32)" stroke="none" d="M 5428,5575 L 5553,5825 5678,5575 5428,5575 Z"/>
 <path fill="none" stroke="rgb(255,211,32)" stroke-linejoin="round" d="M 5428,5575 L 5553,5825 5678,5575 5428,5575 Z"/>
 <path fill="rgb(255,211,32)" stroke="none" d="M 5891,5207 L 6016,5457 6141,5207 5891,5207 Z"/>
 <path fill="none" stroke="rgb(255,211,32)" stroke-linejoin="round" d="M 5891,5207 L 6016,5457 6141,5207 5891,5207 Z"/>
 <path fill="rgb(255,211,32)" stroke="none" d="M 6639,4918 L 6764,5168 6889,4918 6639,4918 Z"/>
 <path fill="none" stroke="rgb(255,211,32)" stroke-linejoin="round" d="M 6639,4918 L 6764,5168 6889,4918 6639,4918 Z"/>
 <path fill="rgb(255,211,32)" stroke="none" d="M 6781,4739 L 6906,4989 7031,4739 6781,4739 Z"/>
 <path fill="none" stroke="rgb(255,211,32)" stroke-linejoin="round" d="M 6781,4739 L 6906,4989 7031,4739 6781,4739 Z"/>
 <path fill="rgb(255,211,32)" stroke="none" d="M 7778,4428 L 7903,4677 8027,4428 7778,4428 Z"/>
 <path fill="none" stroke="rgb(255,211,32)" stroke-linejoin="round" d="M 7778,4428 L 7903,4677 8027,4428 7778,4428 Z"/>
 <path fill="rgb(255,211,32)" stroke="none" d="M 8276,4194 L 8401,4444 8526,4194 8276,4194 Z"/>
 <path fill="none" stroke="rgb(255,211,32)" stroke-linejoin="round" d="M 8276,4194 L 8401,4444 8526,4194 8276,4194 Z"/>
 <path fill="rgb(255,211,32)" stroke="none" d="M 8561,3982 L 8686,4232 8811,3982 8561,3982 Z"/>
 <path fill="none" stroke="rgb(255,211,32)" stroke-linejoin="round" d="M 8561,3982 L 8686,4232 8811,3982 8561,3982 Z"/>
 <path fill="rgb(255,211,32)" stroke="none" d="M 9059,3760 L 9184,4010 9309,3760 9059,3760 Z"/>
 <path fill="none" stroke="rgb(255,211,32)" stroke-linejoin="round" d="M 9059,3760 L 9184,4010 9309,3760 9059,3760 Z"/>
 <path fill="rgb(255,211,32)" stroke="none" d="M 10341,3369 L 10466,3619 10591,3369 10341,3369 Z"/>
 <path fill="none" stroke="rgb(255,211,32)" stroke-linejoin="round" d="M 10341,3369 L 10466,3619 10591,3369 10341,3369 Z"/>
 <path fill="rgb(255,211,32)" stroke="none" d="M 10341,3303 L 10466,3553 10591,3303 10341,3303 Z"/>
 <path fill="none" stroke="rgb(255,211,32)" stroke-linejoin="round" d="M 10341,3303 L 10466,3553 10591,3303 10341,3303 Z"/>
 <path fill="rgb(255,211,32)" stroke="none" d="M 10376,3102 L 10501,3352 10626,3102 10376,3102 Z"/>
 <path fill="none" stroke="rgb(255,211,32)" stroke-linejoin="round" d="M 10376,3102 L 10501,3352 10626,3102 10376,3102 Z"/>
 <path fill="rgb(255,211,32)" stroke="none" d="M 10412,2990 L 10537,3240 10662,2990 10412,2990 Z"/>
 <path fill="none" stroke="rgb(255,211,32)" stroke-linejoin="round" d="M 10412,2990 L 10537,3240 10662,2990 10412,2990 Z"/>
 <path fill="rgb(255,211,32)" stroke="none" d="M 10412,2812 L 10537,3062 10662,2812 10412,2812 Z"/>
 <path fill="none" stroke="rgb(255,211,32)" stroke-linejoin="round" d="M 10412,2812 L 10537,3062 10662,2812 10412,2812 Z"/>
 <path fill="rgb(255,211,32)" stroke="none" d="M 10448,2678 L 10573,2928 10698,2678 10448,2678 Z"/>
 <path fill="none" stroke="rgb(255,211,32)" stroke-linejoin="round" d="M 10448,2678 L 10573,2928 10698,2678 10448,2678 Z"/>
 <path fill="rgb(255,211,32)" stroke="none" d="M 10483,2511 L 10608,2761 10733,2511 10483,2511 Z"/>
 <path fill="none" stroke="rgb(255,211,32)" stroke-linejoin="round" d="M 10483,2511 L 10608,2761 10733,2511 10483,2511 Z"/>
 <path fill="rgb(255,211,32)" stroke="none" d="M 10590,2400 L 10715,2650 10840,2400 10590,2400 Z"/>
 <path fill="none" stroke="rgb(255,211,32)" stroke-linejoin="round" d="M 10590,2400 L 10715,2650 10840,2400 10590,2400 Z"/>
 <path fill="none" stroke="rgb(0,69,134)" stroke-width="80" stroke-linejoin="round" d="M 1780,7941 L 1815,7715 1886,7292 1886,7272 1922,7018 1922,7147 1922,6895 1958,6826 1993,6590 1993,6639 1993,6574 1993,6735 1993,6570 1993,6779 1993,6567 2029,6888 2029,6362 2456,6144 2919,5914 3204,5707 3453,5451 3560,5228 4272,5038 5055,4802 5553,4583 6016,4366 6764,4145 6906,3914 7903,3704 8401,3474 8686,3260 9184,3006 10466,2810 10466,2540 10501,2355 10537,2110 10537,1843 10573,1593 10608,1359 10715,960"/>
 <path fill="rgb(0,69,134)" stroke="none" d="M 1655,7816 L 1655,8066 1905,8066 1905,7816 1655,7816 Z"/>
 <path fill="none" stroke="rgb(0,69,134)" stroke-linejoin="round" d="M 1655,7816 L 1655,8066 1905,8066 1905,7816 1655,7816 Z"/>
 <path fill="rgb(0,69,134)" stroke="none" d="M 1690,7590 L 1690,7840 1940,7840 1940,7590 1690,7590 Z"/>
 <path fill="none" stroke="rgb(0,69,134)" stroke-linejoin="round" d="M 1690,7590 L 1690,7840 1940,7840 1940,7590 1690,7590 Z"/>
 <path fill="rgb(0,69,134)" stroke="none" d="M 1761,7167 L 1761,7417 2011,7417 2011,7167 1761,7167 Z"/>
 <path fill="none" stroke="rgb(0,69,134)" stroke-linejoin="round" d="M 1761,7167 L 1761,7417 2011,7417 2011,7167 1761,7167 Z"/>
 <path fill="rgb(0,69,134)" stroke="none" d="M 1761,7147 L 1761,7397 2011,7397 2011,7147 1761,7147 Z"/>
 <path fill="none" stroke="rgb(0,69,134)" stroke-linejoin="round" d="M 1761,7147 L 1761,7397 2011,7397 2011,7147 1761,7147 Z"/>
 <path fill="rgb(0,69,134)" stroke="none" d="M 1797,6893 L 1797,7143 2047,7143 2047,6893 1797,6893 Z"/>
 <path fill="none" stroke="rgb(0,69,134)" stroke-linejoin="round" d="M 1797,6893 L 1797,7143 2047,7143 2047,6893 1797,6893 Z"/>
 <path fill="rgb(0,69,134)" stroke="none" d="M 1797,7022 L 1797,7272 2047,7272 2047,7022 1797,7022 Z"/>
 <path fill="none" stroke="rgb(0,69,134)" stroke-linejoin="round" d="M 1797,7022 L 1797,7272 2047,7272 2047,7022 1797,7022 Z"/>
 <path fill="rgb(0,69,134)" stroke="none" d="M 1797,6770 L 1797,7020 2047,7020 2047,6770 1797,6770 Z"/>
 <path fill="none" stroke="rgb(0,69,134)" stroke-linejoin="round" d="M 1797,6770 L 1797,7020 2047,7020 2047,6770 1797,6770 Z"/>
 <path fill="rgb(0,69,134)" stroke="none" d="M 1833,6701 L 1833,6951 2083,6951 2083,6701 1833,6701 Z"/>
 <path fill="none" stroke="rgb(0,69,134)" stroke-linejoin="round" d="M 1833,6701 L 1833,6951 2083,6951 2083,6701 1833,6701 Z"/>
 <path fill="rgb(0,69,134)" stroke="none" d="M 1868,6465 L 1868,6715 2118,6715 2118,6465 1868,6465 Z"/>
 <path fill="none" stroke="rgb(0,69,134)" stroke-linejoin="round" d="M 1868,6465 L 1868,6715 2118,6715 2118,6465 1868,6465 Z"/>
 <path fill="rgb(0,69,134)" stroke="none" d="M 1868,6514 L 1868,6764 2118,6764 2118,6514 1868,6514 Z"/>
 <path fill="none" stroke="rgb(0,69,134)" stroke-linejoin="round" d="M 1868,6514 L 1868,6764 2118,6764 2118,6514 1868,6514 Z"/>
 <path fill="rgb(0,69,134)" stroke="none" d="M 1868,6449 L 1868,6699 2118,6699 2118,6449 1868,6449 Z"/>
 <path fill="none" stroke="rgb(0,69,134)" stroke-linejoin="round" d="M 1868,6449 L 1868,6699 2118,6699 2118,6449 1868,6449 Z"/>
 <path fill="rgb(0,69,134)" stroke="none" d="M 1868,6610 L 1868,6860 2118,6860 2118,6610 1868,6610 Z"/>
 <path fill="none" stroke="rgb(0,69,134)" stroke-linejoin="round" d="M 1868,6610 L 1868,6860 2118,6860 2118,6610 1868,6610 Z"/>
 <path fill="rgb(0,69,134)" stroke="none" d="M 1868,6445 L 1868,6695 2118,6695 2118,6445 1868,6445 Z"/>
 <path fill="none" stroke="rgb(0,69,134)" stroke-linejoin="round" d="M 1868,6445 L 1868,6695 2118,6695 2118,6445 1868,6445 Z"/>
 <path fill="rgb(0,69,134)" stroke="none" d="M 1868,6654 L 1868,6904 2118,6904 2118,6654 1868,6654 Z"/>
 <path fill="none" stroke="rgb(0,69,134)" stroke-linejoin="round" d="M 1868,6654 L 1868,6904 2118,6904 2118,6654 1868,6654 Z"/>
 <path fill="rgb(0,69,134)" stroke="none" d="M 1868,6442 L 1868,6692 2118,6692 2118,6442 1868,6442 Z"/>
 <path fill="none" stroke="rgb(0,69,134)" stroke-linejoin="round" d="M 1868,6442 L 1868,6692 2118,6692 2118,6442 1868,6442 Z"/>
 <path fill="rgb(0,69,134)" stroke="none" d="M 1904,6763 L 1904,7013 2154,7013 2154,6763 1904,6763 Z"/>
 <path fill="none" stroke="rgb(0,69,134)" stroke-linejoin="round" d="M 1904,6763 L 1904,7013 2154,7013 2154,6763 1904,6763 Z"/>
 <path fill="rgb(0,69,134)" stroke="none" d="M 1904,6237 L 1904,6487 2154,6487 2154,6237 1904,6237 Z"/>
 <path fill="none" stroke="rgb(0,69,134)" stroke-linejoin="round" d="M 1904,6237 L 1904,6487 2154,6487 2154,6237 1904,6237 Z"/>
 <path fill="rgb(0,69,134)" stroke="none" d="M 2331,6019 L 2331,6269 2581,6269 2581,6019 2331,6019 Z"/>
 <path fill="none" stroke="rgb(0,69,134)" stroke-linejoin="round" d="M 2331,6019 L 2331,6269 2581,6269 2581,6019 2331,6019 Z"/>
 <path fill="rgb(0,69,134)" stroke="none" d="M 2794,5789 L 2794,6039 3044,6039 3044,5789 2794,5789 Z"/>
 <path fill="none" stroke="rgb(0,69,134)" stroke-linejoin="round" d="M 2794,5789 L 2794,6039 3044,6039 3044,5789 2794,5789 Z"/>
 <path fill="rgb(0,69,134)" stroke="none" d="M 3079,5582 L 3079,5832 3329,5832 3329,5582 3079,5582 Z"/>
 <path fill="none" stroke="rgb(0,69,134)" stroke-linejoin="round" d="M 3079,5582 L 3079,5832 3329,5832 3329,5582 3079,5582 Z"/>
 <path fill="rgb(0,69,134)" stroke="none" d="M 3328,5326 L 3328,5576 3578,5576 3578,5326 3328,5326 Z"/>
 <path fill="none" stroke="rgb(0,69,134)" stroke-linejoin="round" d="M 3328,5326 L 3328,5576 3578,5576 3578,5326 3328,5326 Z"/>
 <path fill="rgb(0,69,134)" stroke="none" d="M 3435,5103 L 3435,5353 3685,5353 3685,5103 3435,5103 Z"/>
 <path fill="none" stroke="rgb(0,69,134)" stroke-linejoin="round" d="M 3435,5103 L 3435,5353 3685,5353 3685,5103 3435,5103 Z"/>
 <path fill="rgb(0,69,134)" stroke="none" d="M 4147,4913 L 4147,5163 4397,5163 4397,4913 4147,4913 Z"/>
 <path fill="none" stroke="rgb(0,69,134)" stroke-linejoin="round" d="M 4147,4913 L 4147,5163 4397,5163 4397,4913 4147,4913 Z"/>
 <path fill="rgb(0,69,134)" stroke="none" d="M 4930,4677 L 4930,4927 5180,4927 5180,4677 4930,4677 Z"/>
 <path fill="none" stroke="rgb(0,69,134)" stroke-linejoin="round" d="M 4930,4677 L 4930,4927 5180,4927 5180,4677 4930,4677 Z"/>
 <path fill="rgb(0,69,134)" stroke="none" d="M 5428,4459 L 5428,4708 5678,4708 5678,4459 5428,4459 Z"/>
 <path fill="none" stroke="rgb(0,69,134)" stroke-linejoin="round" d="M 5428,4459 L 5428,4708 5678,4708 5678,4459 5428,4459 Z"/>
 <path fill="rgb(0,69,134)" stroke="none" d="M 5891,4241 L 5891,4491 6141,4491 6141,4241 5891,4241 Z"/>
 <path fill="none" stroke="rgb(0,69,134)" stroke-linejoin="round" d="M 5891,4241 L 5891,4491 6141,4491 6141,4241 5891,4241 Z"/>
 <path fill="rgb(0,69,134)" stroke="none" d="M 6639,4020 L 6639,4270 6889,4270 6889,4020 6639,4020 Z"/>
 <path fill="none" stroke="rgb(0,69,134)" stroke-linejoin="round" d="M 6639,4020 L 6639,4270 6889,4270 6889,4020 6639,4020 Z"/>
 <path fill="rgb(0,69,134)" stroke="none" d="M 6781,3789 L 6781,4039 7031,4039 7031,3789 6781,3789 Z"/>
 <path fill="none" stroke="rgb(0,69,134)" stroke-linejoin="round" d="M 6781,3789 L 6781,4039 7031,4039 7031,3789 6781,3789 Z"/>
 <path fill="rgb(0,69,134)" stroke="none" d="M 7778,3579 L 7778,3829 8027,3829 8027,3579 7778,3579 Z"/>
 <path fill="none" stroke="rgb(0,69,134)" stroke-linejoin="round" d="M 7778,3579 L 7778,3829 8027,3829 8027,3579 7778,3579 Z"/>
 <path fill="rgb(0,69,134)" stroke="none" d="M 8276,3349 L 8276,3599 8526,3599 8526,3349 8276,3349 Z"/>
 <path fill="none" stroke="rgb(0,69,134)" stroke-linejoin="round" d="M 8276,3349 L 8276,3599 8526,3599 8526,3349 8276,3349 Z"/>
 <path fill="rgb(0,69,134)" stroke="none" d="M 8561,3135 L 8561,3385 8811,3385 8811,3135 8561,3135 Z"/>
 <path fill="none" stroke="rgb(0,69,134)" stroke-linejoin="round" d="M 8561,3135 L 8561,3385 8811,3385 8811,3135 8561,3135 Z"/>
 <path fill="rgb(0,69,134)" stroke="none" d="M 9059,2881 L 9059,3131 9309,3131 9309,2881 9059,2881 Z"/>
 <path fill="none" stroke="rgb(0,69,134)" stroke-linejoin="round" d="M 9059,2881 L 9059,3131 9309,3131 9309,2881 9059,2881 Z"/>
 <path fill="rgb(0,69,134)" stroke="none" d="M 10341,2685 L 10341,2935 10591,2935 10591,2685 10341,2685 Z"/>
 <path fill="none" stroke="rgb(0,69,134)" stroke-linejoin="round" d="M 10341,2685 L 10341,2935 10591,2935 10591,2685 10341,2685 Z"/>
 <path fill="rgb(0,69,134)" stroke="none" d="M 10341,2415 L 10341,2665 10591,2665 10591,2415 10341,2415 Z"/>
 <path fill="none" stroke="rgb(0,69,134)" stroke-linejoin="round" d="M 10341,2415 L 10341,2665 10591,2665 10591,2415 10341,2415 Z"/>
 <path fill="rgb(0,69,134)" stroke="none" d="M 10376,2230 L 10376,2480 10626,2480 10626,2230 10376,2230 Z"/>
 <path fill="none" stroke="rgb(0,69,134)" stroke-linejoin="round" d="M 10376,2230 L 10376,2480 10626,2480 10626,2230 10376,2230 Z"/>
 <path fill="rgb(0,69,134)" stroke="none" d="M 10412,1985 L 10412,2235 10662,2235 10662,1985 10412,1985 Z"/>
 <path fill="none" stroke="rgb(0,69,134)" stroke-linejoin="round" d="M 10412,1985 L 10412,2235 10662,2235 10662,1985 10412,1985 Z"/>
 <path fill="rgb(0,69,134)" stroke="none" d="M 10412,1718 L 10412,1968 10662,1968 10662,1718 10412,1718 Z"/>
 <path fill="none" stroke="rgb(0,69,134)" stroke-linejoin="round" d="M 10412,1718 L 10412,1968 10662,1968 10662,1718 10412,1718 Z"/>
 <path fill="rgb(0,69,134)" stroke="none" d="M 10448,1468 L 10448,1718 10698,1718 10698,1468 10448,1468 Z"/>
 <path fill="none" stroke="rgb(0,69,134)" stroke-linejoin="round" d="M 10448,1468 L 10448,1718 10698,1718 10698,1468 10448,1468 Z"/>
 <path fill="rgb(0,69,134)" stroke="none" d="M 10483,1234 L 10483,1484 10733,1484 10733,1234 10483,1234 Z"/>
 <path fill="none" stroke="rgb(0,69,134)" stroke-linejoin="round" d="M 10483,1234 L 10483,1484 10733,1484 10733,1234 10483,1234 Z"/>
 <path fill="rgb(0,69,134)" stroke="none" d="M 10590,835 L 10590,1085 10840,1085 10840,835 10590,835 Z"/>
 <path fill="none" stroke="rgb(0,69,134)" stroke-linejoin="round" d="M 10590,835 L 10590,1085 10840,1085 10840,835 10590,835 Z"/>
 <text class="SVGTextShape"><tspan class="TextParagraph" font-family="Liberation Sans, sans-serif" font-size="353px" font-weight="400"><tspan class="TextPosition" x="1683" y="8732"><tspan fill="rgb(0,0,0)" stroke="none" style="white-space: pre">0</tspan></tspan></tspan></text>
 <text class="SVGTextShape"><tspan class="TextParagraph" font-family="Liberation Sans, sans-serif" font-size="353px" font-weight="400"><tspan class="TextPosition" x="3366" y="8732"><tspan fill="rgb(0,0,0)" stroke="none" style="white-space: pre">50</tspan></tspan></tspan></text>
 <text class="SVGTextShape"><tspan class="TextParagraph" font-family="Liberation Sans, sans-serif" font-size="353px" font-weight="400"><tspan class="TextPosition" x="5049" y="8732"><tspan fill="rgb(0,0,0)" stroke="none" style="white-space: pre">100</tspan></tspan></tspan></text>
 <text class="SVGTextShape"><tspan class="TextParagraph" font-family="Liberation Sans, sans-serif" font-size="353px" font-weight="400"><tspan class="TextPosition" x="6829" y="8732"><tspan fill="rgb(0,0,0)" stroke="none" style="white-space: pre">150</tspan></tspan></tspan></text>
 <text class="SVGTextShape"><tspan class="TextParagraph" font-family="Liberation Sans, sans-serif" font-size="353px" font-weight="400"><tspan class="TextPosition" x="8608" y="8732"><tspan fill="rgb(0,0,0)" stroke="none" style="white-space: pre">200</tspan></tspan></tspan></text>
 <text class="SVGTextShape"><tspan class="TextParagraph" font-family="Liberation Sans, sans-serif" font-size="353px" font-weight="400"><tspan class="TextPosition" x="10388" y="8732"><tspan fill="rgb(0,0,0)" stroke="none" style="white-space: pre">250</tspan></tspan></tspan></text>
 <text class="SVGTextShape"><tspan class="TextParagraph" font-family="Liberation Sans, sans-serif" font-size="353px" font-weight="400"><tspan class="TextPosition" x="12169" y="8732"><tspan fill="rgb(0,0,0)" stroke="none" style="white-space: pre">300</tspan></tspan></tspan></text>
 <text class="SVGTextShape"><tspan class="TextParagraph" font-family="Liberation Sans, sans-serif" font-size="353px" font-weight="400"><tspan class="TextPosition" x="1336" y="8288"><tspan fill="rgb(0,0,0)" stroke="none" style="white-space: pre">0</tspan></tspan></tspan></text>
 <text class="SVGTextShape"><tspan class="TextParagraph" font-family="Liberation Sans, sans-serif" font-size="353px" font-weight="400"><tspan class="TextPosition" x="948" y="7173"><tspan fill="rgb(0,0,0)" stroke="none" style="white-space: pre">500</tspan></tspan></tspan></text>
 <text class="SVGTextShape"><tspan class="TextParagraph" font-family="Liberation Sans, sans-serif" font-size="353px" font-weight="400"><tspan class="TextPosition" x="754" y="6058"><tspan fill="rgb(0,0,0)" stroke="none" style="white-space: pre">1000</tspan></tspan></tspan></text>
 <text class="SVGTextShape"><tspan class="TextParagraph" font-family="Liberation Sans, sans-serif" font-size="353px" font-weight="400"><tspan class="TextPosition" x="754" y="4944"><tspan fill="rgb(0,0,0)" stroke="none" style="white-space: pre">1500</tspan></tspan></tspan></text>
 <text class="SVGTextShape"><tspan class="TextParagraph" font-family="Liberation Sans, sans-serif" font-size="353px" font-weight="400"><tspan class="TextPosition" x="754" y="3830"><tspan fill="rgb(0,0,0)" stroke="none" style="white-space: pre">2000</tspan></tspan></tspan></text>
 <text class="SVGTextShape"><tspan class="TextParagraph" font-family="Liberation Sans, sans-serif" font-size="353px" font-weight="400"><tspan class="TextPosition" x="754" y="2716"><tspan fill="rgb(0,0,0)" stroke="none" style="white-space: pre">2500</tspan></tspan></tspan></text>
 <text class="SVGTextShape"><tspan class="TextParagraph" font-family="Liberation Sans, sans-serif" font-size="353px" font-weight="400"><tspan class="TextPosition" x="754" y="1601"><tspan fill="rgb(0,0,0)" stroke="none" style="white-space: pre">3000</tspan></tspan></tspan></text>
 <text class="SVGTextShape"><tspan class="TextParagraph" font-family="Liberation Sans, sans-serif" font-size="353px" font-weight="400"><tspan class="TextPosition" x="754" y="487"><tspan fill="rgb(0,0,0)" stroke="none" style="white-space: pre">3500</tspan></tspan></tspan></text>
 <text class="SVGTextShape"><tspan class="TextParagraph" font-family="Liberation Sans, sans-serif" font-size="353px" font-weight="400"><tspan class="TextPosition" x="12710" y="8288"><tspan fill="rgb(0,0,0)" stroke="none" style="white-space: pre">0</tspan></tspan></tspan></text>
 <text class="SVGTextShape"><tspan class="TextParagraph" font-family="Liberation Sans, sans-serif" font-size="353px" font-weight="400"><tspan class="TextPosition" x="12710" y="7173"><tspan fill="rgb(0,0,0)" stroke="none" style="white-space: pre">100</tspan></tspan></tspan></text>
 <text class="SVGTextShape"><tspan class="TextParagraph" font-family="Liberation Sans, sans-serif" font-size="353px" font-weight="400"><tspan class="TextPosition" x="12710" y="6058"><tspan fill="rgb(0,0,0)" stroke="none" style="white-space: pre">200</tspan></tspan></tspan></text>
 <text class="SVGTextShape"><tspan class="TextParagraph" font-family="Liberation Sans, sans-serif" font-size="353px" font-weight="400"><tspan class="TextPosition" x="12710" y="4944"><tspan fill="rgb(0,0,0)" stroke="none" style="white-space: pre">300</tspan></tspan></tspan></text>
 <text class="SVGTextShape"><tspan class="TextParagraph" font-family="Liberation Sans, sans-serif" font-size="353px" font-weight="400"><tspan class="TextPosition" x="12710" y="3830"><tspan fill="rgb(0,0,0)" stroke="none" style="white-space: pre">400</tspan></tspan></tspan></text>
 <text class="SVGTextShape"><tspan class="TextParagraph" font-family="Liberation Sans, sans-serif" font-size="353px" font-weight="400"><tspan class="TextPosition" x="12710" y="2716"><tspan fill="rgb(0,0,0)" stroke="none" style="white-space: pre">500</tspan></tspan></tspan></text>
 <text class="SVGTextShape"><tspan class="TextParagraph" font-family="Liberation Sans, sans-serif" font-size="353px" font-weight="400"><tspan class="TextPosition" x="12710" y="1601"><tspan fill="rgb(0,0,0)" stroke="none" style="white-space: pre">600</tspan></tspan></tspan></text>
 <text class="SVGTextShape"><tspan class="TextParagraph" font-family="Liberation Sans, sans-serif" font-size="353px" font-weight="400"><tspan class="TextPosition" x="12710" y="487"><tspan fill="rgb(0,0,0)" stroke="none" style="white-space: pre">700</tspan></tspan></tspan></text>
 <path fill="none" stroke="rgb(0,69,134)" stroke-width="80" stroke-linejoin="round" d="M 13680,936 L 14480,936"/>
 <path fill="rgb(0,69,134)" stroke="none" d="M 13974,831 L 13974,1042 14185,1042 14185,831 13974,831 Z"/>
 <path fill="none" stroke="rgb(0,69,134)" stroke-linejoin="round" d="M 13974,831 L 13974,1042 14185,1042 14185,831 13974,831 Z"/>
 <path fill="none" stroke="rgb(255,211,32)" stroke-width="80" stroke-linejoin="round" d="M 13680,1814 L 14480,1814"/>
 <path fill="rgb(255,211,32)" stroke="none" d="M 13974,1709 L 14080,1920 14185,1709 13974,1709 Z"/>
 <path fill="none" stroke="rgb(255,211,32)" stroke-linejoin="round" d="M 13974,1709 L 14080,1920 14185,1709 13974,1709 Z"/>
 <text class="SVGTextShape"><tspan class="TextParagraph" font-family="游ゴシック, sans-serif" font-size="353px" font-weight="400"><tspan class="TextPosition" x="14580" y="1060"><tspan fill="rgb(0,0,0)" stroke="none" style="white-space: pre">行番号</tspan></tspan></tspan></text>
 <text class="SVGTextShape"><tspan class="TextParagraph" font-family="Liberation Sans, sans-serif" font-size="353px" font-weight="400"><tspan class="TextPosition" x="14580" y="1938"><tspan fill="rgb(0,0,0)" stroke="none" style="white-space: pre">node</tspan><tspan font-family="游ゴシック, sans-serif" fill="rgb(0,0,0)" stroke="none" style="white-space: pre">数</tspan></tspan></tspan></text>
 <text class="SVGTextShape" transform="rotate(-90 -15035 -7040)"><tspan class="TextParagraph" font-family="游ゴシック, sans-serif" font-size="318px" font-weight="400"><tspan class="TextPosition" x="369" y="4962"><tspan fill="rgb(0,0,0)" stroke="none" style="white-space: pre">行番号</tspan></tspan></tspan></text>
 <text class="SVGTextShape" transform="rotate(-90 -1411 -6944)"><tspan class="TextParagraph" font-family="Liberation Sans, sans-serif" font-size="318px" font-weight="400"><tspan class="TextPosition" x="13992" y="5058"><tspan fill="rgb(0,0,0)" stroke="none" style="white-space: pre">Node</tspan></tspan><tspan class="TextPosition" x="13992" y="4231"><tspan font-family="游ゴシック, sans-serif" fill="rgb(0,0,0)" stroke="none" style="white-space: pre">数</tspan></tspan></tspan></text>
</svg>