<?xml version="1.0" encoding="UTF-8" standalone="no"?><svg xmlns="http://www.w3.org/2000/svg" xmlns:xlink="http://www.w3.org/1999/xlink" contentStyleType="text/css" height="177px" preserveAspectRatio="none" style="width:1048px;height:177px;background:#FFFFFF;" version="1.1" viewBox="0 0 1048 177" width="1048px" zoomAndPan="magnify"><defs/><g><!--MD5=[cd95b4d0281a5cb0124e9aefda54f363]
cluster device1--><g id="cluster_device1"><rect fill="none" height="164" rx="2.5" ry="2.5" style="stroke:#181818;stroke-width:1.0;" width="184" x="7" y="7"/><path d="M83,7 L83,16.2969 L73,26.2969 L7,26.2969 " fill="none" style="stroke:#181818;stroke-width:1.0;"/><text fill="#000000" font-family="sans-serif" font-size="14" font-weight="bold" lengthAdjust="spacing" textLength="66" x="10" y="20.9951">デバイス1</text></g><!--MD5=[a615c3b5958dda842e4e3d4ad00358ef]
cluster docker1--><g id="cluster_docker1"><rect fill="none" height="97" rx="2.5" ry="2.5" style="stroke:#181818;stroke-width:1.0;" width="136" x="31" y="50"/><path d="M106,50 L106,59.2969 L96,69.2969 L31,69.2969 " fill="none" style="stroke:#181818;stroke-width:1.0;"/><text fill="#000000" font-family="sans-serif" font-size="14" font-weight="bold" lengthAdjust="spacing" textLength="65" x="34" y="63.9951">docker1</text></g><!--MD5=[a942418422d0dcfd908c0715f8a87589]
cluster device2--><g id="cluster_device2"><rect fill="none" height="164" rx="2.5" ry="2.5" style="stroke:#181818;stroke-width:1.0;" width="190" x="852" y="7"/><path d="M928,7 L928,16.2969 L918,26.2969 L852,26.2969 " fill="none" style="stroke:#181818;stroke-width:1.0;"/><text fill="#000000" font-family="sans-serif" font-size="14" font-weight="bold" lengthAdjust="spacing" textLength="66" x="855" y="20.9951">デバイス2</text></g><!--MD5=[260e8050747ca0297bb44156f55a0593]
cluster docker2--><g id="cluster_docker2"><rect fill="none" height="97" rx="2.5" ry="2.5" style="stroke:#181818;stroke-width:1.0;" width="142" x="876" y="50"/><path d="M951,50 L951,59.2969 L941,69.2969 L876,69.2969 " fill="none" style="stroke:#181818;stroke-width:1.0;"/><text fill="#000000" font-family="sans-serif" font-size="14" font-weight="bold" lengthAdjust="spacing" textLength="65" x="879" y="63.9951">docker2</text></g><!--MD5=[92e2fde838eec94335ae4193a34f5341]
entity wg_client--><g id="elem_wg_client"><polygon fill="#F1F1F1" points="47,95,57,85,151,85,151,121.2969,141,131.2969,47,131.2969,47,95" style="stroke:#181818;stroke-width:0.5;"/><line style="stroke:#181818;stroke-width:0.5;" x1="141" x2="151" y1="95" y2="85"/><line style="stroke:#181818;stroke-width:0.5;" x1="47" x2="141" y1="95" y2="95"/><line style="stroke:#181818;stroke-width:0.5;" x1="141" x2="141" y1="95" y2="131.2969"/><text fill="#000000" font-family="sans-serif" font-size="14" lengthAdjust="spacing" textLength="64" x="62" y="117.9951">wg_client</text></g><!--MD5=[029d86331573b0878bd8a56b4f49062c]
entity wg_server--><g id="elem_wg_server"><polygon fill="#F1F1F1" points="892,95,902,85,1002,85,1002,121.2969,992,131.2969,892,131.2969,892,95" style="stroke:#181818;stroke-width:0.5;"/><line style="stroke:#181818;stroke-width:0.5;" x1="992" x2="1002" y1="95" y2="85"/><line style="stroke:#181818;stroke-width:0.5;" x1="892" x2="992" y1="95" y2="95"/><line style="stroke:#181818;stroke-width:0.5;" x1="992" x2="992" y1="95" y2="131.2969"/><text fill="#000000" font-family="sans-serif" font-size="14" lengthAdjust="spacing" textLength="70" x="907" y="117.9951">wg_server</text></g><!--MD5=[53a7890647be042c111b8a807eed420f]
entity internet--><g id="elem_internet"><path d="M538.3988,94.8259 C540.9638,88.7893 544.934,88.2086 549.7765,92.2565 C553.2724,87.4522 558.434,86.3207 561.4051,92.7975 C563.2201,87.4323 567.7807,87.207 571.2423,91.0356 C574.801,87.0078 580.5415,86.6781 582.4392,92.8576 C585.8776,88.0845 590.2059,86.9358 593.7597,92.734 C598.2738,87.2606 601.7886,87.8011 605.0842,93.9238 C614.1733,96.5517 617.5441,100.8833 612.4225,109.9985 C618.1203,116.9383 613.8494,124.2118 605.9515,125.4623 C603.8116,130.9021 599.8219,132.4209 595.1207,128.3921 C591.9415,134.0008 587.5858,134.734 583.0572,129.9599 C581.5309,136.0836 577.476,138.7844 571.7206,134.6199 C566.5438,138.6585 562.8058,136.4273 561.6306,130.5486 C556.2901,134.9801 551.7708,134.5968 548.9358,127.7326 C544.8968,131.3147 540.7822,130.0293 539.1123,125.0228 C530.5685,121.3959 529.8125,114.5713 535.9753,108.2018 C529.7885,102.4275 530.2846,98.0092 538.3988,94.8259 " fill="#F1F1F1" style="stroke:#181818;stroke-width:0.5;"/><text fill="#000000" font-family="sans-serif" font-size="14" lengthAdjust="spacing" textLength="54" x="544" y="112.9951">internet</text></g><!--MD5=[7cf10fd80f7580b2c5e15283e9ebc6f7]
entity router1--><g id="elem_router1"><polygon fill="#F1F1F1" points="325.5,86.5,335.5,76.5,494.5,76.5,494.5,129.0938,484.5,139.0938,325.5,139.0938,325.5,86.5" style="stroke:#181818;stroke-width:0.5;"/><line style="stroke:#181818;stroke-width:0.5;" x1="484.5" x2="494.5" y1="86.5" y2="76.5"/><line style="stroke:#181818;stroke-width:0.5;" x1="325.5" x2="484.5" y1="86.5" y2="86.5"/><line style="stroke:#181818;stroke-width:0.5;" x1="484.5" x2="484.5" y1="86.5" y2="139.0938"/><text fill="#000000" font-family="sans-serif" font-size="14" lengthAdjust="spacing" textLength="51" x="340.5" y="109.4951">ルータ1</text><text fill="#000000" font-family="sans-serif" font-size="14" lengthAdjust="spacing" textLength="129" x="340.5" y="125.792">IP: aaa.aaa.aaa.aaa</text></g><!--MD5=[655f75fa08bbe95bdc76a3d8a1755d44]
entity router2--><g id="elem_router2"><polygon fill="#F1F1F1" points="648.5,86.5,658.5,76.5,829.5,76.5,829.5,129.0938,819.5,139.0938,648.5,139.0938,648.5,86.5" style="stroke:#181818;stroke-width:0.5;"/><line style="stroke:#181818;stroke-width:0.5;" x1="819.5" x2="829.5" y1="86.5" y2="76.5"/><line style="stroke:#181818;stroke-width:0.5;" x1="648.5" x2="819.5" y1="86.5" y2="86.5"/><line style="stroke:#181818;stroke-width:0.5;" x1="819.5" x2="819.5" y1="86.5" y2="139.0938"/><text fill="#000000" font-family="sans-serif" font-size="14" lengthAdjust="spacing" textLength="51" x="663.5" y="109.4951">ルータ2</text><text fill="#000000" font-family="sans-serif" font-size="14" lengthAdjust="spacing" textLength="141" x="663.5" y="125.792">IP: bbb.bbb.bbb.bbb</text></g><!--MD5=[d1dc0c3078bbffd924c355f833848a97]
link wg_client to router1--><g id="link_wg_client_router1"><path d="M151.05,108 C197.12,108 265.35,108 320.22,108 " fill="none" id="wg_client-to-router1" style="stroke:#181818;stroke-width:1.0;"/><polygon fill="#181818" points="325.48,108,316.48,104,320.48,108,316.48,112,325.48,108" style="stroke:#181818;stroke-width:1.0;"/><text fill="#000000" font-family="sans-serif" font-size="13" lengthAdjust="spacing" textLength="138" x="169.25" y="101.0669">bbb.bbb.bbb.bbb:port</text></g><!--MD5=[ee0e1aa42369e46999e718019a37b7e6]
link router1 to internet--><g id="link_router1_internet"><path d="M494.59,108 C504.33,108 514.07,108 523.82,108 " fill="none" id="router1-to-internet" style="stroke:#181818;stroke-width:1.0;"/><polygon fill="#181818" points="528.91,108,519.91,104,523.91,108,519.91,112,528.91,108" style="stroke:#181818;stroke-width:1.0;"/></g><!--MD5=[165fab5d34475a61c25e039410d3f27f]
link internet to router2--><g id="link_internet_router2"><path d="M613,108 C623.06,108 633.12,108 643.18,108 " fill="none" id="internet-to-router2" style="stroke:#181818;stroke-width:1.0;"/><polygon fill="#181818" points="648.44,108,639.44,104,643.44,108,639.44,112,648.44,108" style="stroke:#181818;stroke-width:1.0;"/></g><!--MD5=[d0e7d7d0d37bf78d5ec6489d7bfcbc76]
link router2 to wg_server--><g id="link_router2_wg_server"><path d="M829.63,108 C848.87,108 868.74,108 886.54,108 " fill="none" id="router2-to-wg_server" style="stroke:#181818;stroke-width:1.0;"/><polygon fill="#181818" points="891.99,108,882.99,104,886.99,108,882.99,112,891.99,108" style="stroke:#181818;stroke-width:1.0;"/><text fill="#000000" font-family="sans-serif" font-size="13" lengthAdjust="spacing" textLength="26" x="847.75" y="101.0669">port</text></g><!--MD5=[162d1325cc039739a6bb2dcc205b5975]
@startuml
cloud internet

node router1 [
ルータ1
IP: aaa.aaa.aaa.aaa
]


frame device1 as "デバイス1" {
frame docker1 {
node wg_client
}
}

node router2 [
ルータ2
IP: bbb.bbb.bbb.bbb
]

frame device2  as "デバイス2" {
frame docker2 {
node wg_server
}
}

wg_client->router1 : bbb.bbb.bbb.bbb:port
router1->internet

internet->router2
router2->wg_server : port 
@enduml

PlantUML version 1.2022.8(Sun Sep 25 18:00:33 JST 2022)
(GPL source distribution)
Java Runtime: OpenJDK Runtime Environment
JVM: OpenJDK 64-Bit Server VM
Default Encoding: UTF-8
Language: en
Country: US
--></g></svg>