<?xml version="1.0" encoding="UTF-8" standalone="no"?>
<!DOCTYPE svg PUBLIC "-//W3C//DTD SVG 1.1//EN"
 "http://www.w3.org/Graphics/SVG/1.1/DTD/svg11.dtd">
<!-- Generated by graphviz version 2.38.0 (20140413.2041)
 -->
<!-- Title: G Pages: 1 -->
<svg width="833pt" height="188pt"
 viewBox="0.00 0.00 833.04 188.00" xmlns="http://www.w3.org/2000/svg" xmlns:xlink="http://www.w3.org/1999/xlink">
<g id="graph0" class="graph" transform="scale(1 1) rotate(0) translate(4 184)">
<title>G</title>
<polygon fill="white" stroke="none" points="-4,4 -4,-184 829.043,-184 829.043,4 -4,4"/>
<!-- mod -->
<g id="node1" class="node"><title>mod</title>
<ellipse fill="none" stroke="black" cx="415.347" cy="-162" rx="27" ry="18"/>
<text text-anchor="middle" x="415.347" y="-158.3" font-family="Times,serif" font-size="14.00">mod</text>
</g>
<!-- funcA -->
<g id="node2" class="node"><title>funcA</title>
<ellipse fill="none" stroke="black" cx="181.347" cy="-90" rx="32.4942" ry="18"/>
<text text-anchor="middle" x="181.347" y="-86.3" font-family="Times,serif" font-size="14.00">funcA</text>
</g>
<!-- mod&#45;&gt;funcA -->
<g id="edge1" class="edge"><title>mod&#45;&gt;funcA</title>
<path fill="none" stroke="black" d="M391.186,-153.772C350.414,-141.576 267.661,-116.821 219.149,-102.308"/>
<polygon fill="black" stroke="black" points="219.927,-98.888 209.344,-99.3752 217.921,-105.594 219.927,-98.888"/>
</g>
<!-- funcB -->
<g id="node3" class="node"><title>funcB</title>
<ellipse fill="none" stroke="black" cx="415.347" cy="-90" rx="32.4942" ry="18"/>
<text text-anchor="middle" x="415.347" y="-86.3" font-family="Times,serif" font-size="14.00">funcB</text>
</g>
<!-- mod&#45;&gt;funcB -->
<g id="edge2" class="edge"><title>mod&#45;&gt;funcB</title>
<path fill="none" stroke="black" d="M415.347,-143.697C415.347,-135.983 415.347,-126.712 415.347,-118.112"/>
<polygon fill="black" stroke="black" points="418.847,-118.104 415.347,-108.104 411.847,-118.104 418.847,-118.104"/>
</g>
<!-- funcC -->
<g id="node4" class="node"><title>funcC</title>
<ellipse fill="none" stroke="black" cx="647.347" cy="-90" rx="32.4942" ry="18"/>
<text text-anchor="middle" x="647.347" y="-86.3" font-family="Times,serif" font-size="14.00">funcC</text>
</g>
<!-- mod&#45;&gt;funcC -->
<g id="edge3" class="edge"><title>mod&#45;&gt;funcC</title>
<path fill="none" stroke="black" d="M439.736,-153.641C480.249,-141.417 561.691,-116.844 609.647,-102.375"/>
<polygon fill="black" stroke="black" points="610.782,-105.688 619.345,-99.4488 608.76,-98.9867 610.782,-105.688"/>
</g>
<!-- subA_1 -->
<g id="node5" class="node"><title>subA_1</title>
<ellipse fill="none" stroke="black" cx="38.3466" cy="-18" rx="38.1938" ry="18"/>
<text text-anchor="middle" x="38.3466" y="-14.3" font-family="Times,serif" font-size="14.00">subA_1</text>
</g>
<!-- funcA&#45;&gt;subA_1 -->
<g id="edge4" class="edge"><title>funcA&#45;&gt;subA_1</title>
<path fill="none" stroke="black" d="M157.733,-77.4409C134.701,-66.1663 99.3986,-48.8856 73.1493,-36.0363"/>
<polygon fill="black" stroke="black" points="74.4481,-32.7753 63.9276,-31.5222 71.3704,-39.0624 74.4481,-32.7753"/>
</g>
<!-- subA_2 -->
<g id="node6" class="node"><title>subA_2</title>
<ellipse fill="none" stroke="black" cx="133.347" cy="-18" rx="38.1938" ry="18"/>
<text text-anchor="middle" x="133.347" y="-14.3" font-family="Times,serif" font-size="14.00">subA_2</text>
</g>
<!-- funcA&#45;&gt;subA_2 -->
<g id="edge5" class="edge"><title>funcA&#45;&gt;subA_2</title>
<path fill="none" stroke="black" d="M170.214,-72.7646C164.362,-64.2301 157.06,-53.5822 150.503,-44.0191"/>
<polygon fill="black" stroke="black" points="153.294,-41.9013 144.752,-35.6334 147.521,-45.8601 153.294,-41.9013"/>
</g>
<!-- subA_3 -->
<g id="node7" class="node"><title>subA_3</title>
<ellipse fill="none" stroke="black" cx="228.347" cy="-18" rx="38.1938" ry="18"/>
<text text-anchor="middle" x="228.347" y="-14.3" font-family="Times,serif" font-size="14.00">subA_3</text>
</g>
<!-- funcA&#45;&gt;subA_3 -->
<g id="edge6" class="edge"><title>funcA&#45;&gt;subA_3</title>
<path fill="none" stroke="black" d="M192.247,-72.7646C197.978,-64.2301 205.127,-53.5822 211.548,-44.0191"/>
<polygon fill="black" stroke="black" points="214.51,-45.8867 217.178,-35.6334 208.698,-41.9846 214.51,-45.8867"/>
</g>
<!-- subB_1 -->
<g id="node8" class="node"><title>subB_1</title>
<ellipse fill="none" stroke="black" cx="322.347" cy="-18" rx="37.8943" ry="18"/>
<text text-anchor="middle" x="322.347" y="-14.3" font-family="Times,serif" font-size="14.00">subB_1</text>
</g>
<!-- funcB&#45;&gt;subB_1 -->
<g id="edge7" class="edge"><title>funcB&#45;&gt;subB_1</title>
<path fill="none" stroke="black" d="M396.527,-74.8345C383.216,-64.8158 365.148,-51.2163 350.177,-39.9473"/>
<polygon fill="black" stroke="black" points="351.873,-36.8437 341.779,-33.6263 347.664,-42.4365 351.873,-36.8437"/>
</g>
<!-- subB_2 -->
<g id="node9" class="node"><title>subB_2</title>
<ellipse fill="none" stroke="black" cx="415.347" cy="-18" rx="37.8943" ry="18"/>
<text text-anchor="middle" x="415.347" y="-14.3" font-family="Times,serif" font-size="14.00">subB_2</text>
</g>
<!-- funcB&#45;&gt;subB_2 -->
<g id="edge8" class="edge"><title>funcB&#45;&gt;subB_2</title>
<path fill="none" stroke="black" d="M415.347,-71.6966C415.347,-63.9827 415.347,-54.7125 415.347,-46.1124"/>
<polygon fill="black" stroke="black" points="418.847,-46.1043 415.347,-36.1043 411.847,-46.1044 418.847,-46.1043"/>
</g>
<!-- subB_3 -->
<g id="node10" class="node"><title>subB_3</title>
<ellipse fill="none" stroke="black" cx="508.347" cy="-18" rx="37.8943" ry="18"/>
<text text-anchor="middle" x="508.347" y="-14.3" font-family="Times,serif" font-size="14.00">subB_3</text>
</g>
<!-- funcB&#45;&gt;subB_3 -->
<g id="edge9" class="edge"><title>funcB&#45;&gt;subB_3</title>
<path fill="none" stroke="black" d="M434.167,-74.8345C447.477,-64.8158 465.545,-51.2163 480.517,-39.9473"/>
<polygon fill="black" stroke="black" points="483.03,-42.4365 488.914,-33.6263 478.82,-36.8437 483.03,-42.4365"/>
</g>
<!-- subC_1 -->
<g id="node11" class="node"><title>subC_1</title>
<ellipse fill="none" stroke="black" cx="601.347" cy="-18" rx="37.8943" ry="18"/>
<text text-anchor="middle" x="601.347" y="-14.3" font-family="Times,serif" font-size="14.00">subC_1</text>
</g>
<!-- funcC&#45;&gt;subC_1 -->
<g id="edge10" class="edge"><title>funcC&#45;&gt;subC_1</title>
<path fill="none" stroke="black" d="M636.678,-72.7646C631.069,-64.2301 624.072,-53.5822 617.788,-44.0191"/>
<polygon fill="black" stroke="black" points="620.694,-42.0683 612.277,-35.6334 614.844,-45.9126 620.694,-42.0683"/>
</g>
<!-- subC_2 -->
<g id="node12" class="node"><title>subC_2</title>
<ellipse fill="none" stroke="black" cx="694.347" cy="-18" rx="37.8943" ry="18"/>
<text text-anchor="middle" x="694.347" y="-14.3" font-family="Times,serif" font-size="14.00">subC_2</text>
</g>
<!-- funcC&#45;&gt;subC_2 -->
<g id="edge11" class="edge"><title>funcC&#45;&gt;subC_2</title>
<path fill="none" stroke="black" d="M658.247,-72.7646C663.978,-64.2301 671.127,-53.5822 677.548,-44.0191"/>
<polygon fill="black" stroke="black" points="680.51,-45.8867 683.178,-35.6334 674.698,-41.9846 680.51,-45.8867"/>
</g>
<!-- subC_3 -->
<g id="node13" class="node"><title>subC_3</title>
<ellipse fill="none" stroke="black" cx="787.347" cy="-18" rx="37.8943" ry="18"/>
<text text-anchor="middle" x="787.347" y="-14.3" font-family="Times,serif" font-size="14.00">subC_3</text>
</g>
<!-- funcC&#45;&gt;subC_3 -->
<g id="edge12" class="edge"><title>funcC&#45;&gt;subC_3</title>
<path fill="none" stroke="black" d="M670.779,-77.2836C693.241,-66.0526 727.411,-48.9677 752.957,-36.1949"/>
<polygon fill="black" stroke="black" points="754.561,-39.3058 761.94,-31.7031 751.431,-33.0448 754.561,-39.3058"/>
</g>
</g>
</svg>
