<?xml version="1.0" encoding="UTF-8" standalone="no"?>
<!DOCTYPE svg PUBLIC "-//W3C//DTD SVG 1.1//EN"
 "http://www.w3.org/Graphics/SVG/1.1/DTD/svg11.dtd">
<!-- Generated by graphviz version 2.43.0 (0)
 -->
<!-- Title: G Pages: 1 -->
<svg width="804pt" height="122pt"
 viewBox="0.00 0.00 803.68 121.69" xmlns="http://www.w3.org/2000/svg" xmlns:xlink="http://www.w3.org/1999/xlink">
<g id="graph0" class="graph" transform="scale(1 1) rotate(0) translate(4 117.69)">
<title>G</title>
<polygon fill="white" stroke="transparent" points="-4,4 -4,-117.69 799.68,-117.69 799.68,4 -4,4"/>
<!-- parse -->
<g id="node1" class="node">
<title>parse</title>
<ellipse fill="none" stroke="black" cx="172.57" cy="-57.12" rx="56.64" ry="56.64"/>
<text text-anchor="middle" x="172.57" y="-60.92" font-family="Times,serif" font-size="14.00" fill="#000000">parse</text>
<text text-anchor="middle" x="172.57" y="-45.92" font-family="Times,serif" font-size="14.00" fill="#000000">.lns code</text>
</g>
<!-- token -->
<g id="node5" class="node">
<title>token</title>
<path fill="none" stroke="black" d="M321.14,-71.85C321.14,-73.66 308.59,-75.12 293.14,-75.12 277.69,-75.12 265.14,-73.66 265.14,-71.85 265.14,-71.85 265.14,-42.4 265.14,-42.4 265.14,-40.59 277.69,-39.12 293.14,-39.12 308.59,-39.12 321.14,-40.59 321.14,-42.4 321.14,-42.4 321.14,-71.85 321.14,-71.85"/>
<path fill="none" stroke="black" d="M321.14,-71.85C321.14,-70.05 308.59,-68.58 293.14,-68.58 277.69,-68.58 265.14,-70.05 265.14,-71.85"/>
<text text-anchor="middle" x="293.14" y="-53.42" font-family="Times,serif" font-size="14.00" fill="#000000">token</text>
</g>
<!-- parse&#45;&gt;token -->
<g id="edge2" class="edge">
<title>parse&#45;&gt;token</title>
<path fill="none" stroke="black" d="M229.38,-57.12C237.98,-57.12 246.69,-57.12 254.76,-57.12"/>
<polygon fill="black" stroke="black" points="254.94,-60.63 264.94,-57.12 254.94,-53.63 254.94,-60.63"/>
</g>
<!-- syntax -->
<g id="node2" class="node">
<title>syntax</title>
<ellipse fill="none" stroke="black" cx="407.34" cy="-57.12" rx="50.41" ry="50.41"/>
<text text-anchor="middle" x="407.34" y="-60.92" font-family="Times,serif" font-size="14.00" fill="#000000">analyze</text>
<text text-anchor="middle" x="407.34" y="-45.92" font-family="Times,serif" font-size="14.00" fill="#000000">syntax</text>
</g>
<!-- ast -->
<g id="node6" class="node">
<title>ast</title>
<path fill="none" stroke="black" d="M550.55,-102.85C550.55,-104.66 538.44,-106.12 523.55,-106.12 508.65,-106.12 496.55,-104.66 496.55,-102.85 496.55,-102.85 496.55,-73.4 496.55,-73.4 496.55,-71.59 508.65,-70.12 523.55,-70.12 538.44,-70.12 550.55,-71.59 550.55,-73.4 550.55,-73.4 550.55,-102.85 550.55,-102.85"/>
<path fill="none" stroke="black" d="M550.55,-102.85C550.55,-101.05 538.44,-99.58 523.55,-99.58 508.65,-99.58 496.55,-101.05 496.55,-102.85"/>
<text text-anchor="middle" x="523.55" y="-84.42" font-family="Times,serif" font-size="14.00" fill="#000000">AST</text>
</g>
<!-- syntax&#45;&gt;ast -->
<g id="edge4" class="edge">
<title>syntax&#45;&gt;ast</title>
<path fill="none" stroke="black" d="M456.11,-70.09C466.37,-72.88 477.03,-75.77 486.74,-78.4"/>
<polygon fill="black" stroke="black" points="485.88,-81.8 496.45,-81.04 487.71,-75.04 485.88,-81.8"/>
</g>
<!-- decl -->
<g id="node7" class="node">
<title>decl</title>
<path fill="none" stroke="black" d="M553.55,-47.6C553.55,-50.24 540.1,-52.38 523.55,-52.38 506.99,-52.38 493.55,-50.24 493.55,-47.6 493.55,-47.6 493.55,-4.65 493.55,-4.65 493.55,-2.01 506.99,0.13 523.55,0.13 540.1,0.13 553.55,-2.01 553.55,-4.65 553.55,-4.65 553.55,-47.6 553.55,-47.6"/>
<path fill="none" stroke="black" d="M553.55,-47.6C553.55,-44.97 540.1,-42.83 523.55,-42.83 506.99,-42.83 493.55,-44.97 493.55,-47.6"/>
<text text-anchor="middle" x="523.55" y="-29.93" font-family="Times,serif" font-size="14.00" fill="#000000">public</text>
<text text-anchor="middle" x="523.55" y="-14.93" font-family="Times,serif" font-size="14.00" fill="#000000">info</text>
</g>
<!-- syntax&#45;&gt;decl -->
<g id="edge5" class="edge">
<title>syntax&#45;&gt;decl</title>
<path fill="none" stroke="black" d="M456.11,-44.16C465.35,-41.65 474.92,-39.05 483.83,-36.64"/>
<polygon fill="black" stroke="black" points="484.81,-40 493.54,-34 482.98,-33.24 484.81,-40"/>
</g>
<!-- conv -->
<g id="node3" class="node">
<title>conv</title>
<ellipse fill="none" stroke="black" cx="646.11" cy="-57.12" rx="56.64" ry="56.64"/>
<text text-anchor="middle" x="646.11" y="-60.92" font-family="Times,serif" font-size="14.00" fill="#000000">generate</text>
<text text-anchor="middle" x="646.11" y="-45.92" font-family="Times,serif" font-size="14.00" fill="#000000">code</text>
</g>
<!-- code -->
<g id="node8" class="node">
<title>code</title>
<path fill="none" stroke="black" d="M794.18,-98.85C794.18,-100.66 782.08,-102.12 767.18,-102.12 752.29,-102.12 740.18,-100.66 740.18,-98.85 740.18,-98.85 740.18,-69.4 740.18,-69.4 740.18,-67.59 752.29,-66.12 767.18,-66.12 782.08,-66.12 794.18,-67.59 794.18,-69.4 794.18,-69.4 794.18,-98.85 794.18,-98.85"/>
<path fill="none" stroke="black" d="M794.18,-98.85C794.18,-97.05 782.08,-95.58 767.18,-95.58 752.29,-95.58 740.18,-97.05 740.18,-98.85"/>
<text text-anchor="middle" x="767.18" y="-80.42" font-family="Times,serif" font-size="14.00" fill="#000000">code</text>
</g>
<!-- conv&#45;&gt;code -->
<g id="edge8" class="edge">
<title>conv&#45;&gt;code</title>
<path fill="none" stroke="black" d="M701.42,-69.44C711.14,-71.64 721.04,-73.89 730.08,-75.94"/>
<polygon fill="black" stroke="black" points="729.35,-79.36 739.87,-78.16 730.89,-72.53 729.35,-79.36"/>
</g>
<!-- meta -->
<g id="node9" class="node">
<title>meta</title>
<path fill="none" stroke="black" d="M795.68,-44.85C795.68,-46.66 782.91,-48.12 767.18,-48.12 751.46,-48.12 738.68,-46.66 738.68,-44.85 738.68,-44.85 738.68,-15.4 738.68,-15.4 738.68,-13.59 751.46,-12.12 767.18,-12.12 782.91,-12.12 795.68,-13.59 795.68,-15.4 795.68,-15.4 795.68,-44.85 795.68,-44.85"/>
<path fill="none" stroke="black" d="M795.68,-44.85C795.68,-43.05 782.91,-41.58 767.18,-41.58 751.46,-41.58 738.68,-43.05 738.68,-44.85"/>
<text text-anchor="middle" x="767.18" y="-26.43" font-family="Times,serif" font-size="14.00" fill="#000000">.meta</text>
</g>
<!-- conv&#45;&gt;meta -->
<g id="edge9" class="edge">
<title>conv&#45;&gt;meta</title>
<path fill="none" stroke="black" d="M701.42,-44.81C710.68,-42.71 720.11,-40.57 728.8,-38.6"/>
<polygon fill="black" stroke="black" points="729.63,-42 738.61,-36.38 728.09,-35.18 729.63,-42"/>
</g>
<!-- lns_code -->
<g id="node4" class="node">
<title>lns_code</title>
<path fill="none" stroke="black" d="M80,-71.85C80,-73.66 62.07,-75.12 40,-75.12 17.93,-75.12 0,-73.66 0,-71.85 0,-71.85 0,-42.4 0,-42.4 0,-40.59 17.93,-39.12 40,-39.12 62.07,-39.12 80,-40.59 80,-42.4 80,-42.4 80,-71.85 80,-71.85"/>
<path fill="none" stroke="black" d="M80,-71.85C80,-70.05 62.07,-68.58 40,-68.58 17.93,-68.58 0,-70.05 0,-71.85"/>
<text text-anchor="middle" x="40" y="-53.42" font-family="Times,serif" font-size="14.00" fill="#000000">.lns code</text>
</g>
<!-- lns_code&#45;&gt;parse -->
<g id="edge1" class="edge">
<title>lns_code&#45;&gt;parse</title>
<path fill="none" stroke="black" d="M80.17,-57.12C88.17,-57.12 96.78,-57.12 105.42,-57.12"/>
<polygon fill="black" stroke="black" points="105.53,-60.63 115.53,-57.12 105.53,-53.63 105.53,-60.63"/>
</g>
<!-- token&#45;&gt;syntax -->
<g id="edge3" class="edge">
<title>token&#45;&gt;syntax</title>
<path fill="none" stroke="black" d="M321.3,-57.12C329.12,-57.12 337.98,-57.12 346.95,-57.12"/>
<polygon fill="black" stroke="black" points="347.07,-60.63 357.07,-57.12 347.07,-53.63 347.07,-60.63"/>
</g>
<!-- ast&#45;&gt;conv -->
<g id="edge6" class="edge">
<title>ast&#45;&gt;conv</title>
<path fill="none" stroke="black" d="M550.71,-81.4C559.72,-79.08 570.25,-76.37 580.95,-73.62"/>
<polygon fill="black" stroke="black" points="581.97,-76.98 590.78,-71.1 580.22,-70.2 581.97,-76.98"/>
</g>
<!-- decl&#45;&gt;conv -->
<g id="edge7" class="edge">
<title>decl&#45;&gt;conv</title>
<path fill="none" stroke="black" d="M553.73,-33.63C562.2,-35.81 571.8,-38.27 581.51,-40.77"/>
<polygon fill="black" stroke="black" points="580.66,-44.17 591.22,-43.27 582.4,-37.39 580.66,-44.17"/>
</g>
</g>
</svg>
