<?xml version="1.0" encoding="UTF-8" standalone="no"?>
<!DOCTYPE svg PUBLIC "-//W3C//DTD SVG 1.1//EN"
 "http://www.w3.org/Graphics/SVG/1.1/DTD/svg11.dtd">
<!-- Generated by graphviz version 2.43.0 (0)
 -->
<!-- Title: G Pages: 1 -->
<svg width="625pt" height="274pt"
 viewBox="0.00 0.00 624.57 273.57" xmlns="http://www.w3.org/2000/svg" xmlns:xlink="http://www.w3.org/1999/xlink">
<g id="graph0" class="graph" transform="scale(1 1) rotate(0) translate(4 269.57)">
<title>G</title>
<polygon fill="white" stroke="transparent" points="-4,4 -4,-269.57 620.57,-269.57 620.57,4 -4,4"/>
<g id="clust1" class="cluster">
<title>cluster_B</title>
<polygon fill="none" stroke="black" points="387.18,-20.57 387.18,-257.57 533.57,-257.57 533.57,-20.57 387.18,-20.57"/>
<text text-anchor="middle" x="460.37" y="-242.37" font-family="Times,serif" font-size="14.00">ユーザのJavaScript</text>
</g>
<!-- builtin_thread -->
<g id="node1" class="node">
<title>builtin_thread</title>
<polygon fill="none" stroke="black" points="230.17,-190.57 54.26,-190.57 9.01,-154.57 184.92,-154.57 230.17,-190.57"/>
<text text-anchor="middle" x="119.59" y="-168.87" font-family="Times,serif" font-size="14.00">組込みスレッド</text>
</g>
<!-- event_loop -->
<g id="node2" class="node">
<title>event_loop</title>
<ellipse fill="none" stroke="black" cx="119.59" cy="-100.57" rx="119.68" ry="18"/>
<text text-anchor="middle" x="119.59" y="-96.87" font-family="Times,serif" font-size="14.00">イベント待ち[隠れている]</text>
</g>
<!-- builtin_thread&#45;&gt;event_loop -->
<g id="edge10" class="edge">
<title>builtin_thread&#45;&gt;event_loop</title>
<path fill="none" stroke="black" stroke-dasharray="5,2" d="M119.59,-154.16C119.59,-146.51 119.59,-137.46 119.59,-129"/>
<polygon fill="black" stroke="black" points="123.09,-128.74 119.59,-118.74 116.09,-128.74 123.09,-128.74"/>
<text text-anchor="middle" x="109.09" y="-132.87" font-family="Times,serif" font-size="14.00">イベント通知</text>
</g>
<!-- on_event1 -->
<g id="node3" class="node">
<title>on_event1</title>
<ellipse fill="none" stroke="black" cx="459.87" cy="-208.57" rx="63.89" ry="18"/>
<text text-anchor="middle" x="459.87" y="-204.87" font-family="Times,serif" font-size="14.00">BB, DD, FF</text>
</g>
<!-- event_loop&#45;&gt;on_event1 -->
<g id="edge1" class="edge">
<title>event_loop&#45;&gt;on_event1</title>
<path fill="none" stroke="black" d="M173.17,-116.72C194.32,-124.18 218.54,-133.97 239.18,-145.57 248.01,-150.53 248.05,-155.16 257.18,-159.57 299.51,-180 351.07,-192.33 391.46,-199.52"/>
<polygon fill="black" stroke="black" points="391.03,-202.99 401.48,-201.23 392.21,-196.09 391.03,-202.99"/>
</g>
<!-- on_event2 -->
<g id="node4" class="node">
<title>on_event2</title>
<ellipse fill="none" stroke="black" cx="459.87" cy="-154.57" rx="27" ry="18"/>
<text text-anchor="middle" x="459.87" y="-150.87" font-family="Times,serif" font-size="14.00">AA</text>
</g>
<!-- event_loop&#45;&gt;on_event2 -->
<g id="edge2" class="edge">
<title>event_loop&#45;&gt;on_event2</title>
<path fill="none" stroke="black" d="M202.48,-113.64C272.91,-124.88 371.13,-140.56 423.19,-148.87"/>
<polygon fill="black" stroke="black" points="422.84,-152.36 433.27,-150.48 423.95,-145.45 422.84,-152.36"/>
<text text-anchor="middle" x="317.18" y="-144.37" font-family="Times,serif" font-size="14.00">100ミリタイマー</text>
</g>
<!-- on_event3 -->
<g id="node5" class="node">
<title>on_event3</title>
<ellipse fill="none" stroke="black" cx="459.87" cy="-100.57" rx="27" ry="18"/>
<text text-anchor="middle" x="459.87" y="-96.87" font-family="Times,serif" font-size="14.00">CC</text>
</g>
<!-- event_loop&#45;&gt;on_event3 -->
<g id="edge3" class="edge">
<title>event_loop&#45;&gt;on_event3</title>
<path fill="none" stroke="black" d="M239.38,-100.57C303.93,-100.57 379.24,-100.57 422.75,-100.57"/>
<polygon fill="black" stroke="black" points="422.84,-104.07 432.84,-100.57 422.84,-97.07 422.84,-104.07"/>
<text text-anchor="middle" x="317.18" y="-104.37" font-family="Times,serif" font-size="14.00">500ミリタイマー</text>
</g>
<!-- on_event4 -->
<g id="node6" class="node">
<title>on_event4</title>
<ellipse fill="none" stroke="black" cx="459.87" cy="-46.57" rx="27" ry="18"/>
<text text-anchor="middle" x="459.87" y="-42.87" font-family="Times,serif" font-size="14.00">EE</text>
</g>
<!-- event_loop&#45;&gt;on_event4 -->
<g id="edge4" class="edge">
<title>event_loop&#45;&gt;on_event4</title>
<path fill="none" stroke="black" d="M202.48,-87.5C272.91,-76.25 371.13,-60.57 423.19,-52.26"/>
<polygon fill="black" stroke="black" points="423.95,-55.69 433.27,-50.66 422.84,-48.78 423.95,-55.69"/>
<text text-anchor="middle" x="317.18" y="-81.37" font-family="Times,serif" font-size="14.00">promise 処理終了</text>
</g>
<!-- end -->
<g id="node7" class="node">
<title>end</title>
<ellipse fill="none" stroke="black" cx="589.57" cy="-100.57" rx="27" ry="18"/>
</g>
<!-- on_event1&#45;&gt;end -->
<g id="edge5" class="edge">
<title>on_event1&#45;&gt;end</title>
<path fill="none" stroke="black" d="M506.97,-196.35C516.35,-192.57 525.73,-187.72 533.57,-181.57 552.08,-167.06 566.65,-144.57 576.13,-126.96"/>
<polygon fill="black" stroke="black" points="579.4,-128.26 580.86,-117.77 573.17,-125.06 579.4,-128.26"/>
</g>
<!-- on_event2&#45;&gt;end -->
<g id="edge6" class="edge">
<title>on_event2&#45;&gt;end</title>
<path fill="none" stroke="black" d="M484.35,-146.52C498.71,-141.44 517.36,-134.53 533.57,-127.57 541.86,-124.01 550.69,-119.84 558.8,-115.86"/>
<polygon fill="black" stroke="black" points="560.51,-118.92 567.9,-111.33 557.39,-112.65 560.51,-118.92"/>
</g>
<!-- on_event3&#45;&gt;end -->
<g id="edge7" class="edge">
<title>on_event3&#45;&gt;end</title>
<path fill="none" stroke="black" d="M487.02,-100.57C505.87,-100.57 531.55,-100.57 552.37,-100.57"/>
<polygon fill="black" stroke="black" points="552.45,-104.07 562.45,-100.57 552.45,-97.07 552.45,-104.07"/>
</g>
<!-- on_event4&#45;&gt;end -->
<g id="edge8" class="edge">
<title>on_event4&#45;&gt;end</title>
<path fill="none" stroke="black" d="M484.35,-54.61C498.71,-59.7 517.36,-66.6 533.57,-73.57 541.86,-77.13 550.69,-81.3 558.8,-85.27"/>
<polygon fill="black" stroke="black" points="557.39,-88.49 567.9,-89.81 560.51,-82.22 557.39,-88.49"/>
</g>
<!-- end&#45;&gt;event_loop -->
<g id="edge9" class="edge">
<title>end&#45;&gt;event_loop</title>
<path fill="none" stroke="black" d="M582.81,-82.91C575.15,-62.7 559.48,-30.58 533.57,-16.57 476.33,14.37 451.55,-7.12 387.18,-16.57 309.21,-28.01 222.89,-58.74 170.18,-79.68"/>
<polygon fill="black" stroke="black" points="168.72,-76.49 160.74,-83.47 171.32,-82.99 168.72,-76.49"/>
</g>
</g>
</svg>
