<?xml version="1.0" encoding="UTF-8" standalone="yes"?><svg xmlns="http://www.w3.org/2000/svg" xmlns:xlink="http://www.w3.org/1999/xlink" height="406px" style="width:230px;height:406px;" version="1.1" viewBox="0 0 230 406" width="230px"><defs><filter height="300%" id="f1" width="300%" x="-1" y="-1"><feGaussianBlur result="blurOut" stdDeviation="2.0"/><feColorMatrix in="blurOut" result="blurOut2" type="matrix" values="0 0 0 0 0 0 0 0 0 0 0 0 0 0 0 0 0 0 .4 0"/><feOffset dx="4.0" dy="4.0" in="blurOut2" result="blurOut3"/><feBlend in="SourceGraphic" in2="blurOut3" mode="normal"/></filter></defs><g><path d="M58.5,224 C58.5,221 60.5,219 63.5,219 C66.5,219 68.5,221 68.5,224 C68.5,221 70.5,219 73.5,219 C76.5,219 78.5,221 78.5,224 C78.5,221 80.5,219 83.5,219 C86.5,219 88.5,221 88.5,224 C88.5,221 90.5,219 93.5,219 C96.5,219 98.5,221 98.5,224 C98.5,221 100.5,219 103.5,219 C106.5,219 108.5,221 108.5,224 C108.5,221 110.5,219 113.5,219 C116.5,219 118.5,221 118.5,224 C118.5,221 120.5,219 123.5,219 C126.5,219 128.5,221 128.5,224 C128.5,221 130.5,219 133.5,219 C136.5,219 138.5,221 138.5,224 C138.5,221 140.5,219 143.5,219 C146.5,219 148.5,221 148.5,224 C148.5,221 150.5,219 153.5,219 C156.5,219 158.5,221 158.5,224 C158.5,221 160.5,219 163.5,219 C166.5,219 168.5,221 168.5,224 C168.5,221 170.5,219 173.5,219 C176.5,219 178.5,221 178.5,224 C178.5,221 180.5,219 183.5,219 C186.5,219 188.5,221 188.5,224 C188.5,221 190.5,219 193.5,219 C196.5,219 198.5,221 198.5,224 C198.5,221 200.5,219 203.5,219 C206.5,219 208.5,221 208.5,224 C208.5,221 210.5,219 213.5,219 C216.5,219 218.5,221 218.5,224 C221.5,224 223.5,226 223.5,229 C223.5,232 221.5,234 218.5,234 C221.5,234 223.5,236 223.5,239 C223.5,242 221.5,244 218.5,244 C221.5,244 223.5,246 223.5,249 C223.5,252 221.5,254 218.5,254 C221.5,254 223.5,256 223.5,259 C223.5,262 221.5,264 218.5,264 C221.5,264 223.5,266 223.5,269 C223.5,272 221.5,274 218.5,274 C221.5,274 223.5,276 223.5,279 C223.5,282 221.5,284 218.5,284 C221.5,284 223.5,286 223.5,289 C223.5,292 221.5,294 218.5,294 C221.5,294 223.5,296 223.5,299 C223.5,302 221.5,304 218.5,304 C221.5,304 223.5,306 223.5,309 C223.5,312 221.5,314 218.5,314 C218.5,317 215.5,319 213.5,319 C210.5,319 208.5,317 208.5,314 C208.5,317 205.5,319 203.5,319 C200.5,319 198.5,317 198.5,314 C198.5,317 195.5,319 193.5,319 C190.5,319 188.5,317 188.5,314 C188.5,317 185.5,319 183.5,319 C180.5,319 178.5,317 178.5,314 C178.5,317 175.5,319 173.5,319 C170.5,319 168.5,317 168.5,314 C168.5,317 165.5,319 163.5,319 C160.5,319 158.5,317 158.5,314 C158.5,317 155.5,319 153.5,319 C150.5,319 148.5,317 148.5,314 C148.5,317 145.5,319 143.5,319 C140.5,319 138.5,317 138.5,314 C138.5,317 135.5,319 133.5,319 C130.5,319 128.5,317 128.5,314 C128.5,317 125.5,319 123.5,319 C120.5,319 118.5,317 118.5,314 C118.5,317 115.5,319 113.5,319 C110.5,319 108.5,317 108.5,314 C108.5,317 105.5,319 103.5,319 C100.5,319 98.5,317 98.5,314 C98.5,317 95.5,319 93.5,319 C90.5,319 88.5,317 88.5,314 C88.5,317 85.5,319 83.5,319 C80.5,319 78.5,317 78.5,314 C78.5,317 75.5,319 73.5,319 C70.5,319 68.5,317 68.5,314 C68.5,317 65.5,319 63.5,319 C60.5,319 58.5,317 58.5,314 C55.5,314 53.5,312 53.5,309 C53.5,306 55.5,304 58.5,304 C55.5,304 53.5,302 53.5,299 C53.5,296 55.5,294 58.5,294 C55.5,294 53.5,292 53.5,289 C53.5,286 55.5,284 58.5,284 C55.5,284 53.5,282 53.5,279 C53.5,276 55.5,274 58.5,274 C55.5,274 53.5,272 53.5,269 C53.5,266 55.5,264 58.5,264 C55.5,264 53.5,262 53.5,259 C53.5,256 55.5,254 58.5,254 C55.5,254 53.5,252 53.5,249 C53.5,246 55.5,244 58.5,244 C55.5,244 53.5,242 53.5,239 C53.5,236 55.5,234 58.5,234 C55.5,234 53.5,232 53.5,229 C53.5,226 55.5,224 58.5,224 " fill="#FFFFFF" filter="url(#f1)" style="stroke: #000000; stroke-width: 2.0;"/><text fill="#000000" font-family="sans-serif" font-size="14" font-weight="bold" lengthAdjust="spacingAndGlyphs" textLength="49" x="112.5" y="242.3184">クラウド</text><path d="M98.5,268 C98.5,258 146.5,258 146.5,258 C146.5,258 194.5,258 194.5,268 L194.5,287 C194.5,297 146.5,297 146.5,297 C146.5,297 98.5,297 98.5,287 L98.5,268 " fill="#FEFECE" filter="url(#f1)" style="stroke: #000000; stroke-width: 1.5;"/><path d="M98.5,268 C98.5,278 146.5,278 146.5,278 C146.5,278 194.5,278 194.5,268 " fill="none" style="stroke: #000000; stroke-width: 1.5;"/><text fill="#000000" font-family="sans-serif" font-size="14" lengthAdjust="spacingAndGlyphs" textLength="76" x="108.5" y="290.3184">データベース</text><ellipse cx="63.5" cy="18" fill="#FEFECE" filter="url(#f1)" rx="8" ry="8" style="stroke: #A80036; stroke-width: 2.0;"/><path d="M63.5,26 L63.5,53 M50.5,34 L76.5,34 M63.5,53 L50.5,68 M63.5,53 L76.5,68 " fill="#FEFECE" filter="url(#f1)" style="stroke: #A80036; stroke-width: 2.0;"/><text fill="#000000" font-family="sans-serif" font-size="14" lengthAdjust="spacingAndGlyphs" textLength="40" x="43.5" y="87.3184">ユーザ</text><polygon fill="#FEFECE" filter="url(#f1)" points="24,159,34,149,103,149,103,183,93,193,24,193,24,159" style="stroke: #000000; stroke-width: 1.5;"/><line style="stroke: #000000; stroke-width: 1.5;" x1="93" x2="102" y1="159" y2="150"/><line style="stroke: #000000; stroke-width: 1.5;" x1="24" x2="93" y1="159" y2="159"/><line style="stroke: #000000; stroke-width: 1.5;" x1="93" x2="93" y1="159" y2="193"/><text fill="#000000" font-family="sans-serif" font-size="14" lengthAdjust="spacingAndGlyphs" textLength="39" x="39" y="181.3184">スマホ</text><polygon fill="#FEFECE" filter="url(#f1)" points="6,367,16,357,121,357,121,391,111,401,6,401,6,367" style="stroke: #000000; stroke-width: 1.5;"/><line style="stroke: #000000; stroke-width: 1.5;" x1="111" x2="120" y1="367" y2="358"/><line style="stroke: #000000; stroke-width: 1.5;" x1="6" x2="111" y1="367" y2="367"/><line style="stroke: #000000; stroke-width: 1.5;" x1="111" x2="111" y1="367" y2="401"/><text fill="#000000" font-family="sans-serif" font-size="14" lengthAdjust="spacingAndGlyphs" textLength="75" x="21" y="389.3184">raspberrypi</text><path d="M63.5,89.29 C63.5,109.17 63.5,132.423 63.5,148.85 " fill="none" style="stroke: #A80036; stroke-width: 1.0;"/><path d="M63.5,193.147 C63.5,200.311 63.5,208.702 63.5,217.349 " fill="none" style="stroke: #A80036; stroke-width: 1.0;"/><path d="M63.5,320.9876 C63.5,333.4412 63.5,346.5153 63.5,356.9974 " fill="none" style="stroke: #A80036; stroke-width: 1.0;"/></g></svg>