<?xml version="1.0" encoding="UTF-8" standalone="yes"?><svg xmlns="http://www.w3.org/2000/svg" xmlns:xlink="http://www.w3.org/1999/xlink" height="358px" style="width:363px;height:358px;" version="1.1" viewBox="0 0 363 358" width="363px"><defs><filter height="300%" id="f1" width="300%" x="-1" y="-1"><feGaussianBlur result="blurOut" stdDeviation="2.0"/><feColorMatrix in="blurOut" result="blurOut2" type="matrix" values="0 0 0 0 0 0 0 0 0 0 0 0 0 0 0 0 0 0 .4 0"/><feOffset dx="4.0" dy="4.0" in="blurOut2" result="blurOut3"/><feBlend in="SourceGraphic" in2="blurOut3" mode="normal"/></filter></defs><g><rect fill="#FEFECE" filter="url(#f1)" height="70" style="stroke: #A80036; stroke-width: 1.5;" width="112" x="6" y="8"/><ellipse cx="39.9" cy="24" fill="#ADD1B2" rx="11" ry="11" style="stroke: #A80036; stroke-width: 1.0;"/><path d="M43.2906,25.9844 Q42.8688,30.9688 39.5563,30.9688 Q37.6031,30.9688 36.5563,28.9688 Q35.6813,27.2969 35.6813,24.3594 Q35.6813,21.3438 36.65,19.5781 Q37.65,17.7031 39.5563,17.7031 Q42.5875,17.7031 43.2125,22.1406 L41.1344,22.1406 Q40.775,19.6719 39.5563,19.6719 Q37.8219,19.6719 37.8219,24.3594 Q37.8219,29 39.5719,29 Q41.0094,29 41.1656,25.9844 L43.2906,25.9844 Z "/><text fill="#000000" font-family="sans-serif" font-size="12" lengthAdjust="spacingAndGlyphs" textLength="38" x="58.1" y="28.5586">Object</text><line style="stroke: #A80036; stroke-width: 1.5;" x1="7" x2="117" y1="40" y2="40"/><text fill="#000000" font-family="sans-serif" font-size="11" lengthAdjust="spacingAndGlyphs" textLength="42" x="12" y="53.6787">int state</text><text fill="#000000" font-family="sans-serif" font-size="11" lengthAdjust="spacingAndGlyphs" textLength="100" x="12" y="64.6787">MinorObject minor</text><line style="stroke: #A80036; stroke-width: 1.5;" x1="7" x2="117" y1="70" y2="70"/><rect fill="#FEFECE" filter="url(#f1)" height="70" style="stroke: #A80036; stroke-width: 1.5;" width="102" x="102" y="138"/><ellipse cx="117" cy="154" fill="#ADD1B2" rx="11" ry="11" style="stroke: #A80036; stroke-width: 1.0;"/><path d="M120.3906,155.9844 Q119.9688,160.9688 116.6563,160.9688 Q114.7031,160.9688 113.6563,158.9688 Q112.7813,157.2969 112.7813,154.3594 Q112.7813,151.3438 113.75,149.5781 Q114.75,147.7031 116.6563,147.7031 Q119.6875,147.7031 120.3125,152.1406 L118.2344,152.1406 Q117.875,149.6719 116.6563,149.6719 Q114.9219,149.6719 114.9219,154.3594 Q114.9219,159 116.6719,159 Q118.1094,159 118.2656,155.9844 L120.3906,155.9844 Z "/><text fill="#000000" font-family="sans-serif" font-size="12" lengthAdjust="spacingAndGlyphs" textLength="70" x="131" y="158.5586">MinorObject</text><line style="stroke: #A80036; stroke-width: 1.5;" x1="103" x2="203" y1="170" y2="170"/><text fill="#000000" font-family="sans-serif" font-size="11" lengthAdjust="spacingAndGlyphs" textLength="58" x="108" y="183.6787">int counter</text><text fill="#000000" font-family="sans-serif" font-size="11" lengthAdjust="spacingAndGlyphs" textLength="90" x="108" y="194.6787">MinorSymbol top</text><line style="stroke: #A80036; stroke-width: 1.5;" x1="103" x2="203" y1="200" y2="200"/><rect fill="#FEFECE" filter="url(#f1)" height="59" style="stroke: #A80036; stroke-width: 1.5;" width="115" x="239.5" y="143.5"/><ellipse cx="273.85" cy="159.5" fill="#ADD1B2" rx="11" ry="11" style="stroke: #A80036; stroke-width: 1.0;"/><path d="M277.2406,161.4844 Q276.8188,166.4688 273.5063,166.4688 Q271.5531,166.4688 270.5063,164.4688 Q269.6313,162.7969 269.6313,159.8594 Q269.6313,156.8438 270.6,155.0781 Q271.6,153.2031 273.5063,153.2031 Q276.5375,153.2031 277.1625,157.6406 L275.0844,157.6406 Q274.725,155.1719 273.5063,155.1719 Q271.7719,155.1719 271.7719,159.8594 Q271.7719,164.5 273.5219,164.5 Q274.9594,164.5 275.1156,161.4844 L277.2406,161.4844 Z "/><text fill="#000000" font-family="sans-serif" font-size="12" lengthAdjust="spacingAndGlyphs" textLength="40" x="292.15" y="164.0586">Symbol</text><line style="stroke: #A80036; stroke-width: 1.5;" x1="240.5" x2="353.5" y1="175.5" y2="175.5"/><text fill="#000000" font-family="sans-serif" font-size="11" lengthAdjust="spacingAndGlyphs" textLength="103" x="245.5" y="189.1787">MinorSymbol minor</text><line style="stroke: #A80036; stroke-width: 1.5;" x1="240.5" x2="353.5" y1="194.5" y2="194.5"/><rect fill="#FEFECE" filter="url(#f1)" height="81" style="stroke: #A80036; stroke-width: 1.5;" width="114" x="96" y="268"/><ellipse cx="115.5" cy="284" fill="#ADD1B2" rx="11" ry="11" style="stroke: #A80036; stroke-width: 1.0;"/><path d="M118.8906,285.9844 Q118.4688,290.9688 115.1563,290.9688 Q113.2031,290.9688 112.1563,288.9688 Q111.2813,287.2969 111.2813,284.3594 Q111.2813,281.3438 112.25,279.5781 Q113.25,277.7031 115.1563,277.7031 Q118.1875,277.7031 118.8125,282.1406 L116.7344,282.1406 Q116.375,279.6719 115.1563,279.6719 Q113.4219,279.6719 113.4219,284.3594 Q113.4219,289 115.1719,289 Q116.6094,289 116.7656,285.9844 L118.8906,285.9844 Z "/><text fill="#000000" font-family="sans-serif" font-size="12" lengthAdjust="spacingAndGlyphs" textLength="72" x="130.5" y="288.5586">MinorSymbol</text><line style="stroke: #A80036; stroke-width: 1.5;" x1="97" x2="209" y1="300" y2="300"/><text fill="#000000" font-family="sans-serif" font-size="11" lengthAdjust="spacingAndGlyphs" textLength="101" x="102" y="313.6787">MinorObject owner</text><text fill="#000000" font-family="sans-serif" font-size="11" lengthAdjust="spacingAndGlyphs" textLength="102" x="102" y="324.6787">MinorSymbol pNext</text><text fill="#000000" font-family="sans-serif" font-size="11" lengthAdjust="spacingAndGlyphs" textLength="101" x="102" y="335.6787">MinorSymbol pPrev</text><line style="stroke: #A80036; stroke-width: 1.5;" x1="97" x2="209" y1="341" y2="341"/><rect fill="#FEFECE" filter="url(#f1)" height="59" style="stroke: #A80036; stroke-width: 1.5;" width="183" x="153.5" y="13.5"/><ellipse cx="212.75" cy="29.5" fill="#ADD1B2" rx="11" ry="11" style="stroke: #A80036; stroke-width: 1.0;"/><path d="M216.1406,31.4844 Q215.7188,36.4688 212.4063,36.4688 Q210.4531,36.4688 209.4063,34.4688 Q208.5313,32.7969 208.5313,29.8594 Q208.5313,26.8438 209.5,25.0781 Q210.5,23.2031 212.4063,23.2031 Q215.4375,23.2031 216.0625,27.6406 L213.9844,27.6406 Q213.625,25.1719 212.4063,25.1719 Q210.6719,25.1719 210.6719,29.8594 Q210.6719,34.5 212.4219,34.5 Q213.8594,34.5 214.0156,31.4844 L216.1406,31.4844 Z "/><text fill="#000000" font-family="sans-serif" font-size="12" lengthAdjust="spacingAndGlyphs" textLength="56" x="233.25" y="34.0586">MinorPool</text><line style="stroke: #A80036; stroke-width: 1.5;" x1="154.5" x2="335.5" y1="45.5" y2="45.5"/><text fill="#000000" font-family="sans-serif" font-size="11" lengthAdjust="spacingAndGlyphs" textLength="171" x="159.5" y="59.1787">Array&lt;MinorObject&gt; allMinorObj</text><line style="stroke: #A80036; stroke-width: 1.5;" x1="154.5" x2="335.5" y1="64.5" y2="64.5"/><path d="M140.76,220.999 C139.948,236.304 140.106,253.1315 141.234,267.8437 " fill="none" style="stroke: #A80036; stroke-width: 1.0;"/><polygon fill="none" points="141.723,208.033,137.2896,213.7203,140.8342,220,145.2676,214.3128,141.723,208.033" style="stroke: #A80036; stroke-width: 1.0;"/><text fill="#000000" font-family="sans-serif" font-size="13" lengthAdjust="spacingAndGlyphs" textLength="19" x="118.7118" y="258.4719">1..*</text><path d="M166.244,254.4618 C166.836,238.823 166.402,222.134 164.941,208.033 " fill="none" style="stroke: #A80036; stroke-width: 1.0;"/><polygon fill="none" points="165.459,267.8437,169.8036,262.0883,166.1619,255.8643,161.8173,261.6197,165.459,267.8437" style="stroke: #A80036; stroke-width: 1.0;"/><path d="M223.292,284.7775 C236.056,287.8 245,295.7075 245,308.5 C245,325.3809 229.426,333.7553 210.05,333.6235 " fill="none" style="stroke: #A80036; stroke-width: 1.0;"/><polygon fill="none" points="210.05,283.3765,215.5956,287.9859,221.9833,284.6398,216.4378,280.0304,210.05,283.3765" style="stroke: #A80036; stroke-width: 1.0;"/><path d="M256.316,211.717 C237.44,229.218 214.996,250.0245 195.857,267.7676 " fill="none" style="stroke: #A80036; stroke-width: 1.0;"/><polygon fill="#A80036" points="266.108,202.639,258.9885,203.7846,257.3077,210.7971,264.4272,209.6515,266.108,202.639" style="stroke: #A80036; stroke-width: 1.0;"/><text fill="#000000" font-family="sans-serif" font-size="13" lengthAdjust="spacingAndGlyphs" textLength="22" x="179.1333" y="258.3832">0..1</text><path d="M94.0057,89.019 C105.3522,104.979 117.93,122.67 128.546,137.604 " fill="none" style="stroke: #A80036; stroke-width: 1.0;"/><polygon fill="#A80036" points="86.3863,78.302,86.6023,85.5099,93.3387,88.0828,93.1228,80.8749,86.3863,78.302" style="stroke: #A80036; stroke-width: 1.0;"/><text fill="#000000" font-family="sans-serif" font-size="13" lengthAdjust="spacingAndGlyphs" textLength="22" x="100.0092" y="128.3179">0..1</text><path d="M216.485,83.673 C203.996,101.049 189.487,121.235 177.495,137.92 " fill="none" style="stroke: #A80036; stroke-width: 1.0;"/><polygon fill="none" points="224.353,72.726,217.6032,75.2639,217.3499,82.4705,224.0996,79.9326,224.353,72.726" style="stroke: #A80036; stroke-width: 1.0;"/><text fill="#000000" font-family="sans-serif" font-size="13" lengthAdjust="spacingAndGlyphs" textLength="19" x="161.3534" y="128.4323">1..*</text></g></svg>