<?xml version="1.0" encoding="UTF-8" standalone="no"?>
<!DOCTYPE svg PUBLIC "-//W3C//DTD SVG 1.1//EN"
 "http://www.w3.org/Graphics/SVG/1.1/DTD/svg11.dtd">
<!-- Generated by graphviz version 2.38.0 (20140413.2041)
 -->
<!-- Title: G Pages: 1 -->
<svg width="364pt" height="175pt"
 viewBox="0.00 0.00 364.00 175.00" xmlns="http://www.w3.org/2000/svg" xmlns:xlink="http://www.w3.org/1999/xlink">
<g id="graph0" class="graph" transform="scale(1 1) rotate(0) translate(4 171)">
<title>G</title>
<polygon fill="white" stroke="none" points="-4,4 -4,-171 360,-171 360,4 -4,4"/>
<g id="clust1" class="cluster"><title>cluster_obj</title>
<polygon fill="none" stroke="black" points="98,-8 98,-159 348,-159 348,-8 98,-8"/>
<text text-anchor="middle" x="223" y="-143.8" font-family="Times,serif" font-size="14.00">object</text>
</g>
<g id="clust2" class="cluster"><title>cluster_var</title>
<polygon fill="none" stroke="black" points="8,-36 8,-122 78,-122 78,-36 8,-36"/>
<text text-anchor="middle" x="43" y="-106.8" font-family="Times,serif" font-size="14.00">variable</text>
</g>
<!-- node_var -->
<g id="node1" class="node"><title>node_var</title>
<polygon fill="none" stroke="black" points="16,-44 16,-90 70,-90 70,-44 16,-44"/>
<text text-anchor="middle" x="43" y="-74.8" font-family="Times,serif" font-size="14.00">var1</text>
<polyline fill="none" stroke="black" points="16,-67 70,-67 "/>
<text text-anchor="middle" x="43" y="-51.8" font-family="Times,serif" font-size="14.00">var2</text>
</g>
<!-- node_obj1 -->
<g id="node2" class="node"><title>node_obj1</title>
<polygon fill="none" stroke="black" points="106,-81 106,-127 160,-127 160,-81 106,-81"/>
<text text-anchor="middle" x="133" y="-111.8" font-family="Times,serif" font-size="14.00">obj1</text>
<polyline fill="none" stroke="black" points="106,-104 160,-104 "/>
<text text-anchor="middle" x="133" y="-88.8" font-family="Times,serif" font-size="14.00">mbr2</text>
</g>
<!-- node_var&#45;&gt;node_obj1 -->
<g id="edge5" class="edge"><title>node_var:var1&#45;&gt;node_obj1:obj</title>
<path fill="none" stroke="black" d="M71,-79C89.1456,-79 85.5066,-103.426 95.483,-112.585"/>
<polygon fill="black" stroke="black" points="94.4055,-115.917 105,-116 96.7695,-109.328 94.4055,-115.917"/>
</g>
<!-- node_obj4 -->
<g id="node5" class="node"><title>node_obj4</title>
<polygon fill="none" stroke="black" points="286,-16 286,-62 340,-62 340,-16 286,-16"/>
<text text-anchor="middle" x="313" y="-46.8" font-family="Times,serif" font-size="14.00">obj4</text>
<polyline fill="none" stroke="black" points="286,-39 340,-39 "/>
<text text-anchor="middle" x="313" y="-23.8" font-family="Times,serif" font-size="14.00">mbr</text>
</g>
<!-- node_var&#45;&gt;node_obj4 -->
<g id="edge6" class="edge"><title>node_var:var2&#45;&gt;node_obj4:obj</title>
<path fill="none" stroke="black" d="M71,-55C151.39,-55 172.614,-7.22635 250,-29 264.102,-32.9678 266.697,-44.1636 276.099,-48.872"/>
<polygon fill="black" stroke="black" points="275.488,-52.3204 286,-51 276.959,-45.4767 275.488,-52.3204"/>
</g>
<!-- node_obj2 -->
<g id="node3" class="node"><title>node_obj2</title>
<polygon fill="none" stroke="black" points="196,-38.5 196,-107.5 250,-107.5 250,-38.5 196,-38.5"/>
<text text-anchor="middle" x="223" y="-92.3" font-family="Times,serif" font-size="14.00">obj2</text>
<polyline fill="none" stroke="black" points="196,-84.5 250,-84.5 "/>
<text text-anchor="middle" x="223" y="-69.3" font-family="Times,serif" font-size="14.00">mbr3</text>
<polyline fill="none" stroke="black" points="196,-61.5 250,-61.5 "/>
<text text-anchor="middle" x="223" y="-46.3" font-family="Times,serif" font-size="14.00">mbr4</text>
</g>
<!-- node_obj1&#45;&gt;node_obj2 -->
<g id="edge1" class="edge"><title>node_obj1:mbr2&#45;&gt;node_obj2:obj</title>
<path fill="none" stroke="black" d="M160,-92C172.074,-92 177.232,-94.25 185.847,-95.375"/>
<polygon fill="black" stroke="black" points="185.804,-98.8789 196,-96 186.234,-91.8921 185.804,-98.8789"/>
</g>
<!-- node_obj3 -->
<g id="node4" class="node"><title>node_obj3</title>
<polygon fill="none" stroke="black" points="286,-81 286,-127 340,-127 340,-81 286,-81"/>
<text text-anchor="middle" x="313" y="-111.8" font-family="Times,serif" font-size="14.00">obj3</text>
<polyline fill="none" stroke="black" points="286,-104 340,-104 "/>
<text text-anchor="middle" x="313" y="-88.8" font-family="Times,serif" font-size="14.00">mbr1</text>
</g>
<!-- node_obj2&#45;&gt;node_obj3 -->
<g id="edge2" class="edge"><title>node_obj2:mbr3&#45;&gt;node_obj3:obj</title>
<path fill="none" stroke="black" d="M250,-73C270.641,-73 264.691,-102.489 276.191,-112.626"/>
<polygon fill="black" stroke="black" points="275.405,-116.057 286,-116 277.682,-109.438 275.405,-116.057"/>
</g>
<!-- node_obj2&#45;&gt;node_obj4 -->
<g id="edge3" class="edge"><title>node_obj2:mbr4&#45;&gt;node_obj4:obj</title>
<path fill="none" stroke="black" d="M250,-50C262.005,-50 267.249,-50.5625 275.873,-50.8438"/>
<polygon fill="black" stroke="black" points="275.947,-54.3452 286,-51 276.055,-47.346 275.947,-54.3452"/>
</g>
<!-- node_obj3&#45;&gt;node_obj1 -->
<g id="edge4" class="edge"><title>node_obj3:mbr1&#45;&gt;node_obj1:obj</title>
<path fill="none" stroke="black" d="M286,-92C266.52,-92 268.589,-111.178 250,-117 215.255,-127.881 202.34,-118.127 170.139,-116.286"/>
<polygon fill="black" stroke="black" points="170.095,-112.784 160,-116 169.897,-119.781 170.095,-112.784"/>
</g>
</g>
</svg>
