<?xml version="1.0" encoding="UTF-8" standalone="no"?>
<!DOCTYPE svg PUBLIC "-//W3C//DTD SVG 1.1//EN"
 "http://www.w3.org/Graphics/SVG/1.1/DTD/svg11.dtd">
<!-- Generated by graphviz version 2.38.0 (20140413.2041)
 -->
<!-- Title: G Pages: 1 -->
<svg width="451pt" height="398pt"
 viewBox="0.00 0.00 451.18 398.00" xmlns="http://www.w3.org/2000/svg" xmlns:xlink="http://www.w3.org/1999/xlink">
<g id="graph0" class="graph" transform="scale(1 1) rotate(0) translate(4 394)">
<title>G</title>
<polygon fill="white" stroke="none" points="-4,4 -4,-394 447.181,-394 447.181,4 -4,4"/>
<g id="clust1" class="cluster"><title>cluster_var</title>
<polygon fill="none" stroke="black" points="8,-253 8,-382 78,-382 78,-253 8,-253"/>
<text text-anchor="middle" x="43" y="-366.8" font-family="Times,serif" font-size="14.00">variable</text>
</g>
<g id="clust2" class="cluster"><title>cluster_minor</title>
<polygon fill="none" stroke="black" points="98,-192 98,-285 435.181,-285 435.181,-192 98,-192"/>
<text text-anchor="middle" x="266.591" y="-269.8" font-family="Times,serif" font-size="14.00">minor</text>
</g>
<g id="clust3" class="cluster"><title>cluster_mbr</title>
<polygon fill="none" stroke="black" points="8,-8 8,-245 78,-245 78,-8 8,-8"/>
<text text-anchor="middle" x="43" y="-229.8" font-family="Times,serif" font-size="14.00">member</text>
</g>
<!-- var1 -->
<g id="node1" class="node"><title>var1</title>
<polygon fill="none" stroke="black" points="70,-297 16,-297 16,-261 70,-261 70,-297"/>
<text text-anchor="middle" x="43" y="-275.3" font-family="Times,serif" font-size="14.00">var1</text>
</g>
<!-- obj1 -->
<g id="node3" class="node"><title>obj1</title>
<ellipse fill="none" stroke="black" cx="132.648" cy="-227" rx="26.7961" ry="26.7961"/>
<text text-anchor="middle" x="132.648" y="-223.3" font-family="Times,serif" font-size="14.00">obj1</text>
</g>
<!-- var1&#45;&gt;obj1 -->
<g id="edge4" class="edge"><title>var1&#45;&gt;obj1</title>
<path fill="none" stroke="black" d="M79.0153,-258.226C86.0146,-254.073 93.3266,-249.735 100.197,-245.659"/>
<polygon fill="black" stroke="black" points="77.1116,-255.286 70.2972,-263.398 80.6834,-261.306 77.1116,-255.286"/>
<polygon fill="black" stroke="black" points="102.406,-248.418 109.22,-240.306 98.834,-242.398 102.406,-248.418"/>
</g>
<!-- var2 -->
<g id="node2" class="node"><title>var2</title>
<polygon fill="none" stroke="black" points="70,-351 16,-351 16,-315 70,-315 70,-351"/>
<text text-anchor="middle" x="43" y="-329.3" font-family="Times,serif" font-size="14.00">var2</text>
</g>
<!-- obj4 -->
<g id="node6" class="node"><title>obj4</title>
<ellipse fill="none" stroke="black" cx="400.533" cy="-227" rx="26.7961" ry="26.7961"/>
<text text-anchor="middle" x="400.533" y="-223.3" font-family="Times,serif" font-size="14.00">obj4</text>
</g>
<!-- var2&#45;&gt;obj4 -->
<g id="edge5" class="edge"><title>var2&#45;&gt;obj4</title>
<path fill="none" stroke="black" d="M80.124,-334.105C137.883,-334.391 253.139,-328.788 337.886,-285 352.206,-277.601 365.572,-265.894 376.173,-254.93"/>
<polygon fill="black" stroke="black" points="80.0674,-330.604 70.0285,-333.991 79.9884,-337.604 80.0674,-330.604"/>
<polygon fill="black" stroke="black" points="378.812,-257.231 383.048,-247.52 373.681,-252.47 378.812,-257.231"/>
</g>
<!-- obj2 -->
<g id="node4" class="node"><title>obj2</title>
<ellipse fill="none" stroke="black" cx="221.943" cy="-227" rx="26.7961" ry="26.7961"/>
<text text-anchor="middle" x="221.943" y="-223.3" font-family="Times,serif" font-size="14.00">obj2</text>
</g>
<!-- obj1&#45;&gt;obj2 -->
<g id="edge1" class="edge"><title>obj1&#45;&gt;obj2</title>
<path fill="none" stroke="black" d="M159.367,-227C167.376,-227 176.36,-227 184.938,-227"/>
<polygon fill="black" stroke="black" points="185.106,-230.5 195.106,-227 185.106,-223.5 185.106,-230.5"/>
</g>
<!-- obj3 -->
<g id="node5" class="node"><title>obj3</title>
<ellipse fill="none" stroke="black" cx="311.238" cy="-227" rx="26.7961" ry="26.7961"/>
<text text-anchor="middle" x="311.238" y="-223.3" font-family="Times,serif" font-size="14.00">obj3</text>
</g>
<!-- obj2&#45;&gt;obj3 -->
<g id="edge2" class="edge"><title>obj2&#45;&gt;obj3</title>
<path fill="none" stroke="black" d="M248.662,-227C256.671,-227 265.655,-227 274.233,-227"/>
<polygon fill="black" stroke="black" points="274.401,-230.5 284.401,-227 274.401,-223.5 274.401,-230.5"/>
</g>
<!-- obj3&#45;&gt;obj4 -->
<g id="edge3" class="edge"><title>obj3&#45;&gt;obj4</title>
<path fill="none" stroke="black" d="M337.957,-227C345.967,-227 354.951,-227 363.528,-227"/>
<polygon fill="black" stroke="black" points="363.696,-230.5 373.696,-227 363.696,-223.5 363.696,-230.5"/>
</g>
<!-- mbr2 -->
<g id="node7" class="node"><title>mbr2</title>
<polygon fill="none" stroke="black" points="70,-160 16,-160 16,-124 70,-124 70,-160"/>
<text text-anchor="middle" x="43" y="-138.3" font-family="Times,serif" font-size="14.00">mbr2</text>
</g>
<!-- mbr2&#45;&gt;obj1 -->
<g id="edge10" class="edge"><title>mbr2&#45;&gt;obj1</title>
<path fill="none" stroke="black" stroke-dasharray="5,2" d="M67.8025,-160.135C71.2963,-163.016 74.7945,-166.027 78,-169 88.2371,-178.494 98.8149,-189.608 107.844,-199.552"/>
<polygon fill="black" stroke="black" points="105.437,-202.111 114.717,-207.223 110.651,-197.44 105.437,-202.111"/>
</g>
<!-- mbr2&#45;&gt;obj2 -->
<g id="edge6" class="edge"><title>mbr2&#45;&gt;obj2</title>
<path fill="none" stroke="black" d="M79.8706,-151.928C103.186,-159.057 133.863,-169.735 159.295,-183 170.772,-188.986 182.537,-196.874 192.673,-204.317"/>
<polygon fill="black" stroke="black" points="80.6277,-148.501 70.0446,-148.999 78.6281,-155.209 80.6277,-148.501"/>
<polygon fill="black" stroke="black" points="190.668,-207.189 200.761,-210.412 194.881,-201.598 190.668,-207.189"/>
</g>
<!-- mbr3 -->
<g id="node8" class="node"><title>mbr3</title>
<polygon fill="none" stroke="black" points="70,-52 16,-52 16,-16 70,-16 70,-52"/>
<text text-anchor="middle" x="43" y="-30.3" font-family="Times,serif" font-size="14.00">mbr3</text>
</g>
<!-- mbr3&#45;&gt;obj2 -->
<g id="edge11" class="edge"><title>mbr3&#45;&gt;obj2</title>
<path fill="none" stroke="black" stroke-dasharray="5,2" d="M67.8923,-52.0399C71.3737,-54.9334 74.8446,-57.9741 78,-61 124.436,-105.529 171.919,-163.693 198.789,-198.029"/>
<polygon fill="black" stroke="black" points="196.26,-200.478 205.163,-206.222 201.785,-196.18 196.26,-200.478"/>
</g>
<!-- mbr3&#45;&gt;obj3 -->
<g id="edge7" class="edge"><title>mbr3&#45;&gt;obj3</title>
<path fill="none" stroke="black" d="M80.0681,-44.3156C103.634,-51.9418 134.519,-63.6582 159.295,-79 211.936,-111.595 260.747,-165.503 287.916,-198.478"/>
<polygon fill="black" stroke="black" points="81.0447,-40.9538 70.4555,-41.2989 78.9487,-47.6326 81.0447,-40.9538"/>
<polygon fill="black" stroke="black" points="285.321,-200.835 294.346,-206.385 290.752,-196.419 285.321,-200.835"/>
</g>
<!-- mbr4 -->
<g id="node9" class="node"><title>mbr4</title>
<polygon fill="none" stroke="black" points="70,-214 16,-214 16,-178 70,-178 70,-214"/>
<text text-anchor="middle" x="43" y="-192.3" font-family="Times,serif" font-size="14.00">mbr4</text>
</g>
<!-- mbr4&#45;&gt;obj2 -->
<g id="edge12" class="edge"><title>mbr4&#45;&gt;obj2</title>
<path fill="none" stroke="black" stroke-dasharray="5,2" d="M70.1402,-190.413C93.839,-186.387 129.512,-182.941 159.295,-191 170.562,-194.049 181.881,-199.726 191.691,-205.685"/>
<polygon fill="black" stroke="black" points="189.924,-208.711 200.229,-211.17 193.707,-202.821 189.924,-208.711"/>
</g>
<!-- mbr4&#45;&gt;obj4 -->
<g id="edge8" class="edge"><title>mbr4&#45;&gt;obj4</title>
<path fill="none" stroke="black" d="M57.8076,-222.902C66.9994,-237.686 80.5896,-254.671 98,-263 194.177,-309.01 234.971,-290.849 337.886,-263 349.152,-259.951 360.472,-254.274 370.281,-248.315"/>
<polygon fill="black" stroke="black" points="60.7215,-220.951 52.658,-214.079 54.6759,-224.48 60.7215,-220.951"/>
<polygon fill="black" stroke="black" points="372.298,-251.179 378.82,-242.83 368.515,-245.289 372.298,-251.179"/>
</g>
<!-- mbr1 -->
<g id="node10" class="node"><title>mbr1</title>
<polygon fill="none" stroke="black" points="70,-106 16,-106 16,-70 70,-70 70,-106"/>
<text text-anchor="middle" x="43" y="-84.3" font-family="Times,serif" font-size="14.00">mbr1</text>
</g>
<!-- mbr1&#45;&gt;obj1 -->
<g id="edge9" class="edge"><title>mbr1&#45;&gt;obj1</title>
<path fill="none" stroke="black" d="M76.8255,-113.573C77.2263,-114.046 77.6182,-114.521 78,-115 96.4661,-138.157 110.562,-168.712 119.661,-192.058"/>
<polygon fill="black" stroke="black" points="79.1934,-110.988 69.706,-106.273 74.1818,-115.876 79.1934,-110.988"/>
<polygon fill="black" stroke="black" points="116.448,-193.458 123.252,-201.579 122.997,-190.987 116.448,-193.458"/>
</g>
<!-- mbr1&#45;&gt;obj3 -->
<g id="edge13" class="edge"><title>mbr1&#45;&gt;obj3</title>
<path fill="none" stroke="black" stroke-dasharray="5,2" d="M70.1041,-100.497C109.255,-119.385 185.337,-156.652 248.591,-191 258.578,-196.423 269.32,-202.58 278.994,-208.249"/>
<polygon fill="black" stroke="black" points="277.492,-211.427 287.883,-213.495 281.05,-205.399 277.492,-211.427"/>
</g>
</g>
</svg>
