<?xml version="1.0" encoding="UTF-8" standalone="no"?>
<!DOCTYPE svg PUBLIC "-//W3C//DTD SVG 1.1//EN"
 "http://www.w3.org/Graphics/SVG/1.1/DTD/svg11.dtd">
<!-- Generated by graphviz version 2.38.0 (20140413.2041)
 -->
<!-- Title: G Pages: 1 -->
<svg width="184pt" height="117pt"
 viewBox="0.00 0.00 184.00 117.00" xmlns="http://www.w3.org/2000/svg" xmlns:xlink="http://www.w3.org/1999/xlink">
<g id="graph0" class="graph" transform="scale(1 1) rotate(0) translate(4 113)">
<title>G</title>
<polygon fill="white" stroke="none" points="-4,4 -4,-113 180,-113 180,4 -4,4"/>
<g id="clust1" class="cluster"><title>cluster_obj</title>
<polygon fill="none" stroke="black" points="98,-8 98,-94 168,-94 168,-8 98,-8"/>
<text text-anchor="middle" x="133" y="-78.8" font-family="Times,serif" font-size="14.00">object</text>
</g>
<g id="clust2" class="cluster"><title>cluster_var</title>
<polygon fill="none" stroke="black" points="8,-24 8,-101 78,-101 78,-24 8,-24"/>
<text text-anchor="middle" x="43" y="-85.8" font-family="Times,serif" font-size="14.00">variable</text>
</g>
<!-- node_var -->
<g id="node1" class="node"><title>node_var</title>
<polygon fill="none" stroke="black" points="16,-33 16,-69 70,-69 70,-33 16,-33"/>
<text text-anchor="middle" x="43" y="-47.3" font-family="Times,serif" font-size="14.00">var2</text>
</g>
<!-- node_obj4 -->
<g id="node2" class="node"><title>node_obj4</title>
<polygon fill="none" stroke="black" points="106,-16 106,-62 160,-62 160,-16 106,-16"/>
<text text-anchor="middle" x="133" y="-46.8" font-family="Times,serif" font-size="14.00">obj4</text>
<polyline fill="none" stroke="black" points="106,-39 160,-39 "/>
<text text-anchor="middle" x="133" y="-23.8" font-family="Times,serif" font-size="14.00">mbr</text>
</g>
<!-- node_var&#45;&gt;node_obj4 -->
<g id="edge1" class="edge"><title>node_var:var2&#45;&gt;node_obj4:obj</title>
<path fill="none" stroke="black" d="M70.1618,-51C77.8667,-51 86.4577,-51 94.8804,-51"/>
<polygon fill="black" stroke="black" points="95,-54.5001 105,-51 95,-47.5001 95,-54.5001"/>
</g>
</g>
</svg>
