<?xml version="1.0" encoding="UTF-8" standalone="no"?>
<!DOCTYPE svg PUBLIC "-//W3C//DTD SVG 1.1//EN"
 "http://www.w3.org/Graphics/SVG/1.1/DTD/svg11.dtd">
<!-- Generated by graphviz version 2.38.0 (20140413.2041)
 -->
<!-- Title: G Pages: 1 -->
<svg width="274pt" height="260pt"
 viewBox="0.00 0.00 274.00 260.00" xmlns="http://www.w3.org/2000/svg" xmlns:xlink="http://www.w3.org/1999/xlink">
<g id="graph0" class="graph" transform="scale(1 1) rotate(0) translate(4 256)">
<title>G</title>
<polygon fill="white" stroke="none" points="-4,4 -4,-256 270,-256 270,4 -4,4"/>
<g id="clust1" class="cluster"><title>cluster_obj</title>
<polygon fill="none" stroke="black" points="8,-8 8,-159 258,-159 258,-8 8,-8"/>
<text text-anchor="middle" x="133" y="-143.8" font-family="Times,serif" font-size="14.00">object</text>
</g>
<g id="clust2" class="cluster"><title>cluster_var</title>
<polygon fill="none" stroke="black" points="98,-167 98,-244 168,-244 168,-167 98,-167"/>
<text text-anchor="middle" x="133" y="-228.8" font-family="Times,serif" font-size="14.00">variable</text>
</g>
<!-- node_var -->
<g id="node1" class="node"><title>node_var</title>
<polygon fill="none" stroke="black" points="106,-176 106,-212 160,-212 160,-176 106,-176"/>
<text text-anchor="middle" x="133" y="-190.3" font-family="Times,serif" font-size="14.00">var2</text>
</g>
<!-- node_obj4 -->
<g id="node5" class="node"><title>node_obj4</title>
<polygon fill="none" stroke="black" points="196,-81 196,-127 250,-127 250,-81 196,-81"/>
<text text-anchor="middle" x="223" y="-111.8" font-family="Times,serif" font-size="14.00">obj4</text>
<polyline fill="none" stroke="black" points="196,-104 250,-104 "/>
<text text-anchor="middle" x="223" y="-88.8" font-family="Times,serif" font-size="14.00">mbr</text>
</g>
<!-- node_var&#45;&gt;node_obj4 -->
<g id="edge5" class="edge"><title>node_var:var2&#45;&gt;node_obj4:obj</title>
<path fill="none" stroke="black" d="M160.251,-175.737C178.641,-156.298 168.724,-125.65 185.967,-117.853"/>
<polygon fill="black" stroke="black" points="186.802,-121.258 196,-116 185.531,-114.374 186.802,-121.258"/>
</g>
<!-- node_obj1 -->
<g id="node2" class="node"><title>node_obj1</title>
<polygon fill="none" stroke="black" points="16,-48 16,-94 70,-94 70,-48 16,-48"/>
<text text-anchor="middle" x="43" y="-78.8" font-family="Times,serif" font-size="14.00">obj1</text>
<polyline fill="none" stroke="black" points="16,-71 70,-71 "/>
<text text-anchor="middle" x="43" y="-55.8" font-family="Times,serif" font-size="14.00">mbr2</text>
</g>
<!-- node_obj2 -->
<g id="node3" class="node"><title>node_obj2</title>
<polygon fill="none" stroke="black" points="106,-58.5 106,-127.5 160,-127.5 160,-58.5 106,-58.5"/>
<text text-anchor="middle" x="133" y="-112.3" font-family="Times,serif" font-size="14.00">obj2</text>
<polyline fill="none" stroke="black" points="106,-104.5 160,-104.5 "/>
<text text-anchor="middle" x="133" y="-89.3" font-family="Times,serif" font-size="14.00">mbr3</text>
<polyline fill="none" stroke="black" points="106,-81.5 160,-81.5 "/>
<text text-anchor="middle" x="133" y="-66.3" font-family="Times,serif" font-size="14.00">mbr4</text>
</g>
<!-- node_obj1&#45;&gt;node_obj2 -->
<g id="edge1" class="edge"><title>node_obj1:mbr2&#45;&gt;node_obj2:obj</title>
<path fill="none" stroke="black" d="M70,-59C95.5475,-59 81.0787,-101.096 95.3717,-112.935"/>
<polygon fill="black" stroke="black" points="94.4095,-116.302 105,-116 96.5326,-109.632 94.4095,-116.302"/>
</g>
<!-- node_obj3 -->
<g id="node4" class="node"><title>node_obj3</title>
<polygon fill="none" stroke="black" points="196,-16 196,-62 250,-62 250,-16 196,-16"/>
<text text-anchor="middle" x="223" y="-46.8" font-family="Times,serif" font-size="14.00">obj3</text>
<polyline fill="none" stroke="black" points="196,-39 250,-39 "/>
<text text-anchor="middle" x="223" y="-23.8" font-family="Times,serif" font-size="14.00">mbr4</text>
</g>
<!-- node_obj2&#45;&gt;node_obj3 -->
<g id="edge2" class="edge"><title>node_obj2:mbr3&#45;&gt;node_obj3:obj</title>
<path fill="none" stroke="black" d="M161,-93C181.122,-93 175.256,-64.1968 186.445,-54.2957"/>
<polygon fill="black" stroke="black" points="187.688,-57.5693 196,-51 185.405,-50.9519 187.688,-57.5693"/>
</g>
<!-- node_obj2&#45;&gt;node_obj4 -->
<g id="edge3" class="edge"><title>node_obj2:mbr4&#45;&gt;node_obj4:obj</title>
<path fill="none" stroke="black" d="M161,-70C182.475,-70 174.553,-102.144 186.381,-112.692"/>
<polygon fill="black" stroke="black" points="185.405,-116.057 196,-116 187.682,-109.438 185.405,-116.057"/>
</g>
<!-- node_obj3&#45;&gt;node_obj1 -->
<g id="edge4" class="edge"><title>node_obj3:mbr1&#45;&gt;node_obj1:obj</title>
<path fill="none" stroke="black" d="M195.913,-40.0467C161.756,-41.5391 106.445,-44.5945 98,-49 84.7119,-55.9323 86.8331,-72.1797 79.7718,-79.4149"/>
<polygon fill="black" stroke="black" points="78.1825,-76.2697 70,-83 80.5937,-82.8414 78.1825,-76.2697"/>
</g>
</g>
</svg>
