<?xml version="1.0" encoding="UTF-8" standalone="no"?>
<!DOCTYPE svg PUBLIC "-//W3C//DTD SVG 1.1//EN"
 "http://www.w3.org/Graphics/SVG/1.1/DTD/svg11.dtd">
<!-- Generated by graphviz version 2.38.0 (20140413.2041)
 -->
<!-- Title: G Pages: 1 -->
<svg width="452pt" height="268pt"
 viewBox="0.00 0.00 451.89 267.75" xmlns="http://www.w3.org/2000/svg" xmlns:xlink="http://www.w3.org/1999/xlink">
<g id="graph0" class="graph" transform="scale(1 1) rotate(0) translate(4 263.748)">
<title>G</title>
<polygon fill="white" stroke="none" points="-4,4 -4,-263.748 447.886,-263.748 447.886,4 -4,4"/>
<g id="clust1" class="cluster"><title>cluster_var</title>
<polygon fill="none" stroke="black" points="276.591,-156.748 276.591,-231.748 346.591,-231.748 346.591,-156.748 276.591,-156.748"/>
<text text-anchor="middle" x="311.591" y="-216.548" font-family="Times,serif" font-size="14.00">variable</text>
</g>
<g id="clust2" class="cluster"><title>cluster_minor</title>
<polygon fill="none" stroke="black" points="98,-55.7479 98,-148.748 435.886,-148.748 435.886,-55.7479 98,-55.7479"/>
<text text-anchor="middle" x="266.943" y="-133.548" font-family="Times,serif" font-size="14.00">minor</text>
</g>
<g id="clust3" class="cluster"><title>cluster_mbr</title>
<polygon fill="none" stroke="black" points="8,-14.7479 8,-251.748 78,-251.748 78,-14.7479 8,-14.7479"/>
<text text-anchor="middle" x="43" y="-236.548" font-family="Times,serif" font-size="14.00">member</text>
</g>
<!-- var2 -->
<g id="node1" class="node"><title>var2</title>
<polygon fill="none" stroke="black" points="338.591,-200.748 284.591,-200.748 284.591,-164.748 338.591,-164.748 338.591,-200.748"/>
<text text-anchor="middle" x="311.591" y="-179.048" font-family="Times,serif" font-size="14.00">var2</text>
</g>
<!-- obj4 -->
<g id="node5" class="node"><title>obj4</title>
<ellipse fill="none" stroke="black" cx="401.238" cy="-90.7479" rx="26.7961" ry="26.7961"/>
<text text-anchor="middle" x="401.238" y="-87.0479" font-family="Times,serif" font-size="14.00">obj4</text>
</g>
<!-- var2&#45;&gt;obj4 -->
<g id="edge4" class="edge"><title>var2&#45;&gt;obj4</title>
<path fill="none" stroke="black" d="M341.691,-157.547C343.37,-155.946 345.015,-154.338 346.591,-152.748 357.046,-142.19 367.896,-129.933 377.079,-119.119"/>
<polygon fill="black" stroke="black" points="339.186,-155.096 334.214,-164.451 343.935,-160.238 339.186,-155.096"/>
<polygon fill="black" stroke="black" points="379.993,-121.091 383.742,-111.182 374.632,-116.59 379.993,-121.091"/>
</g>
<!-- obj1 -->
<g id="node2" class="node"><title>obj1</title>
<ellipse fill="none" stroke="black" cx="132.648" cy="-90.7479" rx="26.7961" ry="26.7961"/>
<text text-anchor="middle" x="132.648" y="-87.0479" font-family="Times,serif" font-size="14.00">obj1</text>
</g>
<!-- obj2 -->
<g id="node3" class="node"><title>obj2</title>
<ellipse fill="none" stroke="black" cx="221.943" cy="-90.7479" rx="26.7961" ry="26.7961"/>
<text text-anchor="middle" x="221.943" y="-87.0479" font-family="Times,serif" font-size="14.00">obj2</text>
</g>
<!-- obj1&#45;&gt;obj2 -->
<g id="edge1" class="edge"><title>obj1&#45;&gt;obj2</title>
<path fill="none" stroke="black" d="M159.367,-90.7479C167.376,-90.7479 176.36,-90.7479 184.938,-90.7479"/>
<polygon fill="black" stroke="black" points="185.106,-94.248 195.106,-90.7479 185.106,-87.248 185.106,-94.248"/>
</g>
<!-- obj3 -->
<g id="node4" class="node"><title>obj3</title>
<ellipse fill="none" stroke="black" cx="311.591" cy="-90.7479" rx="26.7961" ry="26.7961"/>
<text text-anchor="middle" x="311.591" y="-87.0479" font-family="Times,serif" font-size="14.00">obj3</text>
</g>
<!-- obj2&#45;&gt;obj3 -->
<g id="edge2" class="edge"><title>obj2&#45;&gt;obj3</title>
<path fill="none" stroke="black" d="M248.766,-90.7479C256.807,-90.7479 265.828,-90.7479 274.44,-90.7479"/>
<polygon fill="black" stroke="black" points="274.649,-94.248 284.649,-90.7479 274.649,-87.248 274.649,-94.248"/>
</g>
<!-- obj3&#45;&gt;obj4 -->
<g id="edge3" class="edge"><title>obj3&#45;&gt;obj4</title>
<path fill="none" stroke="black" d="M338.414,-90.7479C346.455,-90.7479 355.475,-90.7479 364.087,-90.7479"/>
<polygon fill="black" stroke="black" points="364.297,-94.248 374.297,-90.7479 364.297,-87.248 364.297,-94.248"/>
</g>
<!-- mbr2 -->
<g id="node6" class="node"><title>mbr2</title>
<polygon fill="none" stroke="black" points="70,-58.7479 16,-58.7479 16,-22.7479 70,-22.7479 70,-58.7479"/>
<text text-anchor="middle" x="43" y="-37.0479" font-family="Times,serif" font-size="14.00">mbr2</text>
</g>
<!-- mbr2&#45;&gt;obj1 -->
<g id="edge9" class="edge"><title>mbr2&#45;&gt;obj1</title>
<path fill="none" stroke="black" stroke-dasharray="5,2" d="M70.2972,-55.7495C79.7943,-61.1673 90.6061,-67.3351 100.48,-72.968"/>
<polygon fill="black" stroke="black" points="98.7999,-76.0388 109.22,-77.9538 102.268,-69.9586 98.7999,-76.0388"/>
</g>
<!-- mbr2&#45;&gt;obj2 -->
<g id="edge5" class="edge"><title>mbr2&#45;&gt;obj2</title>
<path fill="none" stroke="black" d="M80.3851,-41.3967C103.504,-42.7198 133.774,-46.1575 159.295,-54.7479 170.267,-58.441 181.439,-64.2318 191.205,-70.0978"/>
<polygon fill="black" stroke="black" points="80.461,-37.8965 70.3087,-40.9266 80.1347,-44.8889 80.461,-37.8965"/>
<polygon fill="black" stroke="black" points="189.402,-73.0979 199.733,-75.4481 193.122,-67.1685 189.402,-73.0979"/>
</g>
<!-- mbr3 -->
<g id="node7" class="node"><title>mbr3</title>
<polygon fill="none" stroke="black" points="70,-166.748 16,-166.748 16,-130.748 70,-130.748 70,-166.748"/>
<text text-anchor="middle" x="43" y="-145.048" font-family="Times,serif" font-size="14.00">mbr3</text>
</g>
<!-- mbr3&#45;&gt;obj2 -->
<g id="edge10" class="edge"><title>mbr3&#45;&gt;obj2</title>
<path fill="none" stroke="black" stroke-dasharray="5,2" d="M70.1935,-152.362C94.2431,-154.595 130.418,-155.172 159.295,-143.748 173.342,-138.191 186.418,-128.017 196.88,-118.058"/>
<polygon fill="black" stroke="black" points="199.425,-120.463 204.013,-110.913 194.471,-115.518 199.425,-120.463"/>
</g>
<!-- mbr3&#45;&gt;obj3 -->
<g id="edge6" class="edge"><title>mbr3&#45;&gt;obj3</title>
<path fill="none" stroke="black" d="M76.9341,-123.254C77.3011,-122.757 77.6568,-122.255 78,-121.748 95.4151,-96.0099 73.0805,-73.3153 98,-54.7479 151.669,-14.7591 183.963,-37.3456 248.591,-54.7479 259.909,-57.7956 271.29,-63.4726 281.156,-69.432"/>
<polygon fill="black" stroke="black" points="74.2269,-121.031 70.177,-130.822 79.4482,-125.694 74.2269,-121.031"/>
<polygon fill="black" stroke="black" points="279.434,-72.4848 289.745,-74.917 283.201,-66.5851 279.434,-72.4848"/>
</g>
<!-- mbr4 -->
<g id="node8" class="node"><title>mbr4</title>
<polygon fill="none" stroke="black" points="70,-112.748 16,-112.748 16,-76.7479 70,-76.7479 70,-112.748"/>
<text text-anchor="middle" x="43" y="-91.0479" font-family="Times,serif" font-size="14.00">mbr4</text>
</g>
<!-- mbr4&#45;&gt;obj2 -->
<g id="edge11" class="edge"><title>mbr4&#45;&gt;obj2</title>
<path fill="none" stroke="black" stroke-dasharray="5,2" d="M68.2785,-112.875C77.162,-118.465 87.5951,-123.896 98,-126.748 124.274,-133.948 132.999,-133.864 159.295,-126.748 170.562,-123.699 181.881,-118.022 191.691,-112.063"/>
<polygon fill="black" stroke="black" points="193.707,-114.927 200.229,-106.578 189.924,-109.037 193.707,-114.927"/>
</g>
<!-- mbr4&#45;&gt;obj4 -->
<g id="edge7" class="edge"><title>mbr4&#45;&gt;obj4</title>
<path fill="none" stroke="black" d="M76.5056,-69.5045C77.0173,-68.9238 77.5161,-68.3381 78,-67.7479 90.3507,-52.6841 81.3776,-38.9043 98,-28.7479 192.793,29.1713 243.898,-12.3838 346.591,-54.7479 355.179,-58.2909 363.826,-63.3098 371.594,-68.4787"/>
<polygon fill="black" stroke="black" points="73.8797,-67.1804 69.2794,-76.7244 78.8274,-72.1323 73.8797,-67.1804"/>
<polygon fill="black" stroke="black" points="369.739,-71.4521 379.942,-74.3076 373.747,-65.7128 369.739,-71.4521"/>
</g>
<!-- mbr1 -->
<g id="node9" class="node"><title>mbr1</title>
<polygon fill="none" stroke="black" points="70,-220.748 16,-220.748 16,-184.748 70,-184.748 70,-220.748"/>
<text text-anchor="middle" x="43" y="-199.048" font-family="Times,serif" font-size="14.00">mbr1</text>
</g>
<!-- mbr1&#45;&gt;obj1 -->
<g id="edge8" class="edge"><title>mbr1&#45;&gt;obj1</title>
<path fill="none" stroke="black" d="M76.4341,-177.443C76.9677,-176.881 77.4903,-176.316 78,-175.748 92.2584,-159.858 105.141,-139.742 114.707,-123.069"/>
<polygon fill="black" stroke="black" points="73.8487,-175.072 69.0222,-184.504 78.6769,-180.141 73.8487,-175.072"/>
<polygon fill="black" stroke="black" points="117.836,-124.644 119.667,-114.209 111.728,-121.225 117.836,-124.644"/>
</g>
<!-- mbr1&#45;&gt;obj3 -->
<g id="edge12" class="edge"><title>mbr1&#45;&gt;obj3</title>
<path fill="none" stroke="black" stroke-dasharray="5,2" d="M70.1978,-194.858C109.79,-182.528 186.805,-156.949 248.591,-126.748 259.036,-121.642 270.113,-115.47 279.97,-109.689"/>
<polygon fill="black" stroke="black" points="281.827,-112.657 288.626,-104.531 278.244,-106.643 281.827,-112.657"/>
</g>
</g>
</svg>
