<?xml version="1.0" encoding="UTF-8" standalone="no"?>
<!DOCTYPE svg PUBLIC "-//W3C//DTD SVG 1.1//EN"
 "http://www.w3.org/Graphics/SVG/1.1/DTD/svg11.dtd">
<!-- Generated by graphviz version 2.38.0 (20140413.2041)
 -->
<!-- Title: G Pages: 1 -->
<svg width="416pt" height="246pt"
 viewBox="0.00 0.00 416.00 246.00" xmlns="http://www.w3.org/2000/svg" xmlns:xlink="http://www.w3.org/1999/xlink">
<g id="graph0" class="graph" transform="scale(1 1) rotate(0) translate(4 242)">
<title>G</title>
<polygon fill="white" stroke="none" points="-4,4 -4,-242 412,-242 412,4 -4,4"/>
<g id="clust1" class="cluster"><title>cluster_full</title>
<path fill="none" stroke="black" d="M20,-8C20,-8 388,-8 388,-8 394,-8 400,-14 400,-20 400,-20 400,-218 400,-218 400,-224 394,-230 388,-230 388,-230 20,-230 20,-230 14,-230 8,-224 8,-218 8,-218 8,-20 8,-20 8,-14 14,-8 20,-8"/>
<text text-anchor="middle" x="204" y="-214.8" font-family="Times,serif" font-size="14.00">gcFull</text>
</g>
<g id="clust2" class="cluster"><title>cluster_minor</title>
<path fill="none" stroke="black" d="M28,-124C28,-124 164,-124 164,-124 170,-124 176,-130 176,-136 176,-136 176,-187 176,-187 176,-193 170,-199 164,-199 164,-199 28,-199 28,-199 22,-199 16,-193 16,-187 16,-187 16,-136 16,-136 16,-130 22,-124 28,-124"/>
<text text-anchor="middle" x="96" y="-183.8" font-family="Times,serif" font-size="14.00">minor/gcNew</text>
</g>
<g id="clust3" class="cluster"><title>cluster_major</title>
<path fill="none" stroke="black" d="M28,-16C28,-16 380,-16 380,-16 386,-16 392,-22 392,-28 392,-28 392,-79 392,-79 392,-85 386,-91 380,-91 380,-91 28,-91 28,-91 22,-91 16,-85 16,-79 16,-79 16,-28 16,-28 16,-22 22,-16 28,-16"/>
<text text-anchor="middle" x="204" y="-75.8" font-family="Times,serif" font-size="14.00">major</text>
</g>
<!-- node_0_0 -->
<g id="node1" class="node"><title>node_0_0</title>
<ellipse fill="none" stroke="black" cx="150" cy="-150" rx="18" ry="18"/>
</g>
<!-- node_0_1 -->
<g id="node2" class="node"><title>node_0_1</title>
<ellipse fill="none" stroke="black" cx="96" cy="-150" rx="18" ry="18"/>
</g>
<!-- node_1_6 -->
<g id="node9" class="node"><title>node_1_6</title>
<ellipse fill="none" stroke="black" cx="96" cy="-42" rx="18" ry="18"/>
</g>
<!-- node_0_1&#45;&gt;node_1_6 -->
<g id="edge1" class="edge"><title>node_0_1&#45;&gt;node_1_6</title>
<path fill="none" stroke="black" d="M96,-131.969C96,-115.378 96,-89.8827 96,-70.4306"/>
<polygon fill="black" stroke="black" points="99.5001,-70.3406 96,-60.3406 92.5001,-70.3406 99.5001,-70.3406"/>
<text text-anchor="middle" x="119" y="-102.8" font-family="Times,serif" font-size="14.00">promote</text>
</g>
<!-- node_0_2 -->
<g id="node3" class="node"><title>node_0_2</title>
<ellipse fill="none" stroke="black" cx="42" cy="-150" rx="18" ry="18"/>
</g>
<!-- node_1_1 -->
<g id="node4" class="node"><title>node_1_1</title>
<ellipse fill="none" stroke="black" cx="366" cy="-42" rx="18" ry="18"/>
</g>
<!-- node_1_2 -->
<g id="node5" class="node"><title>node_1_2</title>
<ellipse fill="none" stroke="black" cx="312" cy="-42" rx="18" ry="18"/>
</g>
<!-- node_1_3 -->
<g id="node6" class="node"><title>node_1_3</title>
<ellipse fill="none" stroke="black" cx="258" cy="-42" rx="18" ry="18"/>
</g>
<!-- node_1_4 -->
<g id="node7" class="node"><title>node_1_4</title>
<ellipse fill="none" stroke="black" cx="204" cy="-42" rx="18" ry="18"/>
</g>
<!-- node_1_5 -->
<g id="node8" class="node"><title>node_1_5</title>
<ellipse fill="none" stroke="black" cx="150" cy="-42" rx="18" ry="18"/>
</g>
<!-- node_1_7 -->
<g id="node10" class="node"><title>node_1_7</title>
<ellipse fill="none" stroke="black" cx="42" cy="-42" rx="18" ry="18"/>
</g>
</g>
</svg>
