<?xml version="1.0" encoding="UTF-8" standalone="no"?>
<!DOCTYPE svg PUBLIC "-//W3C//DTD SVG 1.1//EN"
 "http://www.w3.org/Graphics/SVG/1.1/DTD/svg11.dtd">
<!-- Generated by graphviz version 2.38.0 (20140413.2041)
 -->
<!-- Title: G Pages: 1 -->
<svg width="472pt" height="262pt"
 viewBox="0.00 0.00 472.00 262.39" xmlns="http://www.w3.org/2000/svg" xmlns:xlink="http://www.w3.org/1999/xlink">
<g id="graph0" class="graph" transform="scale(1 1) rotate(0) translate(4 258.392)">
<title>G</title>
<polygon fill="white" stroke="none" points="-4,4 -4,-258.392 468,-258.392 468,4 -4,4"/>
<g id="clust1" class="cluster"><title>cluster_full</title>
<path fill="none" stroke="black" d="M20,-8C20,-8 444,-8 444,-8 450,-8 456,-14 456,-20 456,-20 456,-234.392 456,-234.392 456,-240.392 450,-246.392 444,-246.392 444,-246.392 20,-246.392 20,-246.392 14,-246.392 8,-240.392 8,-234.392 8,-234.392 8,-20 8,-20 8,-14 14,-8 20,-8"/>
<text text-anchor="middle" x="232" y="-231.192" font-family="Times,serif" font-size="14.00">gcFull</text>
</g>
<g id="clust2" class="cluster"><title>cluster_minor</title>
<path fill="none" stroke="black" d="M28,-132.196C28,-132.196 188,-132.196 188,-132.196 194,-132.196 200,-138.196 200,-144.196 200,-144.196 200,-203.392 200,-203.392 200,-209.392 194,-215.392 188,-215.392 188,-215.392 28,-215.392 28,-215.392 22,-215.392 16,-209.392 16,-203.392 16,-203.392 16,-144.196 16,-144.196 16,-138.196 22,-132.196 28,-132.196"/>
<text text-anchor="middle" x="108" y="-200.192" font-family="Times,serif" font-size="14.00">minor/gcNew</text>
</g>
<g id="clust3" class="cluster"><title>cluster_major</title>
<path fill="none" stroke="black" d="M28,-16C28,-16 436,-16 436,-16 442,-16 448,-22 448,-28 448,-28 448,-87.1961 448,-87.1961 448,-93.1961 442,-99.1961 436,-99.1961 436,-99.1961 28,-99.1961 28,-99.1961 22,-99.1961 16,-93.1961 16,-87.1961 16,-87.1961 16,-28 16,-28 16,-22 22,-16 28,-16"/>
<text text-anchor="middle" x="232" y="-83.9961" font-family="Times,serif" font-size="14.00">major</text>
</g>
<!-- node_0_0 -->
<g id="node1" class="node"><title>node_0_0</title>
<ellipse fill="none" stroke="black" cx="170" cy="-162.294" rx="22.1965" ry="22.1965"/>
<text text-anchor="middle" x="170" y="-158.594" font-family="Times,serif" font-size="14.00">obj</text>
</g>
<!-- node_0_1 -->
<g id="node2" class="node"><title>node_0_1</title>
<ellipse fill="none" stroke="black" cx="108" cy="-162.294" rx="22.1965" ry="22.1965"/>
<text text-anchor="middle" x="108" y="-158.594" font-family="Times,serif" font-size="14.00">obj</text>
</g>
<!-- node_1_6 -->
<g id="node9" class="node"><title>node_1_6</title>
<ellipse fill="none" stroke="black" cx="108" cy="-46.098" rx="22.1965" ry="22.1965"/>
<text text-anchor="middle" x="108" y="-42.398" font-family="Times,serif" font-size="14.00">obj</text>
</g>
<!-- node_0_1&#45;&gt;node_1_6 -->
<g id="edge1" class="edge"><title>node_0_1&#45;&gt;node_1_6</title>
<path fill="none" stroke="black" d="M108,-140.082C108,-122.696 108,-97.8434 108,-78.2055"/>
<polygon fill="black" stroke="black" points="111.5,-78.1962 108,-68.1962 104.5,-78.1963 111.5,-78.1962"/>
<text text-anchor="middle" x="131" y="-110.996" font-family="Times,serif" font-size="14.00">promote</text>
</g>
<!-- node_0_2 -->
<g id="node3" class="node"><title>node_0_2</title>
<ellipse fill="none" stroke="black" cx="46" cy="-162.294" rx="22.1965" ry="22.1965"/>
<text text-anchor="middle" x="46" y="-158.594" font-family="Times,serif" font-size="14.00">obj</text>
</g>
<!-- node_1_1 -->
<g id="node4" class="node"><title>node_1_1</title>
<ellipse fill="none" stroke="black" cx="418" cy="-46.098" rx="22.1965" ry="22.1965"/>
<text text-anchor="middle" x="418" y="-42.398" font-family="Times,serif" font-size="14.00">obj</text>
</g>
<!-- node_1_2 -->
<g id="node5" class="node"><title>node_1_2</title>
<ellipse fill="none" stroke="black" cx="356" cy="-46.098" rx="22.1965" ry="22.1965"/>
<text text-anchor="middle" x="356" y="-42.398" font-family="Times,serif" font-size="14.00">obj</text>
</g>
<!-- node_1_3 -->
<g id="node6" class="node"><title>node_1_3</title>
<ellipse fill="none" stroke="black" cx="294" cy="-46.098" rx="22.1965" ry="22.1965"/>
<text text-anchor="middle" x="294" y="-42.398" font-family="Times,serif" font-size="14.00">obj</text>
</g>
<!-- node_1_4 -->
<g id="node7" class="node"><title>node_1_4</title>
<ellipse fill="none" stroke="black" cx="232" cy="-46.098" rx="22.1965" ry="22.1965"/>
<text text-anchor="middle" x="232" y="-42.398" font-family="Times,serif" font-size="14.00">obj</text>
</g>
<!-- node_1_5 -->
<g id="node8" class="node"><title>node_1_5</title>
<ellipse fill="none" stroke="black" cx="170" cy="-46.098" rx="22.1965" ry="22.1965"/>
<text text-anchor="middle" x="170" y="-42.398" font-family="Times,serif" font-size="14.00">obj</text>
</g>
<!-- node_1_7 -->
<g id="node10" class="node"><title>node_1_7</title>
<ellipse fill="none" stroke="black" cx="46" cy="-46.098" rx="22.1965" ry="22.1965"/>
<text text-anchor="middle" x="46" y="-42.398" font-family="Times,serif" font-size="14.00">obj</text>
</g>
</g>
</svg>
